<?xml version="1.0" encoding="utf-8"?>
<!-- Generator: Adobe Illustrator 23.0.2, SVG Export Plug-In . SVG Version: 6.00 Build 0)  -->
<svg version="1.1" id="Ebene_1" xmlns="http://www.w3.org/2000/svg" xmlns:xlink="http://www.w3.org/1999/xlink" x="0px" y="0px"
	 viewBox="0 0 1200 1100" style="enable-background:new 0 0 1200 1100;" xml:space="preserve">
<style type="text/css">
	.st0{fill:url(#SVGID_1_);}
	.st1{fill:url(#SVGID_2_);}
	.st2{fill:url(#SVGID_3_);}
	.st3{fill:url(#SVGID_4_);}
	.st4{fill:none;}
	.st5{fill:url(#SVGID_5_);}
	.st6{fill:url(#SVGID_6_);}
	.st7{fill:#B8B8B8;}
	.st8{fill:#A0A0A0;}
	.st9{fill:#536064;}
	.st10{fill:#3A4548;}
	.st11{fill:#BF0202;}
	.st12{fill:#029707;}
	.st13{fill:#2B2F30;}
	.st14{fill:#010202;}
	.st15{enable-background:new    ;}
</style>
<g>
	
		<linearGradient id="SVGID_1_" gradientUnits="userSpaceOnUse" x1="353.75" y1="484.5" x2="353.75" y2="750.7" gradientTransform="matrix(1 0 0 1 0 2)">
		<stop  offset="2.770450e-07" style="stop-color:#5350C6"/>
		<stop  offset="1" style="stop-color:#0400AC"/>
	</linearGradient>
	<path class="st0" d="M444.3,752.7L409,674.6H296.5l-33.3,78.1h-38.8L338,486.5h26.7l118.4,266.2H444.3z M350.9,544.7l-39.6,95.9
		h82.2L350.9,544.7z"/>
	
		<linearGradient id="SVGID_2_" gradientUnits="userSpaceOnUse" x1="620.1" y1="486" x2="620.1" y2="750.7001" gradientTransform="matrix(1 0 0 1 0 2)">
		<stop  offset="2.770450e-07" style="stop-color:#5350C6"/>
		<stop  offset="1" style="stop-color:#0400AC"/>
	</linearGradient>
	<path class="st1" d="M671.4,561.7c0,15.5-3.8,28.9-11.3,40s-18.5,19.5-33.1,25.2c8.6,5.4,15.8,11.4,21.6,17.9s14.8,18.9,26.9,37.2
		l46.6,70.7H677l-41.9-65.2c-12.4-19.7-23.2-33-32.6-39.8c-9.3-6.8-19.2-10.2-29.6-10.2H556v115.2h-37.9V488H591
		c16.8,0,31.3,3.4,43.4,10.1c12.1,6.8,21.3,15.8,27.6,27C668.3,536.4,671.4,548.6,671.4,561.7z M632.6,561.7
		c0-12.9-3.8-22.8-11.5-29.8c-7.6-7-18.6-10.5-32.9-10.5H556v82.8h24.4c16,0,28.7-3,38.1-9C627.9,589.1,632.6,578,632.6,561.7z"/>
	
		<linearGradient id="SVGID_3_" gradientUnits="userSpaceOnUse" x1="778.25" y1="486" x2="778.25" y2="750.7" gradientTransform="matrix(1 0 0 1 0 2)">
		<stop  offset="2.770450e-07" style="stop-color:#5350C6"/>
		<stop  offset="1" style="stop-color:#0400AC"/>
	</linearGradient>
	<path class="st2" d="M759.3,752.7V488h37.9v264.7H759.3z"/>
	
		<linearGradient id="SVGID_4_" gradientUnits="userSpaceOnUse" x1="954.6001" y1="482.5999" x2="954.6001" y2="754.2" gradientTransform="matrix(1 0 0 1 0 2)">
		<stop  offset="2.770450e-07" style="stop-color:#5350C6"/>
		<stop  offset="1" style="stop-color:#0400AC"/>
	</linearGradient>
	<path class="st3" d="M1074.8,620.1c0,24-4.9,46.4-14.6,67.3c-9.7,20.8-23.9,37.5-42.4,50c-18.6,12.5-40.4,18.8-65.3,18.8
		c-23,0-43.4-6.1-61.3-18.4c-17.9-12.2-31.8-28.7-41.8-49.3s-15-43-15-67.3c0-23.6,4.7-45.9,14.1-66.8c9.4-20.9,23.1-37.8,41.2-50.6
		c18-12.8,39.6-19.2,64.5-19.2c23.2,0,43.9,6,62.3,18c18.4,12,32.7,28.4,42.9,49.1C1069.7,572.4,1074.8,595.2,1074.8,620.1z
		 M867.6,621.2c0,18.8,3.9,35.8,11.6,51c7.7,15.2,18.2,27,31.3,35.5s27.4,12.8,42.8,12.8c16.3,0,31.2-3.8,44.5-11.5
		c13.3-7.6,24-19,31.9-34.1c8-15.1,11.9-33.5,11.9-55.2c0-15.8-3.3-31.3-9.9-46.6s-16.5-27.9-29.6-37.9s-28.8-15-46.9-15
		c-17.9,0-33.5,4.5-46.8,13.5c-13.2,9-23.4,21.1-30.3,36.3C871.1,585.2,867.6,602.2,867.6,621.2z"/>
	<g>
		<path d="M428.2,291.1c0,26.9-5.6,52.1-16.9,75.5C400,390,383.6,408.7,362,422.8s-46.9,21.1-75.9,21.1c-26.7,0-50.4-6.9-71.2-20.6
			s-37-32.2-48.6-55.3c-11.6-23.1-17.4-48.3-17.4-75.5c0-26.5,5.5-51.5,16.4-75s26.9-42.4,47.8-56.8c21-14.4,46-21.6,75-21.6
			c26.9,0,51,6.7,72.4,20.2c21.3,13.5,38,31.8,49.9,55.1C422.3,237.6,428.2,263.2,428.2,291.1z M187.5,292.4
			c0,21.1,4.5,40.2,13.5,57.2s21.1,30.3,36.4,39.9s31.8,14.4,49.7,14.4c19,0,36.2-4.3,51.7-12.9s27.9-21.3,37.1-38.3
			c9.2-16.9,13.9-37.6,13.9-62c0-17.7-3.8-35.2-11.5-52.3c-7.7-17.2-19.2-31.3-34.4-42.5c-15.3-11.2-33.4-16.8-54.5-16.8
			c-20.8,0-39,5-54.3,15.1c-15.4,10.1-27.1,23.6-35.3,40.7C191.5,252,187.5,271.2,187.5,292.4z"/>
		<path d="M610.4,264.8c0,21.6-6.9,37.7-20.6,48.2c-13.7,10.5-33.2,15.8-58.4,15.8h-31.3V427h-32.4V200.6h69.1
			c23,0,41,5.7,54.1,17.1C603.9,229.1,610.4,244.8,610.4,264.8z M576.8,264c0-11.2-3.5-19.9-10.5-25.9s-19-9-36.2-9h-30v71.2h30
			c17.6,0,29.8-3.1,36.6-9.2C573.4,285,576.8,276,576.8,264z"/>
		<path d="M674.7,229.4v69.1h92.7v29h-92.7v70.4h99v29.2H642.3V200.6h128.4v28.9h-96L674.7,229.4L674.7,229.4z"/>
		<path d="M991.5,200.6h31.3v226.5h-28.2L844.2,252.8v174.3h-31.1V200.6h26.7l151.7,175.7L991.5,200.6L991.5,200.6z"/>
	</g>
	<path class="st4" d="M341.5,287.8l-18.9,32c-12.3,20.5-33.5,58.9-44.9,83.6c3.1,0.3,6.2,0.5,9.3,0.5c19,0,36.2-4.3,51.7-12.9
		s27.9-21.3,37.1-38.3c9.2-16.9,13.9-37.6,13.9-62c0-17.7-3.8-35.2-11.5-52.3c0-0.1-0.1-0.1-0.1-0.2l-6.9,8.6L341.5,287.8z"/>
	<path class="st4" d="M343.7,195.9c-15.3-11.2-33.4-16.8-54.5-16.8c-20.8,0-39,5-54.3,15.1c-15.4,10.1-27.1,23.6-35.3,40.7
		c-8.1,17.1-12.2,36.3-12.2,57.5c0,21.1,4.5,40.2,13.5,57.2s21.1,30.3,36.4,39.9c1.2,0.8,2.5,1.5,3.8,2.2
		c4.1-10.6,11.3-25.4,14.6-31.9l14.7-28l17.2-27c20.1-32.2,44.6-62.2,71.4-89l3.1-3C356.7,206.6,350.6,200.9,343.7,195.9z"/>
	
		<linearGradient id="SVGID_5_" gradientUnits="userSpaceOnUse" x1="132.8" y1="427.8" x2="132.8" y2="752.2" gradientTransform="matrix(1 0 0 1 0 2)">
		<stop  offset="2.770450e-07" style="stop-color:#5350C6"/>
		<stop  offset="1" style="stop-color:#0400AC"/>
	</linearGradient>
	<path class="st5" d="M226.1,429.8L202.6,488l-78.2,185.9L44,488H6l114,266.2h8.5L240.3,488c2.3-5.4,13.7-31.8,19.3-46.7
		C247.7,439.1,236.6,435.2,226.1,429.8z"/>
	
		<linearGradient id="SVGID_6_" gradientUnits="userSpaceOnUse" x1="241" y1="260.0997" x2="625.9" y2="260.0997" gradientTransform="matrix(1 0 0 1 0 2)">
		<stop  offset="2.770450e-07" style="stop-color:#5350C6"/>
		<stop  offset="1" style="stop-color:#D6D5F1"/>
	</linearGradient>
	<path class="st6" d="M603.9,120.8c-47.5-0.1-106.3,11.1-150,29.9l-13,6.8l-4.6,2.3c-7.6,3.9-15,8.2-22.1,13l-8.4,5.6
		c-4.4,3-8.9,5.9-13.3,8.9c-6.4,4.3-12.8,8.8-18.7,13.8L362,212.8l-3.1,3c-26.8,26.8-51.3,56.8-71.4,89l-17.2,27l-14.7,28
		c-3.3,6.5-10.5,21.3-14.6,31.9c11.5,6.5,23.7,10.4,36.6,11.7c11.4-24.6,32.6-63.1,44.9-83.6l10.3-17.4c5.8-9.7,12-19.2,18.6-28.4
		l19.7-27.2l6.9-8.6l4.3-5.3l8.6-8.1c5.4-5.3,11-10.5,16.7-15.5c19.3-17.1,40.1-32.5,63.3-44.1c36.4-18.2,70.3-26.6,110-33.8l45-7.6
		v-2L603.9,120.8z"/>
</g>
<g id="Ebene_3">
	<g>
		<path d="M1186.7,13.3c-16.5,7-26.9,9.6-38.5,10.7l-90,10.5l-75,7l-30,3l-15,1.4l-22-9.4c-8.8-3.4-24.6-6.1-34-6.2
			c-17.6-0.2-33.4,2.2-50,8.4l-30,13.2l-20-0.6l-13-1l-25-1l-17-1l-16-1l-28-1l-8-31l0,0l38.2-5h-17.2h-34l-12,1h-12l-10,0.9
			c-9.9,0.7-12.8-3.8-23.3,0.1l36.1,3.9l6.3,0.1l-3,1v16l1,11l-18-1l-14-1l-23-1l-16-1l-14-1l-22-1l-14-1l-14-1h-10l-10-1
			c-22.5-0.3-42.3-8-53-9c4.9,6.3,9.7,6.5,17,8.4l13,3.3l26,2.4l16,1.7l45,4l55,4.9l26,1.7c2.5,0.3,7.5,0.4,9.3,2.2
			c2.4,2.5,1.7,10,1.7,13.4l2,30l17,2l9-0.8l22-2l44-3.3l33-2.8l15-1h29l15,1l19-1c24.4-0.1,55.5-4.7,78-14.4c5-2.1,11.7-6.2,16-9.5
			c1.8-1.4,4.8-3.6,4.8-6.1s-3.2-5.3-4.8-7l19-2.2l45-5l111-13.6l37.7-6.2c10.3-2.7,20.4-6.2,30-12.1L1186.7,13.3z M755.2,69.6
			l-38,8.7c-4.8,1.3-18.7,5.3-22.9,3c-4.5-2.6-7.4-19.6-8.1-25l21,1l10,0.9l25,1.2l14,0.9l24,2C774.1,66.1,762.4,68.1,755.2,69.6z"
			/>
	</g>
	<g>
		<path class="st7" d="M665.4,12.2l0.2,1L641,16.3l-0.7,14.1l1,11l-18-1l-14-1l-23-1l-16-1l-14-1l-22-1l-14-1l-14-1h-10l-10-1
			c-22.5-0.3-42.3-8-53-9c4.9,6.3,9.7,6.5,17,8.4l13,3.3l26,2.4l16,1.7l45,4l55,4.9l26,1.7l72,4.6l10,0.9l25,1.2l14,0.9l24,2
			c-0.5,0.3,67.4,4.9,66.9,5.1s-1.1,1.8-1.6,2c-0.6,0.3-69.4-5.1-70.1-4.9c-6.3,2.4-14.6,3.9-20.2,5l-38,8.7
			c-4.8,1.3-18.7,5.3-22.9,3c-4.2-2.4-6.9-16.6-7.8-23l-41-3c0.3,3,0.7,10.3,0.7,13l2,30l17,2l9-0.8l22-2l44-3.3l33-2.8l15-1h29
			l15,1l19-1c24.4-0.1,55.5-4.7,78-14.4c5-2.1,11.7-6.2,16-9.5c1.8-1.4,4.8-3.6,4.8-6.1s-3.2-5.3-4.8-7l19-2.2l45-5l111-13.6l39-5.1
			c11.1-1.3,21.8-5.2,31.5-11.2l-1.5-0.9c-17.4,7.8-27.4,9-39,10.1l-92,9.1l-75,7l-30,3l-15,1.4l-22-9.4c-8.8-3.4-24.6-6.1-34-6.2
			c-17.6-0.2-33.4,2.2-50,8.4l-30,13.2l-20-0.6l-13-1l-25-1l-17-1l-16-1l-28-1l-8-31l42.2-2l-0.2-1l-19.4-1.8
			c-1.1-0.1-2.2-0.2-3.3-0.2h-32.4c-21.1-0.5-53.3,4.3-53.3,4.3v0.7L665.4,12.2z"/>
	</g>
</g>
<g>
	<g>
		<path class="st8" d="M597.8,1018.4c-5.8-0.3-10.6-0.9-16-2c-26.6-5.2-50.4-18.7-68.7-38.8c-16.8-18.5-27.6-41.5-31.2-66.2
			c-0.8-5.3-1.1-10.8-1.1-17.8c0-9.3,0.6-16.1,2.1-23.9c4.2-21.7,14.1-41.9,28.8-58.6c2.3-2.6,7.3-7.7,10-10.2
			c18.6-16.8,41.5-27.6,66.2-31.2c5.3-0.8,10.8-1.1,17.7-1.1c7.1,0,12.6,0.3,17.9,1.1c28.8,4.1,55.1,18.1,74.9,39.8
			c16.8,18.5,27.6,41.5,31.2,66.2c0.8,5.3,1.1,10.8,1.1,17.8s-0.3,12.5-1.1,17.8c-3.4,24-13.7,46.3-29.7,64.6
			c-2.3,2.7-7.3,7.7-10.1,10.2c-18.5,16.8-41.5,27.6-66.1,31.2c-3.8,0.5-5.9,0.7-10.5,1C609.5,1018.6,601.4,1018.6,597.8,1018.4
			L597.8,1018.4z M613.4,1012.8c8.7-0.6,16.5-1.9,24.4-4.1c26.5-7.4,49.1-23.4,65.4-46.1c9.1-12.7,15.7-27.6,19.1-43.1
			c1.1-5.1,1.9-10.3,2.5-16.2l0.2-2.2v-14.8l-0.2-2.2c-0.8-8.3-2-15.4-4-22.4c-5.5-19.9-16-37.7-30.5-52.3
			c-17.3-17.3-39.1-28.8-63.3-33.2c-2.8-0.5-7.1-1.1-10.7-1.4l-2.8-0.3H598l-2.8,0.3c-7.7,0.8-14.3,2-21,3.8
			c-27.8,7.6-51.6,24.8-67.9,49.1c-4.7,7-9.1,15.5-12.2,23.7c-4,10.5-6.3,20.7-7.4,32.7l-0.2,2.2V901l0.2,2.2
			c1.5,15.7,5.1,29,11.6,42.5c9.8,20.4,26,38.2,45.4,50c16.5,10,34.7,15.8,54.1,17.1C600.4,1013,610.8,1013,613.4,1012.8
			L613.4,1012.8z M517.5,971l-0.2-0.3l0.1-4.5c0.4-12.5,2.1-24.2,5.4-36c1.1-3.8,3.3-10.5,4.7-13.9l1-2.6l-0.6-1.8
			c-0.3-1-0.6-2-0.6-2.3v-0.4l0.7-0.6l2.9-0.1l2-4c1.9-3.9,3.6-7,5.2-9.7c0.5-0.7,0.8-1.4,0.8-1.5c0-0.2-4-4.1-4.2-4.2l-0.1,0v8.9
			l-0.8,0.8h-5.5l-0.3-0.2c-0.2-0.1-0.4-0.4-0.5-0.7l-0.2-0.5V889v-8.3l-0.6-0.7c-11.6-14.5-18-30.5-18.6-46.7l-0.1-2.8l0.4-0.5
			h18.7l0.2,0.3l0.2,0.3l0.1,2.7c0,1.5,0.1,3.1,0.2,3.6l0.1,1h32.3l0.3,0.3c0.5,0.5,0.5,0.8,0.4,3.6l0,2.5l-0.4,0.4l-0.4,0.4h-25.6
			v14.4l0.9,1.7c0.5,0.9,1,1.8,1.2,2.1l0.3,0.4h21.7l0.7,0.8v2.5h0.2c0.1,0,1.2-1,2.4-2.2c1.2-1.2,2.9-2.8,3.8-3.5l1.5-1.4v-0.5V859
			l0.6-0.6h1.4l1.6-1.3c12.5-10,26.1-17.6,40.8-22.5c10.2-3.5,19.4-5.3,31.5-6.5l2-0.2l15.6-0.1l2.4-2.2c2.6-2.4,5.4-5.6,6-6.6
			l0.3-0.7l-0.6-0.8c-0.3-0.4-0.6-0.9-0.7-1.1c-0.1-0.5,0.2-1.1,0.7-1.3l0.4-0.2l0.3,0.2c0.7,0.3,2.8,2.1,3,2.6l0.3,0.5l-0.2,0.6
			c-0.2,0.6-2.4,4.1-3.6,5.7c-0.4,0.5-1.3,1.6-2,2.4s-1.2,1.5-1.2,1.5s1.3,0.2,2.9,0.4c11,1.3,21.7,4.1,32.5,8.4
			c2.1,0.8,2.2,0.9,2.2,1.4c0,0.2-1,3.2-2.3,6.6l-2.3,6.2l-0.3,0.2l-0.3,0.2l-2.9-1.1c-10.9-4.3-21.8-6.8-33.8-7.7l-3.1-0.3l-11.6,0
			l-1.9,0.8c-1,0.5-2.1,1-2.3,1.1c-0.8,0.5-4.1,1.8-7.6,3.1l-3.4,1.3l-2.8,0.7c-1.6,0.4-3.2,0.7-3.7,0.8l-0.8,0.1l-2.2-0.7l-0.7-0.8
			c-0.4-0.4-0.9-1-1.1-1.3l-0.4-0.5l-1.8,0.6c-10.6,3.4-20.9,8.4-29.6,14.2c-1.6,1.1-1.7,1.1-1.7,1.7c0,0.2-0.2,0.6-0.3,0.8
			l-0.3,0.4l-1.6-0.2l-2.2,1.6c-2.2,1.6-7.3,5.8-7.8,6.4l-0.3,0.3l-0.2,0.9l-0.2,0.9v22.6l-0.5,1.1l-0.4,0.1c-0.2,0-0.8,0.1-1.4,0.1
			l-1,0l1.4,1c0.8,0.5,2.3,1.5,3.4,2.2c22,13.8,49.6,23.8,80.2,29.3l3.4,0.6l1.3-0.9c5.5-3.6,12.9-4,18.9-0.9
			c1.8,0.9,3.1,1.9,4.7,3.5l1.3,1.3l2.6,0.2c1.5,0.1,4.2,0.2,6.1,0.3c1.9,0.1,4.1,0.2,4.9,0.2l1.5,0.1l0.5,0.4v11.2l-0.2,0.2
			l-0.2,0.2l-4.9-0.2c-2.7-0.1-5-0.2-5.3-0.2l-0.4,0l0,2.1c0,2.5-0.3,4.2-0.8,6.2c-0.7,2.8-2,5.5-3.7,7.7c-0.9,1.1-3,3.2-4.1,3.9
			c-6.1,4.2-14.5,4.2-20.7,0.2c-4.8-3.1-7.8-8.5-8.7-15c-0.3-2.8-0.3-4.9,0.3-8.7l0.1-0.6l-1.2-0.2c-0.7-0.1-2.7-0.5-4.5-0.8
			s-3.3-0.6-3.3-0.6s-0.1,6.1-0.1,13.6v13.6l-0.3,0.3c-0.5,0.5-0.8,0.5-3.3,0.5l-2.3,0l-0.7-0.7l0-14.4l0-14.4h-0.2
			c-0.3,0-7-1.6-10.7-2.6l-2.7-0.7l-0.4,0.1c-0.6,0.1-2.1,1.7-2.8,2.8c-0.6,1-1.1,2.3-1.5,3.7l-0.3,1l-0.1,12.2l-0.1,12.2l-0.7,0.7
			h-5.3l-0.3-0.3l-0.3-0.3l-0.1-16.8c0-9.3-0.2-17.3-0.2-17.8l-0.1-1l-2.9-1c-12.7-4.4-22.7-8.7-33.1-14.1c-1.5-0.8-2.9-1.4-3-1.4
			c-0.1,0-4.1,11.7-9,25.9c-4.8,14.2-8.9,26-9,26.3s-0.4,0.5-0.6,0.6l-0.4,0.2l-5.2-0.1l-0.3-0.3l-0.3-0.3l-5.4-16
			c-3-8.8-5.4-16.1-5.5-16.1c-0.2-0.2-0.5,1.2-1.4,5.1c-1.9,8.5-2.8,16.3-3.1,25.1l-0.1,4.3l-0.4,0.5h-13.2L517.5,971z M674.1,963
			c4.5-1.4,7.5-5,8.6-10.2c0.3-1.5,0.5-4.6,0.3-5.5l-0.1-0.6l-2.3-0.2c-5.5-0.5-12.5-1.2-18.4-2c-1.7-0.2-3.1-0.4-3.2-0.3
			c-0.2,0.2-0.5,2.1-0.6,3.9l-0.1,2l0.2,1.4c0.5,4,2.2,7.3,4.8,9.4c1.2,1,3.4,2.1,4.8,2.4l1.1,0.2l3.9-0.1L674.1,963z M557.9,934.8
			c4-12.1,7.3-22.1,7.3-22.2v-0.2l-2.3-1.4c-2.8-1.7-8.2-5.3-10.7-7.2c-1-0.8-2-1.4-2-1.4c-0.3,0-2.5,3.9-5,8.9
			c-1.6,3.1-3.7,8.1-4.9,11.2l-0.7,1.7l5.3,16.1c2.9,8.9,5.3,16.2,5.4,16.4l0.1,0.2l0.1-0.1C550.5,956.9,553.9,946.9,557.9,934.8
			L557.9,934.8z M567.2,888c0-4.5,0-8.1-0.1-8.1c-0.4,0-8.2,9.2-8.2,9.7v0.3l1.5,1.2c1.3,1.1,4.6,3.7,6,4.7c0.3,0.2,0.5,0.3,0.6,0.3
			C567.1,896.1,567.2,892.5,567.2,888L567.2,888z M549.7,877.8c1.5-1.9,5.1-6,5.5-6.3c0.1-0.1,0.3-0.3,0.3-0.3V871h-7
			c-3.9,0-7,0-7,0.1c0,0.2,2.3,3.1,4.1,5.3c1,1.2,2,2.4,2.2,2.6s0.4,0.4,0.5,0.4S549,878.7,549.7,877.8L549.7,877.8z M628.5,848.7
			l2.9-0.7l3.2-1.2c6.8-2.5,12.1-5.1,16.5-7.8l1.6-1l3,0.3l4.7-0.2l1.2-0.3c1.2-0.3,4.3-1.5,4.7-1.8c0.1-0.1,0.2-0.3,0.2-0.5v-0.4
			l-0.5-0.4c-1-0.9-2.1-1.1-4.9-1.2l-1.4,0l0-0.2l0-0.2l1.9-1.7c2.2-1.9,4.8-4.8,6.4-6.8c1.2-1.6,3.3-4.7,3.8-5.7l0.3-0.7l-0.2-0.3
			c-0.2-0.3-2.5-2.2-2.7-2.2c-0.1,0-0.2,0.1-0.2,0.2l-0.1,0.2l0.6,0.9c0.3,0.5,0.6,1,0.6,1.2c0,0.8-2.5,3.8-5.7,6.9
			c-2.7,2.6-6.7,6.2-8.7,7.9l-1.5,1.3l-2.2,0.7c-1.2,0.4-2.8,0.8-3.5,0.9c-4.5,0.8-6.7,1.2-8.2,1.3l-1.6,0.2l-0.2-0.2
			c-0.4-0.4-2.4-4.2-2.3-4.4c0-0.1,0.6-0.5,1.2-1l1.1-0.8l0-0.3c0.1-0.4-0.2-0.6-0.8-0.6h-0.5l-1.7,1c-0.9,0.5-2.3,1.3-3,1.7
			c-0.7,0.4-1.6,1-1.8,1.2l-0.5,0.4l0.2,0.5h0.4c0.2,0,0.7-0.1,1-0.3l0.6-0.3l0.2,0.2c0.1,0.1,0.5,1,0.8,2c0.4,1,0.8,1.9,0.8,2
			c0.2,0.2,1.8,0.2,4.7-0.1c1.6-0.1,4.1-0.4,5.7-0.5l2.8-0.2l0.2,0.2l0.2,0.2l-1.1,0.7c-2.2,1.4-4.2,2.5-6.6,3.5
			c-1.3,0.6-3.7,1.6-5.2,2.3c-1.5,0.7-4,1.7-5.5,2.2l-2.7,0.9h-2.5l-0.5-0.2c-0.2-0.1-0.8-0.6-1.1-1c-0.9-1.1-1.8-1.5-2-0.7
			l-0.1,0.2l0.5,0.8c0.3,0.5,0.8,1.1,1.1,1.5l0.6,0.6l1.5,0.5l0.9-0.1C625.2,849.5,626.9,849.1,628.5,848.7L628.5,848.7z M637,844.8
			c0.1-0.3,0.9-0.7,3.4-1.8l2.3-1l2.6-1.5c4.2-2.5,5-2.9,5.8-2.9h0.2l-0.5,0.4c-0.7,0.7-3.3,2.1-5.7,3.2c-1.2,0.5-2.6,1.3-3.3,1.6
			c-1.2,0.6-3.7,1.7-4.4,1.9L637,845L637,844.8L637,844.8z M634.6,838.1c-0.2-0.2-1.4-3-1.4-3.4c0-0.2,1.5-1,1.8-0.9
			c0.2,0,2.2,3.6,2.2,4c0,0.3-0.1,0.4-1.3,0.5l-1.1,0.1L634.6,838.1z M655.9,837.6c-0.6,0-1.1-0.1-1.2-0.2l-0.2-0.2l1-0.9l-0.1-0.2
			c0-0.1-0.4-0.3-0.7-0.4s-0.6-0.2-0.6-0.3c0-0.4,2.1-0.9,4.9-1l1.7-0.1l1.5,0.2c0.8,0.1,1.8,0.3,2.2,0.5l0.7,0.3l0,0.3l0,0.3
			l-1.4,0.6C661.4,837.3,658.6,837.8,655.9,837.6L655.9,837.6z M656.5,833.5c0-0.1,0.2-0.4,0.5-0.7c1.6-1.4,2.3-2.1,4.3-3.9
			c1.2-1.1,2.9-2.7,4-3.7s1.9-1.8,2-1.8h0.2l-0.2,0.3c-0.6,1.2-4.2,5-7.1,7.6c-1.2,1.1-2.3,2-2.5,2.1
			C657,833.7,656.6,833.7,656.5,833.5L656.5,833.5z M629,846.2c1.6-0.5,3.6-1.3,4.3-1.6l1.3-0.6l-0.9,0.1c-1.8,0.2-10.3,2-10.6,2.3
			c-0.1,0.1,0.3,0.6,0.6,0.7c0.2,0.1,0.7,0.1,1.2,0.1l0.9,0L629,846.2L629,846.2z M582,970c-2.2-0.3-4.9-1.3-6.2-2.3
			c-2.1-1.6-3.6-3.9-4.3-6.5l-0.3-1.1l0-4.5l0.5-2.5l0.6-1.3l0.6-1.3l1.2-1.3c0.7-0.7,1.6-1.6,2.1-1.9c2.2-1.5,5.1-2.5,8.3-3
			c1.7-0.2,6.6-0.5,9-0.5h1.5v-1.4c0-2.4-0.5-4-1.7-5.4c-0.8-0.9-1.6-1.3-3.2-1.9l-1.2-0.4l-1.6-0.1l-1.6-0.1l-1.2,0.2
			c-2.5,0.4-4.5,1.3-6.6,3l-1.3,1h-0.8l-0.4-0.4c-0.2-0.2-0.9-1.1-1.6-2l-1.2-1.6v-1l1.1-1.1c2.5-2.4,6-4,10.3-4.7l1.5-0.2l2,0.1
			c3.1,0.1,5.5,0.7,7.7,2l1.2,0.7l2.5,2.5l0.6,1.1c0.7,1.3,1.1,2.5,1.5,3.9l0.2,1l0.1,10.7c0.1,5.9,0.2,11.8,0.3,13.2
			c0.1,1.4,0.2,3.2,0.3,4l0.1,1.5l-0.7,0.6l-2,0c-1.1,0-2.3,0-2.6,0l-0.5-0.1l-0.2-0.4c-0.1-0.2-0.3-1-0.4-1.8s-0.2-1.4-0.2-1.5
			c0,0-0.7,0.5-1.4,1.2l-1.3,1.2l-1.2,0.6C588.9,969.9,585.4,970.4,582,970L582,970z M588,963c0.5-0.1,1.4-0.5,2-0.8l1.1-0.6l2.1-2
			l0.6-1.3c0.3-0.7,0.8-1.8,0.9-2.5l0.2-1.2l0.1-2.3l0.1-2.3h-2.2c-5.5,0-9.4,0.7-11.8,2.1c-1.1,0.7-2.3,1.9-2.8,2.8l-0.4,0.8l0,3.4
			l0.5,0.9c0.8,1.5,2.2,2.6,4.2,3.2l0.8,0.2l3.8-0.1L588,963L588,963z M638.7,919.5c-1.8-0.5-3-2-3.3-4.1l-0.1-0.8l0.2-1
			c0.4-1.7,1.5-2.9,3-3.4l0.7-0.2l0.9,0.1c1.2,0.1,2,0.5,2.8,1.5l0.7,0.8l0.3,0.9l0.3,0.9l-0.2,2.2l-0.3,0.7
			c-0.8,1.5-2.1,2.5-3.6,2.6l-0.8,0.1L638.7,919.5z M602.9,899.2c-4.9-1-8.9-3.9-11.6-8.5c-1.2-2-2.2-4.9-2.7-7.9l-0.2-1.2l0-6.6
			l0.3-1.4c0.7-3.3,1.7-6,3.3-8.4l1.1-1.6l1.3-1.3c2.7-2.7,5.7-4.3,9.3-4.9c0.5-0.1,1.9-0.2,3-0.2l2,0l1.4,0.3
			c5.6,1.2,10.3,5.5,12.3,11.3c0.2,0.7,0.6,1.8,0.7,2.6l0.3,1.3l0.1,3.6l0.1,3.6l-0.9,0.7h-27.6l-0.1,0.1c-0.2,0.3,0.6,3.4,1.1,4.6
			c0.8,1.9,1.5,2.9,2.7,4.2l1.2,1.2l2.2,1.3l2.5,0.6l3.6,0l1.2-0.3c3.1-0.8,5.5-2.5,7.2-5.1c0.4-0.5,0.8-1,1-1.1l0.3-0.1l0.4,0.1
			c0.2,0.1,1.2,0.9,2.2,1.8l1.8,1.7v1l-0.9,1.4c-2.7,4-6.4,6.3-11.5,7.2l-1.3,0.2l-4.5,0L602.9,899.2L602.9,899.2z M616.9,873.7
			c0-0.7-0.7-2.7-1.3-3.9c-1.5-2.8-3.9-4.8-6.9-5.6l-1-0.3h-1.5c-1.9,0-3.1,0.2-4.5,0.9c-3,1.5-5.7,4.9-6.5,8.7l-0.1,0.4h21.7
			L616.9,873.7L616.9,873.7z M644.4,899.3c-6.3-1.1-11.5-5.9-13.7-12.4c-0.6-1.9-1-4-1.2-6.3l-0.2-2.1l0.2-2.1
			c0.4-5.6,2.3-10,5.6-13.5c3.8-4,8.6-5.8,14-5.4c7.6,0.6,13.4,6.1,15.2,14.5l0.3,1.5l0.1,3.3l0.1,3.3l-0.4,0.4l-0.4,0.4h-27.9
			l0.1,0.8c0.4,3.2,1.9,6.2,4,8.3c2.2,2.2,4.2,2.9,7.5,2.9h1.7l1.2-0.3c2.9-0.8,5.7-2.7,7.2-5.2l0.6-1l0.4-0.1
			c0.8-0.2,0.9-0.1,3.2,2.2l1.4,1.4v0.8l-0.9,1.3c-1.8,2.6-3.8,4.4-6.4,5.7c-1.7,0.8-3.2,1.3-5.1,1.7l-1.3,0.2l-2.3,0
			C646.5,899.5,645,899.4,644.4,899.3L644.4,899.3z M658,874c0-0.1,0-0.6-0.2-1.2l-0.2-1.1l-1.6-3.3l-2.5-2.5l-1.1-0.6
			c-1.4-0.7-2.4-1-3.8-1.2l-1.2-0.2l-1.3,0.2c-2.5,0.3-4.4,1.2-6.3,3.3c-1.5,1.6-3,4.3-3.3,6.1l-0.1,0.6h10.8
			C653.1,874.1,657.9,874,658,874L658,874z"/>
		<path class="st9" d="M599,1018.4c-36.9-2-71.1-20.3-93.4-50.1c-16.1-21.5-24.8-47.7-24.8-74.7c0-39.5,18.5-76.4,50.2-100.2
			c15.8-11.8,34.3-19.8,53.8-23.1c2.8-0.5,7.6-1.1,11.2-1.4l3.2-0.3h13l3.2,0.3c3.6,0.3,8.3,0.9,11.2,1.4
			c31.7,5.4,60,22.7,79.3,48.5c18.7,25,27.3,56,24.2,87.1c-3.3,33-19.2,62.8-44.9,84.1c-7,5.8-15.3,11.2-23.8,15.4
			C642.3,1015.1,620.6,1019.5,599,1018.4L599,1018.4z M613.7,1012.9c35.8-2.3,68.5-20.6,89.6-50c11.1-15.6,18.5-34,21-52.9
			c0.6-4.2,0.8-7.5,1-12.2l0.2-4.2l-0.2-4.2c-0.7-18-4.8-34-12.8-49.9c-10.6-20.9-27.8-38.9-48.2-50.3c-15.7-8.7-32.4-13.7-50.6-15
			c-3.3-0.2-12.3-0.2-15.6,0c-10.9,0.8-20.8,2.7-30.5,6.1c-24,8.2-44.4,23.4-59.3,44.3c-11.6,16.3-19,35.8-21.2,55.9
			c-0.5,4.7-0.7,7.7-0.7,13.1c0,5.4,0.1,8.4,0.7,13.1c2.2,20.2,9.6,39.7,21.4,56.1c8.3,11.7,18.6,21.7,30.2,29.6
			c17.6,12,38.4,19.1,59.6,20.4C603.2,1013.2,608.7,1013.2,613.7,1012.9L613.7,1012.9z M517.6,970.9l-0.2-0.3l0.1-4.4
			c0.4-12.4,2.2-24.2,5.4-35.8c1.1-3.8,3.3-10.5,4.7-14l1-2.6l-0.6-1.9c-0.7-2.1-0.8-2.5-0.3-2.8l0.3-0.3h2.5l0.3-0.2
			c0.1-0.1,1.2-2,2.3-4.3c2-4,3.7-7.1,5.3-9.8c0.5-0.8,0.8-1.4,0.8-1.5c-0.1-0.3-4.5-4.4-4.6-4.4h-0.2v9l-0.7,0.8h-5.4l-0.7-0.5
			l-0.1-17.2l-0.5-0.6c-11.7-14.6-18-30.4-18.6-46.6l-0.1-3.1l18.9,0.1l0,1.2c0,1.6,0.3,5.7,0.5,6.1l0.1,0.3H560l0.7,0.5l0,3l0,3
			l-0.8,0.4h-25.5v14.7l0.9,1.7c0.5,0.9,1,1.8,1.2,2.1l0.3,0.4h10.8c5.9,0,10.9,0,11,0.1c0.1,0.1,0.2,0.3,0.3,0.5l0.2,0.3v2.7
			l0.3-0.2c0.2-0.1,1.3-1.2,2.6-2.4s3-2.8,3.8-3.6l1.4-1.3v-0.6v-0.6l0.7-0.5h1.3l1.1-0.9c8.5-6.8,15.6-11.4,24.6-15.9
			c15.5-7.8,30-11.8,48.3-13.5l2-0.2l15.6-0.1l1-1c5.1-4.9,7.7-7.8,7.7-8.6c0-0.1-0.3-0.6-0.6-1.1l-0.6-0.8l0-0.4
			c0-0.2,0.2-0.5,0.5-0.7l0.4-0.3l0.5,0.2c0.7,0.4,2.6,2,2.8,2.5l0.2,0.4l-0.2,0.5c-0.4,1.3-3.9,6.3-5.9,8.5c-0.5,0.6-1,1.1-1,1.2
			s1.3,0.3,3,0.5c11,1.3,21.8,4.1,32.6,8.4c2,0.8,2.2,0.9,2.2,1.3c0,0.3-4.5,12.4-4.7,12.7c-0.1,0.1-0.3,0.2-0.4,0.2
			s-1.6-0.5-3.2-1.2c-10.5-4.1-21.4-6.6-33.2-7.5l-3.1-0.3l-12,0l-2.5,1.2c-2.5,1.2-6.3,2.9-6.6,2.9c-0.1,0-1.1,0.4-2.3,0.8
			s-2.7,1-3.2,1.2c-1,0.3-5.7,1.5-6.8,1.6l-0.6,0.1l-0.8-0.2c-1.1-0.3-1.8-0.7-2.5-1.6c-0.3-0.4-0.7-0.9-0.9-1.1l-0.3-0.3l-1.2,0.3
			c-2.2,0.7-7.5,2.5-10.3,3.7c-6.9,2.9-14,6.7-20,10.7l-1.6,1.1l-0.1,0.4c0,0.2-0.2,0.6-0.3,0.8l-0.2,0.4h-1.9l-2.3,1.7
			c-3.2,2.5-7.4,5.9-7.8,6.5l-0.3,0.5l-0.3,3.9v10.4v10.4l-0.7,0.5h-1.2c-0.7,0-1.2,0.1-1.3,0.1s0.9,0.8,2.1,1.5
			c18.7,12.2,41.4,21.7,66.9,27.8c5.5,1.3,12.6,2.8,17.3,3.6l2.5,0.4l1-0.7c2.4-1.7,5.5-2.8,8.8-3.1l1.8-0.2l1.8,0.2
			c4.8,0.5,8.2,2.2,11.6,5.7l1.2,1.3l1.4,0.1c2.2,0.2,10.1,0.5,11.9,0.6l1.6,0l0.3,0.3l0,5.5l0,5.5l-3.4,0c-1.8,0-4.3-0.1-5.4-0.2
			l-2-0.1l-0.1,0.2c-0.1,0.1-0.2,1.5-0.2,3l-0.1,2.9l-0.4,1.6c-1.3,5.5-4.1,9.7-8.1,12.4c-2.6,1.7-5.1,2.6-8.4,2.9l-1.8,0.2
			l-1.8-0.2c-1-0.1-2.4-0.4-3.2-0.6l-1.5-0.4l-1.7-0.8c-2-1-3.3-2-5-3.7c-3.2-3.4-5.1-7.9-5.6-13.3l-0.2-2.1l0.2-2
			c0.1-1.1,0.2-2.5,0.4-3.1c0.1-0.6,0.2-1.1,0.1-1.2c0,0-1.8-0.4-4-0.8c-2.1-0.4-4.1-0.8-4.4-0.8c-0.3-0.1-0.6-0.1-0.8-0.1l-0.2,0.1
			v27.1l-0.3,0.4l-0.3,0.4l-2,0c-2.3,0.1-3,0-3.4-0.4l-0.2-0.2V940l-0.3-0.3c-0.2-0.2-0.4-0.3-0.6-0.3c-0.3,0-9.5-2.3-11.7-2.9
			l-1.4-0.4l-0.5,0.2c-0.3,0.1-1,0.7-1.5,1.3l-1,1.1l-0.6,1.3c-0.8,1.7-1.2,3.4-1.4,5.7l-0.2,1.8V958v10.4l-0.2,0.2
			c-0.4,0.4-1.1,0.5-3.4,0.4l-2,0l-0.6-0.7l-0.1-17.1c0-9.4-0.1-17.5-0.2-17.8l-0.1-0.7l-2.3-0.8c-9.2-3.2-14.8-5.4-21.5-8.4
			c-3.2-1.4-8.5-4-12.3-6l-3-1.5l-0.2,0.2c-0.1,0.1-4.2,11.9-9,26.2l-8.8,26L553,969h-5.5l-0.7-0.8l-5.4-16.2
			c-3-8.9-5.5-16.2-5.6-16.2l-0.2,0l-0.5,2c-2.3,9.4-3.6,18.7-3.9,28.7l-0.1,4.3l-0.4,0.5h-12.9L517.6,970.9z M674.4,963.1
			c5.7-1.9,9.1-7.7,8.8-14.8l-0.1-1.6l-0.5-0.4l-2.5-0.2c-4.9-0.4-12.5-1.2-18.2-2l-3-0.4l-0.2,0.3c-0.1,0.1-0.3,0.7-0.4,1.3l-0.2,1
			l0,5.8l0.8,3.1l0.8,1.6l0.8,1.6l1.2,1.3c1.8,1.9,3.8,3.1,6.2,3.6l0.9,0.2l4.2-0.1L674.4,963.1L674.4,963.1z M558,934.9
			c4.1-12.3,7.4-22.4,7.3-22.5c0-0.1-1.1-0.8-2.4-1.6c-2.9-1.8-8.2-5.3-10.8-7.2c-1.1-0.8-2-1.4-2.1-1.4c-0.5,0-5.5,9.5-7.8,14.8
			c-1.3,3-2.9,7-2.9,7.3c0,0.2,10.8,32.9,10.9,33.1l0.1,0.1l0.1-0.1C550.5,957.3,554,947.2,558,934.9L558,934.9z M567.3,888l0-8.4
			h-0.2c-0.4,0-8,8.8-8.5,9.8l-0.2,0.4l0.5,0.5c2.6,2.2,7.8,6.2,8,6.2l0.2,0L567.3,888L567.3,888z M550.1,877.7
			c0.9-1.1,2.4-2.9,3.4-4c1-1.1,1.9-2.2,2.1-2.4l0.3-0.4l-0.5-0.3h-6.9c-3.8,0-7,0-7.2,0.1c-0.1,0-0.2,0.2-0.2,0.2
			c0,0.5,6.7,8.7,7.1,8.7C548.3,879.7,549.2,878.8,550.1,877.7L550.1,877.7z M628.6,848.9l2.9-0.7l3-1.1c7.2-2.7,12.3-5.2,17.5-8.4
			l0.8-0.5l0.9,0.2c0.5,0.1,1.9,0.2,3.1,0.2c3.3,0,4.9-0.3,7.7-1.5c1.5-0.6,2-1,2-1.3c0-0.1-0.3-0.4-0.6-0.8l-0.6-0.7l-0.8-0.2
			c-0.4-0.1-1.7-0.3-2.9-0.4l-2.2-0.2l0.7-0.6c1.6-1.4,6.3-6.2,7.2-7.4c1.1-1.4,3.8-5.4,4.3-6.3l0.2-0.5l-0.2-0.8l-2.6-2.1l-0.6,0.1
			l0,0.3l0,0.3l0.6,0.9c0.3,0.5,0.6,1,0.6,1.2c0,0.4-1,1.8-2.5,3.5c-1.8,2.1-9.2,9-12.3,11.6l-1.2,1l-1.8,0.6
			c-2,0.6-2.9,0.8-7.4,1.6c-3.7,0.6-5.7,0.9-6,0.8c-0.1,0-0.6-0.7-1-1.5s-0.9-1.7-1.1-2l-0.4-0.6l0.3-0.3c0.2-0.2,0.7-0.5,1.2-0.9
			s1-0.7,1-0.8l0.2-0.3l-0.2-0.3l-0.2-0.3l-1.5,0.1l-0.8,0.5c-0.5,0.3-1.5,0.9-2.3,1.3c-1.7,0.9-3.6,2.2-3.7,2.5
			c0,0.1,0,0.3,0.1,0.5l0.1,0.3l0.6,0c0.3,0,0.8-0.1,1-0.2c0.2-0.1,0.5-0.2,0.6-0.2s0.5,0.8,0.8,1.8s0.8,2,1,2.1l0.3,0.3l0.9,0
			c0.5,0,2.3-0.1,4-0.3c6.6-0.6,7.7-0.7,7.9-0.6c0.3,0.2-4,2.7-6.7,3.8c-1.1,0.5-2.3,1-2.8,1.2c-3.6,1.8-10,4.2-11.7,4.4
			c-0.4,0-1,0-1.4,0l-0.8-0.1l-2.2-2.3h-0.4c-0.4,0-0.9,0.4-0.9,0.8c0,0.4,1.5,2.4,2.1,2.9C623.3,849.9,624.5,849.9,628.6,848.9
			L628.6,848.9z M644.2,841.6c0-0.1,3.5-2.2,4-2.5c0.2-0.1,0.7-0.4,1-0.6l0.6-0.4l0.7,0.1l-1.3,0.8
			C646.8,840.5,644.2,841.8,644.2,841.6L644.2,841.6z M634.8,838c-0.3-0.2-1.4-3-1.3-3.2c0.1-0.2,1.5-0.8,1.6-0.7
			c0.1,0,0.6,0.9,1.1,1.9l1,1.8l-0.1,0.1c-0.1,0.1-0.6,0.2-1.1,0.2l-0.9,0.1L634.8,838z M655.1,837.3c0-0.1,0.1-0.3,0.3-0.5
			c0.2-0.2,0.4-0.4,0.4-0.5c0-0.2-0.4-0.6-0.8-0.8c-0.8-0.3,0.5-0.6,3.4-0.9l2-0.2l1.7,0.2c0.9,0.1,1.9,0.3,2.2,0.4l0.5,0.2l0,0.2
			l0,0.2l-1.3,0.5c-0.7,0.3-2,0.7-2.7,0.8l-1.4,0.3h-2.1C656.1,837.4,655.1,837.3,655.1,837.3L655.1,837.3z M656.9,833.3
			c0-0.1,1.1-1.2,2.4-2.3c1.3-1.2,3.4-3.1,4.6-4.2c3.4-3.2,3.1-2.4-0.5,1.3c-2.1,2.1-5.6,5.3-5.9,5.3c-0.1,0-0.3,0-0.4,0.1l-0.3,0.1
			L656.9,833.3z M628.6,846.5c3.3-1.1,7.3-2.8,7.1-3c-0.2-0.2-8.7,1.5-11.7,2.3l-1.2,0.3l0,0.2c0,0.1,0.3,0.4,0.6,0.6l0.5,0.4h2.1
			L628.6,846.5z M582.3,969.8c-5.5-0.6-9.3-3.8-10.7-8.5l-0.3-1.2l0-4.5l0.3-1.2c0.6-2.4,1.3-3.7,3-5.4c3.5-3.5,8.4-4.9,17.3-4.9
			h3.2l0.2-0.3l0.2-0.3l-0.3-3.5l-0.3-0.9c-0.6-1.8-1.7-2.9-3.5-3.7c-2.8-1.2-6.6-1.2-9.7,0c-1.2,0.5-3.4,1.8-3.9,2.3
			c-0.2,0.2-0.5,0.5-0.8,0.6l-0.5,0.3l-0.7-0.2l-1.4-1.9l-1.4-1.9v-0.8l0.6-0.7c0.3-0.4,1.2-1.1,1.8-1.5c2.9-2.1,6.7-3.4,10.5-3.7
			l1.5-0.1l1.6,0.2c2.3,0.3,3.8,0.7,5.6,1.6l1.6,0.8l2.8,2.8l0.7,1.3c0.7,1.5,1.2,3.2,1.4,5l0.2,1.2l0,7.7c0,8,0.2,14.1,0.5,17.4
			c0.1,1.1,0.1,2.2,0.1,2.4l-0.1,0.4l-0.6,0.2l-0.6,0.2l-4-0.1l-0.6-0.6l-0.2-1.6c-0.1-0.9-0.2-1.6-0.3-1.6s-0.6,0.5-1.2,1.1
			c-2.5,2.4-5.1,3.5-9.1,3.7C584.2,969.9,583,969.9,582.3,969.8L582.3,969.8z M588.1,963.2c2-0.6,3.9-1.8,5.1-3.4l0.8-1l0.5-1.2
			c0.5-1.3,0.9-3.3,1-5.8l0.1-1.6l-0.3-0.4l-7.3,0.2l-1.5,0.2c-3.1,0.5-5.4,1.5-6.9,2.9l-0.9,0.9l-0.9,1.8v3.4l0.4,0.9l0.4,0.9
			l0.7,0.7c0.8,0.7,1.9,1.4,3.2,1.7l0.8,0.2l4.1-0.1L588.1,963.2z M639.1,919.4c-1.9-0.3-3.2-1.7-3.5-3.8l-0.1-0.8l0.1-0.9
			c0.2-1.1,0.5-1.7,1.2-2.5c0.7-0.8,1.5-1.2,2.5-1.3l0.7-0.1l1.7,0.5l1.3,1.1l0.4,0.9l0.4,0.9v2.7l-0.3,0.7c-0.4,0.8-1.3,1.8-2,2.1
			C641,919.3,639.9,919.5,639.1,919.4L639.1,919.4z M603.4,899.2c-4.2-0.7-8.1-3.1-10.8-6.7c-0.9-1.2-2.4-4-2.9-5.5
			c-1.7-5.2-1.8-11.3-0.2-16.4c2.1-6.8,7.4-11.6,13.8-12.8l1.4-0.3l4.7,0.2l1.3,0.3c5.2,1.3,9.5,5.4,11.4,11
			c0.2,0.5,0.5,1.6,0.7,2.5l0.4,1.6l0.1,3.5l0.1,3.5l-0.7,0.7H595l-0.1,0.2c-0.1,0.4,0.5,3.2,1,4.5c0.3,0.7,0.8,1.8,1.3,2.4l0.8,1.2
			l2.5,2.4l1.1,0.5c0.6,0.3,1.6,0.7,2.1,0.8l1,0.3l3.8,0l1.2-0.3c2.6-0.7,5.3-2.5,6.7-4.4c0.4-0.5,0.9-1.2,1.1-1.4l0.4-0.5h0.9
			l3.6,3.5v0.9l-0.8,1.2c-2.7,4-6.3,6.3-11.4,7.2l-1.4,0.2l-2,0C605.5,899.4,604.1,899.3,603.4,899.2L603.4,899.2z M617,873.8
			c0-0.3-0.1-0.9-0.2-1.4c-0.6-2.2-1.8-4.3-3.5-5.8l-1-0.9l-2.8-1.4l-2.8-0.5l-1.6,0.2c-0.9,0.1-2,0.3-2.5,0.5
			c-2.5,0.8-5,3.2-6.4,6.2c-0.5,1-1.2,3-1.2,3.5v0.2h22L617,873.8L617,873.8z M644.5,899.2c-8.4-1.5-14.1-8.8-14.8-18.7l-0.1-2.1
			l0.1-2c0.2-2.3,0.5-3.9,1.2-6c2.2-6.9,7.6-11.7,14.2-12.7l1.2-0.2l4.5,0.2l1.2,0.3c4.6,1.2,8.4,4.4,10.6,8.9
			c1.5,3.1,2.2,6.4,2.2,11v2l-0.4,0.4l-0.4,0.4H636l0.1,1c0.4,4.2,2.8,8.1,6.2,10.1l1,0.6l2.5,0.7l3.8,0l1-0.3
			c3.2-0.8,5.8-2.6,7.5-5.2l0.7-1.1l1-0.1l1.7,1.6c1.7,1.6,2,1.9,2,2.4s-1.8,3-3,4.2c-2.4,2.4-5.5,4-9.3,4.6l-1.4,0.2l-2,0
			C646.6,899.4,645.1,899.3,644.5,899.2L644.5,899.2z M658.1,873.5c-0.1-1-0.6-2.7-1.2-3.8c-1.5-2.7-3.5-4.4-6.4-5.4l-1.2-0.4h-3.8
			l-1,0.3c-1.3,0.4-2.6,1-3.9,2.1c-1.3,1.1-2.2,2.3-3.2,4.1c-0.7,1.4-1.5,3.6-1.3,3.8c0,0,5,0.1,11,0l10.9,0L658.1,873.5z"/>
		<path class="st10" d="M600.2,1018.4c-25.4-1.4-48.1-9.4-68-23.9c-8.7-6.4-17.2-14.4-24-23c-14.5-18.1-23.6-39.7-26.4-62.7
			c-0.4-3.5-0.7-6.9-0.9-11.1l-0.2-4.1l0.2-4.1c0.7-16.4,3.9-30.7,10-44.9c8-18.8,20.9-35.7,36.9-48.6c18.9-15.1,42-24.5,65.7-26.7
			c1.4-0.1,3.4-0.3,4.4-0.4l1.8-0.2h12l1.8,0.2c1,0.1,3,0.3,4.4,0.4c23.7,2.2,46.8,11.6,65.7,26.7c7,5.6,14,12.6,19.6,19.6
			c13.5,16.9,22.4,37,25.8,58.2c0.8,5.2,1.3,9.7,1.5,15.6l0.2,4.1l-0.2,4.1c-0.3,5.9-0.7,10.3-1.5,15.6
			c-3.5,22.1-13.1,43.2-27.5,60.4c-5.2,6.2-11.5,12.4-17.8,17.4c-18.9,15.1-42.1,24.5-65.8,26.7c-1.5,0.1-3.4,0.3-4.2,0.4
			C611.8,1018.5,603,1018.6,600.2,1018.4L600.2,1018.4z M612.7,1013.1c12.5-0.8,23.8-3.2,35-7.4c20.5-7.7,38.1-20.5,51.9-37.8
			c14.2-17.9,23-39.5,25.3-62.2c0.6-5.7,0.7-13.6,0.4-19c-1.8-29.4-13.9-56.5-34.6-77.2c-4.6-4.6-7.8-7.5-12.7-11.2
			c-17.5-13.2-38.5-21.5-60.2-23.6c-5.9-0.6-13.6-0.7-18.9-0.4c-19.7,1.2-37.9,6.8-54.6,16.8c-12.5,7.5-23.6,17.3-32.8,29.1
			c-7.5,9.6-13.4,20.1-17.8,31.6c-4.2,11.1-6.6,22.7-7.4,34.9c-0.2,3.3-0.2,10.7,0,14.1c1,15.8,4.8,30.5,11.6,44.8
			c7.1,14.9,18.2,29.2,31.4,40.2c18.3,15.3,41.5,25,65.3,27.2C599.7,1013.2,608,1013.4,612.7,1013.1L612.7,1013.1z M517.6,970.9
			c-0.1-0.3,0.2-8.8,0.3-11.3c0.8-10.4,2.5-19.9,5.1-29.3c1-3.7,3.3-10.4,4.6-13.8c0.5-1.3,1-2.6,1-2.7s-0.2-1-0.5-2
			c-0.6-1.7-0.7-2.2-0.4-2.7l0.2-0.2l3-0.2l2.4-4.7c2.2-4.5,3.2-6.3,5.2-9.5l0.9-1.5l-0.4-0.2c-0.2-0.1-1.3-1.2-2.4-2.3l-2.1-2
			l-0.3,0.2v9.2l-0.5,0.5H528l-0.5-0.7v-16.8l-1.1-1.3c-6-7.7-10.6-15.5-13.5-23.5c-2.9-7.7-4.3-14.7-4.6-22.5l-0.1-3.1l18.9,0.1
			l0,1.2c0.1,2.1,0.4,6,0.5,6.3l0.1,0.4h32.3l0.5,0.7v5.2l-0.6,0.6h-25.5l-0.4,0.4v14.2l0.3,0.6c0.2,0.3,0.7,1.3,1.2,2.2l0.9,1.6
			l21.8,0.1l0.2,0.3l0.2,0.3v1.4c0,0.8,0.1,1.5,0.1,1.5s1.4-1.1,2.9-2.5s3.3-3.1,4-3.7l1.3-1.1v-0.5c0-0.3,0.1-0.6,0.2-0.8l0.2-0.3
			l1.6-0.2l1.5-1.2c12.1-9.8,26.1-17.5,40.7-22.5c10.2-3.5,19.4-5.3,31.5-6.5l2-0.2l15.7-0.1l0.5-0.4c0.3-0.2,0.1-0.1-0.3,0.4
			c-0.7,0.8-4.5,4.2-6.3,5.6l-0.8,0.7l-1.8,0.6c-1.9,0.6-3.3,0.9-7.5,1.7c-2.7,0.5-5,0.8-5.7,0.8h-0.3l-1.1-2
			c-0.6-1.1-1.1-2.1-1.1-2.2s0.6-0.5,1.2-0.9l1.2-0.8v-0.8l-0.4-0.3l-0.4-0.3l-0.6,0.1c-0.3,0-1.2,0.5-2,0.9
			c-0.8,0.5-1.8,1.1-2.4,1.4c-0.5,0.3-1.5,0.9-2.1,1.3l-1.1,0.8v0.8l0.8,0.4l0.7-0.2c0.4-0.1,0.8-0.2,0.9-0.2l0.2,0l0.7,1.8
			c0.4,1,0.8,1.9,0.9,2.1l0.2,0.3h1.1c0.6,0,1.7-0.1,2.4-0.2s2.8-0.3,4.5-0.4s3.5-0.3,3.9-0.3l0.7-0.1l-0.4,0.4
			c-0.8,0.7-4.2,2.6-6.3,3.5c-1.2,0.5-2.4,1.1-2.8,1.2s-0.9,0.4-1.1,0.5l-0.4,0.1l0.2-0.2l0.2-0.2l-0.1-0.1
			c-0.5-0.3-13.3,2.4-13.3,2.8c0,0.3,0.4,0.7,0.8,1c0.3,0.2,0.4,0.3,0.3,0.3c-0.1,0-0.7-0.5-1.3-1.1l-1-1.1h-1.1l-0.5,0.8l0.8,1.5
			l-0.8-0.7l-1.1,0.3c-2.3,0.7-7.5,2.6-10.2,3.7c-7,2.9-14.3,6.8-20.3,10.8l-1.6,1.1l-0.2,1.3l-0.7,0.4l-1.2-0.3l-2.2,1.6
			c-2.3,1.7-7.3,5.8-8,6.6l-0.4,0.5l-0.3,2.2v11.2v11.2l-0.5,0.7h-1.3c-0.7,0-1.4,0.1-1.5,0.1l-0.2,0.1l1.6,1.1
			c8.7,5.8,19.9,11.7,31.1,16.4c15.7,6.6,34.3,11.9,52.8,15.2c1.7,0.3,3.2,0.6,3.2,0.6s0.7-0.3,1.4-0.8c2.3-1.5,4.5-2.4,7.2-2.8
			l1.6-0.3l4.5,0.2l1.3,0.3c3.6,0.9,6.6,2.7,9.1,5.3l1.1,1.2l2.9,0.2c3,0.2,8.2,0.4,10.7,0.5c0.8,0,1.5,0.1,1.6,0.2l0.2,0.1V947
			l-0.2,0.1c-0.2,0.1-10-0.2-10.6-0.3l-0.3,0v0.3c0,1.9-0.2,5.3-0.4,6.4c-1.9,11.1-11,17.9-21.6,16.2c-5.5-0.9-10.1-4.2-12.8-9.1
			c-1.3-2.5-2.1-4.9-2.6-7.9l-0.2-1.6v-2v-2l0.2-1.6c0.1-0.9,0.3-1.8,0.3-2.1l0.1-0.6l-1.5-0.3c-0.8-0.2-2.8-0.5-4.3-0.8
			c-1.5-0.3-3-0.6-3.2-0.6l-0.4-0.1l-0.1,0.2c0,0.1-0.1,6.3-0.1,13.7v13.5l-0.7,0.5h-4.7l-0.3-0.2l-0.3-0.2l-0.2-28.8l-0.5-0.1
			c-0.3-0.1-2.5-0.6-5-1.2c-2.5-0.6-5.4-1.3-6.6-1.7l-2-0.6l-0.5,0.3c-0.3,0.2-0.9,0.7-1.4,1.2l-0.9,1l-0.6,1.2
			c-0.8,1.5-1.1,2.4-1.4,4.4l-0.2,1.4v22.7l-0.6,0.6h-4.8l-0.3-0.2l-0.3-0.2l-0.1-16.4c0-9-0.2-17.1-0.2-17.9l-0.1-1.5l-4.4-1.5
			c-12.3-4.3-21.5-8.2-32-13.7c-1.6-0.8-3-1.5-3.1-1.5c-0.2,0.1,0-0.6-10.1,29.2l-7.9,23.1l-0.3,0.3l-0.3,0.3h-2.7
			c-1.5,0-2.8,0-2.8-0.1c-0.1-0.1-0.3-0.3-0.4-0.6c-0.1-0.3-2.6-7.7-5.6-16.5c-2.9-8.8-5.4-16.1-5.5-16.1c-0.3-0.2-0.7,1.4-1.8,6.2
			c-1.8,8.3-2.8,16.2-3,24.8c-0.1,2.3-0.2,4.3-0.2,4.4l-0.1,0.2h-13.1L517.6,970.9L517.6,970.9z M673.1,967.8c5.3-0.8,9.8-4,12.3-9
			c0.7-1.4,1.5-3.9,1.8-5.7l0.3-1.6v-5l-0.3-1.6c-1.4-8.1-6.8-13.7-14.3-14.8l-1.3-0.2l-1.7,0.1c-5.9,0.3-10.3,2.9-13.3,7.9
			c-3.8,6.3-3.8,15.6,0,22c1.5,2.6,3.3,4.4,5.7,5.8c1.8,1,3.7,1.7,6.3,2.1C669.4,968,672.1,967.9,673.1,967.8L673.1,967.8z
			 M668,965.4c-2.7-0.5-4.9-1.7-7-3.7c-2.3-2.2-3.8-5.1-4.7-9l-0.2-0.9v-5.6l0.2-0.9c0.8-3.9,2.3-6.8,4.7-9c1.3-1.3,2.2-1.9,3.9-2.6
			c1.7-0.8,3-1.1,5.1-1.2l1.8-0.1l1.4,0.3c5.4,1,9.5,4.9,11.2,10.5c0.6,2,0.8,3.5,0.8,5.9s-0.2,3.8-0.8,5.9
			c-1.7,5.5-5.7,9.4-10.9,10.5l-1.4,0.3l-1.5,0C669.8,965.6,668.6,965.5,668,965.4L668,965.4z M673.8,963.3
			c5.3-1.5,8.8-6.1,9.5-12.6c0.2-1.7,0.1-3.8-0.2-4.2l-0.1-0.2l-3.4-0.3c-5.9-0.5-12-1.2-17.7-2l-3-0.4l-0.1,0.1
			c-0.3,0.3-0.6,2.4-0.7,4.2l-0.1,1.7l0.2,1.4c0.5,4,1.9,7,4.3,9.2c1.8,1.7,3.7,2.7,6,3.1l1.1,0.2l1.7-0.1
			C672.1,963.6,673.3,963.5,673.8,963.3L673.8,963.3z M561.5,938.9c5.3-15.4,9.5-28.1,9.4-28.2c-0.1-0.1-0.7-0.1-1.4-0.1l-1.3,0
			l-16.9,50.7l-0.3,0.2c-0.4,0.3-1,0.2-1.3-0.1l-0.3-0.3l-1.3-3.8c-0.7-2.1-4.4-13.4-8.3-25.2s-7.1-21.5-7.2-21.5s-0.8-0.1-1.5-0.1
			l-1.4,0l0,0.2c0,0.2,18.4,55.2,18.6,55.8l0.2,0.4l3.3-0.1L561.5,938.9z M615.6,955.5l0.1-11.5l0.3-1.1c0.4-1.7,0.7-2.6,1.5-4.1
			l0.7-1.4l2.7-2.7l1.3-0.7c1.6-0.8,2.8-1.1,4.9-1.2l1.5-0.1l0.1-0.7c0-0.4,0.1-1,0.2-1.2l0.1-0.5l-0.3-0.2c-0.8-0.5-3.8,0-5.5,0.8
			l-1.1,0.5l-1,0.9c-1,1-2.4,2.6-3.2,4c-0.3,0.5-0.7,1-0.8,1.1c-0.4,0.2-1,0-1.3-0.4l-0.3-0.4l-0.1-2.8l-0.1-2.8l-2.3-0.1l0.1,2.2
			c0,1.2,0.1,9.3,0.2,17.8s0.1,15.7,0.2,15.8l0.1,0.2l2.1-0.1L615.6,955.5z M640.8,949v-18h-2.2l0,17.8c0,9.8,0,17.9,0,18l0.1,0.2
			l2.1-0.1V949z M558,935.1c4.1-12.3,7.4-22.5,7.4-22.6c0-0.2-0.1-0.3-0.2-0.3c-0.5,0-9.3-5.8-13.3-8.7c-1.1-0.8-2-1.5-2.1-1.5
			c-0.1,0-1.5,2.3-2.6,4.5c-2.7,5-5.3,10.6-7.2,15.6l-0.8,2.2l5.4,16.5c3,9.1,5.5,16.6,5.6,16.7c0.1,0.1,0.2,0.2,0.3,0.1
			C550.6,957.5,554,947.4,558,935.1L558,935.1z M532.2,882.9l0.1-13.5l0.3-0.3l0.3-0.3l23.9-0.1l0-1.4l0-1.4h-2.2
			c-1.2,0-6.4,0-11.6,0l-9.5,0l-0.5-0.2c-0.3-0.1-0.6-0.3-0.7-0.4l-0.2-0.3l0-10.6v-10.6l0.7-0.8l25.8-0.1v-2.7h-29.2l0,27.9
			c0,15.3,0,28,0,28.1l0.1,0.2l2.6-0.1L532.2,882.9z M567.4,896.2c0.1-0.3,0.1-16.2,0-16.5c0-0.1-0.2-0.2-0.2-0.2
			c-0.3,0-8.8,9.8-8.8,10.2c0,0.1,0.2,0.3,0.5,0.6c0.3,0.2,1.3,1,2.3,1.8c2.7,2.2,5.7,4.4,5.9,4.4
			C567.2,896.4,567.4,896.3,567.4,896.2L567.4,896.2z M571.7,884.9c0-6.3,0.1-11.6,0.2-11.8s0.2-0.9,0.4-1.6
			c1.4-5.5,5.7-9.1,11.1-9.1h1.2l0.1-0.9c0.1-0.5,0.1-1.1,0.1-1.4l0-0.5l-0.7-0.1c-0.9-0.1-2.9,0.1-3.9,0.5
			c-2.3,0.8-4.6,2.9-6.2,5.7c-0.3,0.5-0.6,1-0.8,1.1l-0.3,0.3l-0.9-0.1l-0.6-0.8l-0.1-2.8l-0.1-2.8l-2.3-0.1l0.1,2.2
			c0,1.2,0.1,9.3,0.2,18l0.1,15.8l2.2-0.1L571.7,884.9z M549.5,878.5c1.4-1.7,4.5-5.5,5.7-6.6l0.8-0.9l-0.2-0.3h-14.6l-0.1,0.1
			c-0.1,0.1,1.8,2.7,3.2,4.4c1.8,2.2,4,4.7,4.1,4.7C548.3,879.9,548.9,879.2,549.5,878.5L549.5,878.5z M581.8,969.7
			c-5.4-0.8-9.1-4.1-10.2-9.1l-0.2-1.2v-1.8v-1.8l0.3-1.4c0.9-4.1,3.7-7,8.3-8.7c2.8-1,5.7-1.4,11.7-1.6l3.6-0.1l0.1-2.7l-0.2-1.1
			c-0.1-0.6-0.4-1.5-0.6-2l-0.4-0.8l-0.8-0.7c-0.9-0.8-2.3-1.6-3.8-2l-1-0.3l-4.2,0l-1.2,0.3c-0.7,0.2-1.9,0.7-2.7,1l-1.4,0.7
			l-2.5,2l-0.9-0.1l-1.5-1.9c-0.8-1-1.5-2-1.5-2.2c0-0.4,1.1-1.5,2.4-2.5c2.3-1.7,5.4-3,8.7-3.5l1.5-0.2l2.3,0.1l2.3,0.1l1.5,0.4
			c2.9,0.7,5.5,2.4,7,4.2c1.2,1.6,2.1,3.9,2.5,6.4l0.2,1.1l0.1,11.6l0.1,11.6l0.2,2.2c0.3,2.3,0.2,2.6-0.2,2.9l-0.3,0.2h-4.5
			l-0.3-0.3l-0.3-0.3l-0.2-1.6c-0.1-0.9-0.2-1.6-0.2-1.7c-0.1-0.2-0.5,0.1-1.1,0.8c-1.8,2.1-4.2,3.3-7.2,3.8l-1.3,0.2l-1.6,0
			C583.5,969.8,582.3,969.7,581.8,969.7L581.8,969.7z M588.2,967.5c1.6-0.4,3.2-1.3,4.4-2.4l1-0.9l1-1.6c0.6-0.9,1.2-1.7,1.3-1.8
			l0.3-0.2l0.4,0.1l0.4,0.1l0.4,0.8l0.1,2.2c0,1.2,0.2,2.4,0.2,2.6l0.2,0.4l1.8-0.1l0-0.5c0-0.3-0.1-1.9-0.2-3.8
			c-0.1-1.8-0.2-7.8-0.3-13.3l-0.1-10.1l-0.3-1.3c-0.7-2.4-1.7-4.2-3.3-5.4c-1.2-0.9-2.9-1.7-4.5-2.1l-1.3-0.3l-4.1-0.2l-1.5,0.3
			c-1.9,0.3-4.4,1.2-5.9,2c-1.2,0.7-3,2-3,2.2c0,0.1,0.3,0.5,0.6,0.9l0.6,0.8l1.5-1c1.6-1.1,3.2-1.8,5.1-2.3l1.2-0.3l2.3,0l2.3,0
			l1,0.2c1.4,0.3,3,1,4.2,1.8c1.7,1.2,2.8,3,3.2,5.3l0.2,1.2v4.3l-0.6,0.6h-2.6c-3.5,0-7.8,0.3-9.9,0.6c-6.1,1-9.9,4-10.8,8.5
			c-0.3,1.5-0.3,3.7,0,5.2l0.2,1.2l1.1,2.3l2.2,2.2l1.3,0.6c1.1,0.5,2.1,0.8,4,1.2c0.2,0,1.3,0,2.4,0l2,0L588.2,967.5z M582.3,965.4
			c-0.6-0.1-1.6-0.5-2.3-0.9l-1.3-0.6l-0.9-0.9c-1.5-1.5-2.3-3.4-2.3-5.5c0-1.4,0.3-2.7,1-3.9l0.5-0.9l2.1-2l1.2-0.7
			c3.1-1.6,6.8-2.2,13.5-2.2h2.6l0.8,0.7v4.9l-0.3,1.8c-0.3,2-0.7,3.2-1.4,4.5l-0.5,1l-2.8,2.8l-1.5,0.7c-0.8,0.4-1.9,0.8-2.5,1
			l-1,0.3l-3.9,0.1L582.3,965.4L582.3,965.4z M587.9,963.3c0.5-0.1,1.5-0.5,2.1-0.8l1.2-0.5l1.2-1.2l1.2-1.2l1.2-2.3l0.6-3l0.1-2.2
			l0.1-2.2l-0.4-0.1c-0.7-0.2-6.2,0.1-8.3,0.3l-1.8,0.2l-1.6,0.5c-1.9,0.6-3.2,1.4-4.2,2.4l-0.7,0.8l-0.4,0.9l-0.4,0.9v3.1l0.5,1
			c0.8,1.8,2.5,3,4.6,3.5l1,0.2l1.6-0.1C586.2,963.6,587.4,963.5,587.9,963.3L587.9,963.3z M638.7,919.2c-1.2-0.4-2.1-1.2-2.7-2.4
			l-0.4-0.8l0-2.5l0.4-0.8c0.5-0.9,1.3-1.8,2.1-2.2l0.6-0.3h1.9l1.6,0.7l0.6,0.7c0.3,0.4,0.7,1,0.8,1.5l0.3,0.8l-0.1,2.4l-0.5,0.8
			l-0.5,0.8l-0.7,0.5C641.1,919.3,639.8,919.6,638.7,919.2L638.7,919.2z M641,917.1c0.2-0.1,0.5-0.5,0.7-0.9l0.3-0.7V914l-0.3-0.5
			c-0.2-0.3-0.5-0.7-0.8-0.9l-0.5-0.3h-0.6c-0.3,0-0.8,0.1-1.1,0.3l-0.5,0.3l-0.3,0.6c-0.8,1.5-0.3,3.4,1,4l0.5,0.2l0.6-0.1
			C640.3,917.4,640.8,917.2,641,917.1L641,917.1z M604.8,899.2c-4.3-0.4-7.8-2.1-10.7-5.1c-2.6-2.7-4.2-6-5.1-10.2l-0.3-1.6
			l-0.1-2.8l-0.1-2.8l0.2-1.5c0.6-4.7,2.4-8.9,5.3-12c3-3.3,6.5-5,10.7-5.4l1.7-0.2l1.7,0.2c3,0.3,5.1,1,7.4,2.6
			c3.9,2.6,6.6,7,7.5,12.3l0.3,1.6l0,5.8l-0.2,0.3l-0.2,0.3H595l-0.3,0.5l0.2,1.2c0.6,3.4,1.9,6,4.2,8.1c1.3,1.2,2.5,2,3.9,2.4
			l1.1,0.3l3.6,0.2l1.1-0.2c3.3-0.6,6.4-2.6,8.2-5.4c0.4-0.6,0.8-1.1,1-1.1l0.3-0.1l0.5,0.3c0.2,0.2,1.2,1,2,1.8l1.6,1.5v0.3
			c0,0.5-1.8,3-2.9,4.2c-3,3-6.9,4.6-11.9,4.8C606.7,899.3,605.5,899.3,604.8,899.2L604.8,899.2z M608.9,897.3
			c2.4-0.2,5.5-1.3,7.4-2.7c1.1-0.8,3-2.7,3.4-3.6l0.3-0.6l-0.7-0.7c-0.4-0.4-0.8-0.7-0.9-0.7s-0.5,0.4-0.8,0.8
			c-1.9,2.3-5,4.2-8.1,4.9l-1.1,0.2h-3.5l-2.4-0.5l-1.3-0.6c-3.3-1.6-6.1-4.8-7.4-8.5c-0.5-1.3-1-4.1-1-5.2v-0.9l0.8-0.7h27.8
			l0.1-0.3c0-0.1,0-1.4-0.1-2.9l-0.2-2.6l-0.4-1.5c-1.2-4.6-3.7-8-7.2-10.1c-2.2-1.2-4.2-1.8-7.2-1.8h-1.9l-1.2,0.3
			c-4.6,1-8.5,4.1-10.7,8.6c-0.9,1.8-1.3,3-1.7,5l-0.3,1.4l-0.1,2.6l-0.1,2.6l0.2,1.6c0.4,3.1,1.3,6,2.7,8.4l0.8,1.4l1.2,1.3
			c1.5,1.6,2.7,2.5,4.5,3.3c1.7,0.8,3.3,1.2,5.2,1.4C606.4,897.5,606.7,897.5,608.9,897.3L608.9,897.3z M593.1,875.9l-0.4-0.3l0.1-1
			c0-0.5,0.3-1.7,0.7-2.7l0.6-1.7l0.7-1.3c2.2-3.8,5.3-6.3,8.8-7c0.6-0.1,1.8-0.2,2.7-0.2l1.7,0l1.2,0.3c3.6,0.9,6.7,3.6,8.5,7.1
			c0.9,1.8,1.2,2.9,1.3,4.8l0.1,1.5l-0.7,0.7h-24.9L593.1,875.9z M617.1,874.2c0-0.1,0-0.8-0.2-1.4l-0.2-1.2l-0.7-1.4
			c-1.6-3.2-4.2-5.4-7.3-6.1l-1.1-0.3l-3.8,0.1l-2.1,0.7l-1.2,0.8c-1.5,1-2.9,2.5-3.9,4.2c-0.8,1.3-1.9,4.2-1.8,4.6l0.1,0.2h22
			L617.1,874.2z M645.9,899.2c-8.7-0.9-14.8-7.6-16-17.5c-1.2-10.1,3-19,10.6-22.6c1.8-0.8,3.3-1.3,5.5-1.5l1.7-0.2l1.7,0.2
			c7.5,0.8,12.9,6,14.7,14.1l0.3,1.4l0.1,3.3l0.1,3.3l-0.3,0.3l-0.3,0.3h-13.8c-7.6,0-13.9,0-14,0.1l-0.2,0.1v0.4
			c0,0.2,0.2,1.2,0.4,2.1l0.4,1.7l0.7,1.4c1.7,3.5,4.5,5.9,7.7,6.6l1.1,0.2l3.3,0l1.2-0.3c3.1-0.8,5.9-2.7,7.5-5.2
			c0.3-0.5,0.7-1,0.9-1l0.4-0.2l0.2,0.1c0.1,0.1,1,0.9,2,1.8l1.7,1.6v0.8l-0.9,1.3c-1.1,1.6-2.7,3.3-4.1,4.2
			C655,898.5,650.3,899.7,645.9,899.2L645.9,899.2z M650.8,897.2c4.2-0.6,7.9-2.7,9.9-5.8l0.6-0.9l-0.7-0.7
			c-0.4-0.4-0.8-0.7-0.9-0.7s-0.5,0.4-0.8,0.8c-1.5,1.9-4.2,3.7-7,4.6l-1.3,0.4l-5.3,0l-1-0.3c-3.9-1-7.4-4.4-9-8.7
			c-0.5-1.3-1-3.7-1.2-5.4l-0.1-1.1l0.8-0.8h28l-0.1-2.6l-0.1-2.6l-0.3-1.3c-1.2-5.3-4-9.1-8.1-11.2c-1.4-0.7-3-1.2-5-1.3l-1.5-0.2
			l-1.5,0.2c-4.7,0.5-8.5,2.9-11.3,7c-1.9,2.9-3,6.4-3.2,10.6l-0.1,1.8l0.2,1.8c0.6,5.8,2.6,10.1,6,13
			C641.3,896.8,645.5,897.9,650.8,897.2L650.8,897.2z M634.2,875.9l-0.4-0.4l0.1-0.7c0.2-1.2,0.8-3.4,1.4-4.6c2-4.2,5.5-7.2,9.1-8
			l1.2-0.2l3.4,0l1.2,0.3c3.7,1,6.7,3.5,8.5,7c0.7,1.3,1.2,3.4,1.4,5l0.1,1.3l-0.8,0.8h-24.9L634.2,875.9L634.2,875.9z M658.2,873.8
			c0.1-0.8-0.4-2.3-1.2-4l-0.7-1.5l-2.8-2.8l-1.3-0.7c-0.7-0.4-1.8-0.8-2.3-0.9l-1-0.2l-3.9,0.1l-1,0.3c-2.7,1-5.5,3.6-6.9,6.8
			c-0.6,1.3-1,2.8-0.9,3.1l0.1,0.2l22-0.1L658.2,873.8z M695.3,850.2c-10.7-4.2-22.2-6.9-33.8-7.8c-4-0.3-10.4-0.4-13.2-0.3
			c-1.3,0.1-2.3,0.1-2.3,0.1s0.9-0.5,1.9-1.1s2.5-1.5,3.3-2l1.4-0.9l1.5,0.2c4.5,0.4,7.5,0,11.1-1.7l1.3-0.6v-0.9l-1.4-1.3l-1.7-0.5
			l-1.8-0.1c-1,0-1.8-0.2-1.8-0.2s0.3-0.4,0.7-0.7c0.4-0.3,1.9-1.7,3.3-3.2c1.5-1.4,2.3-2.2,2-1.8s-0.7,0.8-0.7,0.9
			c0,0.2,0.2,0.2,3.4,0.6c10.9,1.3,23.2,4.5,33,8.6l1.2,0.5l0.1,0.7l-2.3,6.1c-2.1,5.5-2.4,6.4-2.7,6.4
			C697.9,851.3,696.7,850.8,695.3,850.2L695.3,850.2z M621.5,848.8l-0.6-0.7L621.5,848.8c0.7,0.5,0.8,0.7,0.7,0.7
			C622.1,849.4,621.8,849.1,621.5,848.8z M632,845.5c0.1-0.1,0.3-0.2,0.4-0.2s0,0.1-0.1,0.2s-0.3,0.2-0.4,0.2
			C631.8,845.7,631.9,845.6,632,845.5z M633.1,845c0.1-0.1,0.3-0.2,0.4-0.2s0,0.1-0.1,0.2s-0.3,0.2-0.4,0.2
			C632.9,845.2,633,845.1,633.1,845z M634.5,844.4c0.1-0.1,0.3-0.2,0.4-0.2s0,0.1-0.1,0.2s-0.3,0.2-0.4,0.2
			C634.3,844.6,634.4,844.5,634.5,844.4z M642.5,843.9c0.2-0.1,0.4-0.2,0.5-0.2C643.2,843.6,643.1,843.7,642.5,843.9l-0.3,0.2
			L642.5,843.9z M644.2,843.1c0,0,0.1-0.1,0.2-0.2l0.2-0.1l-0.1,0.2C644.5,843.2,644.2,843.2,644.2,843.1z M646.4,840.3
			c0.3-0.2,1-0.7,1.6-1s1.2-0.7,1.4-0.8c0.2-0.1,0.3-0.2,0.5-0.2c0.3,0.1-3.5,2.3-3.9,2.3C645.9,840.7,646.1,840.5,646.4,840.3
			L646.4,840.3z M634.7,837.8c-0.2-0.2-1.1-2.7-1.1-2.9c0-0.1,0.3-0.3,0.7-0.5l0.7-0.3l0.1,0.2c0.2,0.2,1.9,3.3,1.9,3.5
			C637,838,635,838.1,634.7,837.8L634.7,837.8z M655.8,837.3c-0.6-0.1-0.6-0.2-0.3-0.5c0.1-0.1,0.2-0.4,0.2-0.6v-0.4l-0.8-0.5
			l0.1-0.1c0.2-0.2,3.3-0.6,5.1-0.6c0.9,0,2.3,0.1,3,0.2l1.2,0.2l0.5,0.5l-0.9,0.4C661.3,837.1,658.3,837.6,655.8,837.3L655.8,837.3
			z M657,833.2c0-0.1,0.8-0.8,1.8-1.7c0.9-0.8,2.7-2.5,4-3.7c1.2-1.2,2.4-2.2,2.6-2.3l0.3-0.2l-0.5,0.6c-1.4,1.8-7.4,7.4-8,7.4
			C657.1,833.3,657,833.3,657,833.2L657,833.2z M661.8,826.9c0,0,0.5-0.6,1.2-1.2l1.2-1.2l-1.2,1.2C662,826.8,661.8,827,661.8,826.9
			z M666.8,826.1c0.2-0.2,0.3-0.3,0.4-0.3s0,0.1-0.2,0.3c-0.2,0.2-0.3,0.3-0.4,0.3C666.5,826.5,666.6,826.3,666.8,826.1z
			 M667.5,825.2c0.2-0.2,0.3-0.3,0.4-0.3s0,0.1-0.2,0.3c-0.2,0.2-0.3,0.3-0.4,0.3C667.3,825.5,667.4,825.4,667.5,825.2z
			 M667.9,824.7c0,0,0.1-0.2,0.3-0.3l0.3-0.2l-0.2,0.3C668,824.7,667.9,824.8,667.9,824.7z M668.4,824c0,0,0.1-0.2,0.3-0.3l0.3-0.2
			l-0.2,0.3C668.5,824.1,668.4,824.2,668.4,824z M665.7,823.1c0.2-0.2,0.4-0.4,0.4-0.4s-0.1,0.2-0.3,0.4c-0.2,0.2-0.4,0.4-0.4,0.4
			C665.4,823.5,665.5,823.3,665.7,823.1z M666.5,822.2c0.2-0.2,0.4-0.4,0.4-0.4s-0.1,0.2-0.3,0.4c-0.2,0.2-0.4,0.4-0.4,0.4
			S666.3,822.4,666.5,822.2z M667.5,821.1c0.2-0.2,0.4-0.4,0.4-0.4s-0.1,0.2-0.3,0.4c-0.2,0.2-0.4,0.4-0.4,0.4
			S667.3,821.3,667.5,821.1z M670.6,820.8c0.1-0.2,0.2-0.3,0.2-0.3s0,0.1-0.1,0.3s-0.2,0.3-0.2,0.3
			C670.5,821.1,670.5,821,670.6,820.8z M668.5,819.8c0.2-0.3,0.5-0.6,0.5-0.6c0.1,0-0.6,0.9-0.8,1
			C668.1,820.4,668.2,820.2,668.5,819.8L668.5,819.8z M671.6,819.2c0.1-0.2,0.2-0.2,0.2-0.2S671.8,819.2,671.6,819.2l-0.1,0.3
			L671.6,819.2z M669.1,817.9l-0.3-0.6l0.3,0.4c0.2,0.2,0.3,0.5,0.3,0.6C669.5,818.6,669.4,818.5,669.1,817.9z M671.5,817.2
			l-0.5-0.6L671.5,817.2c0.4,0.2,0.6,0.5,0.5,0.5C671.9,817.8,671.7,817.6,671.5,817.2z M668.5,817l-0.2-0.3L668.5,817
			c0.3,0.1,0.4,0.3,0.3,0.3C668.8,817.2,668.7,817.1,668.5,817z M670.5,816.4l-0.3-0.3L670.5,816.4c0.4,0.2,0.5,0.4,0.3,0.4
			C670.8,816.8,670.7,816.6,670.5,816.4z M668.1,816l0-0.4l0.8-0.5l-0.3,0.3C668.4,815.6,668.2,815.9,668.1,816l0,0.4L668.1,816z
			 M669.7,815.8l-0.3-0.3L669.7,815.8c0.4,0.2,0.5,0.4,0.3,0.4C670,816.1,669.9,816,669.7,815.8z"/>
		<path class="st11" d="M600.8,1018.4c-2.6-0.1-7-0.5-10.4-0.9c-44-5.4-82.1-34-99.5-75c-5.1-11.9-8.4-25-9.4-37.5
			c-0.1-1.6-0.3-3.4-0.4-4c-0.1-0.6-0.2-2.8-0.2-4.9l-0.1-3.8l0.2-3c0.4-7.5,1.2-14.3,2.5-20.7c8.7-42.8,39.4-78,80.6-92.7
			c11.8-4.2,24.1-6.5,38-7.2l3.6-0.2l3.7,0.2c17.4,0.8,32.3,4.2,47.1,10.8c28,12.4,51,35.3,63.4,63.4c6.6,14.8,10,29.7,10.8,47
			l0.2,3.6l-0.2,3.6c-0.8,17.3-4.2,32.2-10.7,47c-17.1,38.6-53.2,66.3-94.7,72.7C616.4,1018.2,608,1018.8,600.8,1018.4L600.8,1018.4
			z M613.7,1013.1c12.2-0.8,24.4-3.5,35.8-8c3.7-1.5,6.2-2.6,10.3-4.7c16.7-8.4,30.9-20.5,42.4-35.9c6-8.1,11.3-17.6,15-27.2
			c3.9-9.8,6.4-20.1,7.5-30.6c0.5-4.8,0.7-7.7,0.7-13.1c0-11.5-1.4-21.7-4.4-32.5c-2.1-7.5-4.8-14.2-8.4-21.5
			c-2.2-4.4-4.2-7.8-6.8-11.7c-7-10.5-15.8-20.1-25.5-27.9c-9.2-7.4-19.8-13.5-30.8-17.8c-11.5-4.5-23.2-7.1-35.9-8
			c-3.4-0.2-12.3-0.2-15.6,0c-10.9,0.8-20.6,2.7-30.4,6c-5.8,2-10.1,3.8-15.8,6.7c-11.2,5.7-20.7,12.5-29.7,21.3
			c-5,4.9-8.2,8.6-12.2,14c-6.4,8.5-11.6,17.9-15.5,27.8c-4.5,11.5-7.1,23.1-8,35.9c-0.2,3.3-0.2,12.3,0,15.6
			c0.8,10.9,2.7,20.6,6,30.4c2,5.8,3.8,10.1,6.7,15.8c5.6,11.1,12.6,20.8,21.5,29.8c4.8,4.9,8.6,8.2,13.7,12
			c8.4,6.3,18.2,11.8,28,15.6c12.8,5,25.7,7.7,40.1,8.2C604.2,1013.4,611,1013.3,613.7,1013.1L613.7,1013.1z M517.6,970.9
			c-0.1-0.3,0.2-8.8,0.3-11.3c1-13,3.3-24.5,7.3-36.3c1.3-3.8,3-8.5,3.4-9.1l0.2-0.3l-0.7-1.9c-0.7-2.1-0.8-2.5-0.5-2.8
			c0.1-0.1,0.9-0.2,1.7-0.2l1.5,0l0.1-0.2c0-0.1,1-2,2.1-4.2c2-4,3.6-6.9,5.4-10l0.9-1.5l-0.4-0.2c-0.2-0.1-1.3-1.2-2.4-2.3
			c-1.1-1.1-2.1-2-2.2-2h-0.2v9.2l-0.5,0.7h-5.4l-0.5-0.4l0-8.6l0-8.6l-0.5-0.5c-0.2-0.3-1.2-1.4-2-2.6
			c-10.6-14-16.2-28.8-16.8-44.2l-0.1-3.1l18.9,0.1l0,1.2c0.1,2.1,0.4,6,0.5,6.3l0.1,0.4h32l0.3,0.2l0.3,0.2v5.7l-0.5,0.4l-25.8,0.2
			l0,7.3l0,7.3l0.9,1.6c0.5,0.9,1,1.8,1.2,2.1c0.2,0.3,0.2,0.5,0.2,0.5s0,0.1,0.1,0.2l0.2,0.2h21.6l0.5,0.7v2.9h0.1
			c0.1,0,1.2-1,2.5-2.3c3.1-3,5.2-4.9,5.4-4.9c0.2,0,0.3-0.4,0.3-1V859l0.3-0.2c0.2-0.1,0.6-0.2,0.9-0.2h0.6l0.6-0.5
			c1-0.9,5-4,7.4-5.7c18.1-12.9,39.4-21.2,61-23.6c5-0.6,6.6-0.7,12.7-0.7c5.7-0.1,9.7,0,9.6,0.2c-0.1,0.2-2.5,2.4-4.6,4.2l-1.9,1.6
			l-2,0.6c-1.9,0.6-2.8,0.8-7.3,1.6c-2.6,0.5-5.8,0.9-6,0.8c-0.1,0-0.5-0.7-0.9-1.4c-0.4-0.8-0.9-1.7-1.1-2l-0.4-0.7l1-0.7
			c1.8-1.2,2-1.5,1.4-2l-0.3-0.3h-1.3l-1.1,0.7c-0.6,0.4-1.7,1-2.5,1.4c-1.6,0.9-3,1.8-3.4,2.2l-0.3,0.3l0.5,0.8h0.6
			c0.3,0,0.8-0.1,1-0.2s0.5-0.2,0.6-0.1c0.1,0.1,0.3,0.7,0.5,1.4s0.6,1.6,0.8,2l0.3,0.7l1.1,0.3l2.6-0.2c2.9-0.3,8.2-0.7,8.7-0.7
			h0.4l-0.5,0.4c-1.5,1-4.2,2.4-6.2,3.3c-1.3,0.5-2.5,1.1-2.8,1.3l-0.5,0.3l-0.7-0.3l-2.7,0.5c-3,0.5-7.7,1.5-9.4,2l-1,0.3l0,0.2
			c0,0.1-0.2,0-0.4-0.3c-0.8-0.9-1.5-1.1-2.1-0.5l-0.3,0.3l0.1,0.5l0.1,0.5l-1.2,0.3c-2.2,0.7-7.5,2.5-10.3,3.7
			c-7,2.9-13.3,6.2-20.5,10.9l-1.4,0.9l-0.1,0.5c-0.1,0.3-0.2,0.7-0.3,0.8l-0.2,0.3l-1.6-0.2l-2.2,1.7c-3.7,2.8-8,6.5-8.4,7.1
			c-0.1,0.2-0.2,1.1-0.3,2.2l-0.2,1.8v10.5V898l-0.3,0.2c-0.2,0.1-0.9,0.2-1.5,0.2h-1.2l-0.1,0.2c-0.1,0.2,1.8,1.5,5.1,3.5
			c22,13.8,49.9,24,80.3,29.3c1.7,0.3,3.2,0.6,3.3,0.6l0.3,0.1l1.1-0.7c2.5-1.7,5.4-2.7,8.7-3l1.8-0.2l1.8,0.2
			c4.6,0.5,8,2.1,11.2,5.4l1.4,1.4l1.6,0.1c2.8,0.2,10.3,0.6,11.9,0.6c0.9,0,1.7,0.1,1.8,0.2l0.2,0.1v10.9l-0.2,0.1
			c-0.2,0.1-8-0.2-10.5-0.3l-0.4,0l-0.1,3l-0.1,3l-0.3,1.5c-0.9,4.1-2.5,7.3-5.1,10c-3.2,3.3-6.6,5-11.2,5.5l-1.8,0.2l-1.8-0.2
			c-9.5-0.9-16-8.1-16.9-18.6l-0.2-2.1l0.2-2.2c0.1-1.2,0.2-2.4,0.3-2.7c0.1-0.3,0.2-0.7,0.2-1v-0.5l-1.5-0.3
			c-0.8-0.2-2.8-0.5-4.4-0.8c-1.6-0.3-3.1-0.5-3.3-0.6l-0.4,0l-0.1,13.7l-0.1,13.7l-0.2,0.2l-0.2,0.2h-4.9l-0.3-0.2l-0.3-0.2v-14.1
			c0-7.7,0-14.2-0.1-14.4l-0.1-0.3l-1-0.2c-0.5-0.1-3.5-0.8-6.5-1.6s-5.8-1.5-6.2-1.6l-0.7-0.2l-0.8,0.6c-1.6,1.2-3,3.5-3.6,5.9
			c-0.2,0.7-0.4,2.1-0.5,3l-0.2,1.8V958v10.5l-0.3,0.2l-0.3,0.2h-5l-0.4-0.6l-0.1-17.1c0-9.4-0.1-17.4-0.2-17.8l-0.1-0.7l-4.4-1.5
			c-12.4-4.3-21.7-8.3-32.1-13.7c-1.7-0.9-3.1-1.5-3.2-1.5c-0.1,0.1-4.1,11.9-9,26.3c-4.9,14.4-9,26.2-9.1,26.4l-0.2,0.2h-5.4
			l-0.2-0.2c-0.1-0.1-2.7-7.6-5.7-16.6c-3-9-5.5-16.5-5.6-16.5l-0.1-0.1l-0.2,0.4c-0.6,1.5-2,7.9-2.8,12.5
			c-1.1,6.4-1.6,11.7-1.8,18.3c-0.1,2.3-0.2,4.3-0.2,4.4l-0.1,0.2h-13.1L517.6,970.9L517.6,970.9z M673.5,967.9
			c5.2-0.8,9.6-4.1,12-9c0.8-1.6,1.6-4,1.9-5.9l0.3-1.6v-5l-0.3-1.6c-0.5-2.8-1.7-5.8-3.1-8c-0.8-1.2-2.6-3.1-3.8-4
			c-2.7-2-6.2-3.1-9.8-3.1c-8.9,0-15.5,6.2-16.9,15.8c-1,6.8,1,13.7,5.2,17.8c3.1,3,6.9,4.6,11.5,4.7
			C671.4,968.1,672.7,968,673.5,967.9L673.5,967.9z M668.3,965.3c-2.3-0.4-4.9-1.6-6.7-3.2c-2.4-2.1-4.3-5.5-5-9.3l-0.2-1.1v-5.3
			l0.2-1.1c0.7-3.6,2.2-6.5,4.5-8.8l1.2-1.2l1.3-0.8c1.5-0.9,3.4-1.6,5-1.8l1.2-0.2l1.6,0.1l1.6,0.1l1.2,0.3c2.5,0.7,5,2.3,6.8,4.3
			c1.8,2.1,2.9,4.5,3.6,7.6l0.3,1.6v5l-0.3,1.6c-0.7,3.1-1.8,5.5-3.6,7.5c-1.8,2.1-4.3,3.7-6.8,4.3l-1.2,0.3l-2,0
			C670,965.4,668.7,965.4,668.3,965.3L668.3,965.3z M674.5,963.2c2.5-0.9,4.8-2.7,6.3-4.9c1.8-2.6,2.7-6.3,2.5-10l-0.1-1.6l-0.4-0.4
			l-3.4-0.3c-6-0.5-12.7-1.3-17.9-2l-2.9-0.4l-0.1,0.4c-0.1,0.2-0.2,1-0.4,1.8l-0.2,1.4l0.2,4.8l0.4,1.5c1.4,5.2,4.8,8.8,9.5,9.9
			l0.9,0.2l4.2-0.1L674.5,963.2z M552,967c0.3-0.3,19.3-56.2,19.2-56.4c-0.1-0.2-2.7-0.2-3,0c-0.1,0.1-4,11.5-8.6,25.3
			c-4.6,13.9-8.5,25.3-8.6,25.5l-0.2,0.3l-0.8-0.1l-0.3-0.4c-0.2-0.2-4-11.7-8.5-25.5s-8.3-25.1-8.4-25.2c-0.2-0.2-3-0.2-3.1,0
			c0,0.1,0.5,2,1.3,4.3s5,14.9,9.4,28c4.4,13.1,8,23.9,8.1,24l0.2,0.2h3.2L552,967z M615.6,967l0.2-0.2v-21.6l0.2-1.5
			c0.8-4.7,3-8,6.5-9.7c1.2-0.6,2.7-0.9,4.6-1.1l1.5-0.1l0.1-0.5c0.1-0.3,0.2-0.9,0.2-1.4l0.1-0.9l-0.4-0.2c-1.1-0.4-3.9,0-5.7,0.9
			l-1.2,0.6l-2.8,2.8l-0.8,1.4c-0.5,0.8-1,1.5-1.1,1.6l-0.3,0.3l-0.4-0.1c-0.2,0-0.5-0.2-0.6-0.5l-0.2-0.4l-0.1-2.8l-0.1-2.8
			l-0.2-0.2l-0.2-0.2l-1.1,0l-1.1,0l0,2.1c0,1.2,0.1,9.2,0.1,18c0,8.7,0.1,15.9,0.2,16l0.1,0.2h2.1L615.6,967L615.6,967z M641,949
			v-18.1l-1.1,0l-1.1,0l-0.4,0.4v35.7l0.4,0.4l2.2-0.1V949z M558.1,935.1c4.1-12.4,7.5-22.6,7.4-22.7c0-0.1-0.2-0.2-0.2-0.2
			c-0.6,0-14.1-9-15-10l-0.3-0.3l-0.5,0.8c-2.6,4-7.5,14.2-9.5,19.5c-0.3,0.8-0.6,1.5-0.7,1.5s-0.1,0.3-0.1,0.4
			c0,0.2,10.2,31.2,10.8,33.2c0,0.1,0.2,0.2,0.3,0.2h0.2L558.1,935.1z M532.4,883l0.1-13.5l0.2-0.3l0.2-0.3h23.8l0.4-0.4V866
			l-0.2-0.1c-0.1,0-5.5-0.1-12-0.1l-11.8,0l-0.7-0.6v-21.3l0.4-0.6l26-0.2v-3h-29.5l0,28c0,15.4,0,28.1,0,28.2l0.1,0.2l2.9-0.1
			L532.4,883z M567.5,887.9l0-8.4l-0.2-0.1c-0.3-0.1-8.2,9-8.8,10.1l-0.2,0.3h0.2c0.1,0,0.5,0.3,0.9,0.6c1.4,1.2,3.8,3.1,5.8,4.6
			l2,1.5l0.3-0.3L567.5,887.9z M571.9,885l0.1-11.6l0.4-1.6c0.8-2.9,1.8-4.7,3.5-6.3c1.3-1.2,2.3-1.8,4-2.4l1.2-0.4l1.8-0.1
			c1,0,1.8-0.1,1.8-0.2c0-0.1,0.1-0.7,0.2-1.4l0.2-1.3l-0.1-0.1c-0.1-0.1-0.8-0.1-1.6-0.1l-1.5,0l-1,0.2c-2.8,0.7-4.9,2.5-7,5.9
			l-0.8,1.3l-1,0.1l-0.3-0.4l-0.3-0.4l-0.1-2.5c0-1.4-0.1-2.7-0.1-2.9l-0.1-0.4l-1.2,0l-1.2,0l0,2c0,1.1,0.1,9.2,0.1,17.9
			c0,8.7,0.1,15.9,0.2,16l0.1,0.2l2.4-0.1L571.9,885z M549.4,878.6c1.4-1.8,5.6-6.6,6.1-7.1c0.5-0.5,0.5-0.7,0.1-0.8
			s-13.8-0.1-14.3,0c-0.2,0-0.3,0.2-0.3,0.2c0,0.2,2.5,3.5,4.4,5.8c1,1.2,2.1,2.5,2.3,2.8c0.3,0.3,0.5,0.6,0.5,0.6
			C548.3,880,548.8,879.4,549.4,878.6L549.4,878.6z M582.3,969.7c-3.5-0.4-6.4-1.8-8.4-4.2c-0.9-1-1.8-3-2.2-4.4l-0.3-1.1l0-4.4
			l0.2-1.1c0.5-2.2,1.3-3.7,2.8-5.2c1.7-1.8,3.4-2.8,6.1-3.7c3-1,6.1-1.4,11.3-1.4h3.2l0.3-0.3l0.3-0.3l-0.1-1.5
			c-0.1-1.8-0.4-3.1-0.9-4.2l-0.4-0.8l-0.8-0.7l-0.8-0.7l-1.1-0.5c-0.6-0.3-1.7-0.7-2.4-0.8l-1.2-0.3l-3.8,0.2l-1.2,0.3
			c-1.7,0.5-3.5,1.4-5.1,2.7c-0.8,0.6-1.5,1.1-1.7,1.1c-0.3,0-1-0.7-2.2-2.4l-1-1.4v-0.8l0.9-0.8c2.9-2.7,7.3-4.5,12-4.8l1.6-0.1
			l1.5,0.2c7.1,0.9,11.1,4.6,12,11.4l0.2,1.2l0,7.7c0,8.1,0.2,13.7,0.5,17.5l0.2,2.2l-0.3,0.3l-0.3,0.3h-4.7l-0.5-0.5l-0.2-1.6
			c-0.1-0.9-0.2-1.7-0.3-1.8l-0.1-0.1l-2.9,2.8l-1.5,0.7C588.5,969.6,585.7,970,582.3,969.7L582.3,969.7z M588.1,967.7
			c0.7-0.2,1.7-0.6,2.3-0.9l1.2-0.6l2.5-2.5l0.7-1.2c0.4-0.6,0.8-1.2,1-1.4l0.4-0.2l0.3,0.1c0.2,0.1,0.4,0.3,0.5,0.4l0.2,0.3
			l0.1,2.2c0,1.2,0.2,2.4,0.2,2.7l0.1,0.5h2.2l0-0.5c0-0.3-0.1-2-0.2-3.8c-0.1-1.8-0.2-7.8-0.3-13.3l-0.1-10.1l-0.3-1.3
			c-0.2-0.7-0.6-1.8-0.9-2.5l-0.6-1.2l-1.1-1.1l-1.1-1.1l-1.5-0.7c-0.8-0.4-2.1-0.9-2.8-1l-1.3-0.3l-4.1-0.2l-1.4,0.2
			c-2,0.3-4.2,1.1-5.8,1.9c-1.3,0.7-3.1,1.9-3.2,2.3l-0.1,0.2l0.7,0.9c0.4,0.5,0.7,0.9,0.7,0.9s0.8-0.5,1.6-1c1.7-1.1,3.2-1.8,5-2.3
			l1.2-0.3h4.8l1.2,0.3c0.7,0.2,1.7,0.6,2.3,0.9l1.1,0.5l1,0.9c1.1,1,1.7,2,2.2,3.6l0.3,1.1l0.1,2.6l0.1,2.6l-0.3,0.3l-0.3,0.3h-2.6
			c-2.9,0-7.1,0.2-9,0.5c-4.2,0.6-7.3,2-9.5,4.3l-1,1.1l-0.4,0.9c-0.6,1.3-0.9,2.5-1,4.5l-0.1,1.8l0.2,1.3l0.2,1.3l0.6,1.2l0.6,1.2
			l2.4,2.4l1.1,0.5c1.3,0.7,1.8,0.8,3.4,1.1l1.2,0.2l4.1-0.1L588.1,967.7L588.1,967.7z M582.3,965.2c-0.6-0.1-1.5-0.5-2.2-0.8
			l-1.2-0.6l-1-1l-1-1l-0.4-0.8c-0.6-1.2-0.8-2.2-0.8-3.6c0-2.3,0.7-4,2.4-5.6l1-1l1.4-0.7c3.1-1.5,6.7-2.1,13.2-2.1h2.7l0.6,0.6
			v4.8l-0.3,1.8c-0.2,1-0.5,2.2-0.7,2.8c-1.2,3.5-4.1,6-7.8,7l-1.1,0.3l-3.9,0.2L582.3,965.2z M588.1,963.4c2.2-0.6,4.3-2.1,5.4-3.9
			c1.2-1.9,1.8-4,2-7.5l0.1-1.7l-0.2-0.3l-0.2-0.3l-3.7,0.1c-5.2,0.1-7.4,0.5-10,1.8l-1.4,0.7l-1.7,1.7l-0.8,1.8v3.4l1,2.1l0.7,0.6
			c0.9,0.8,2,1.4,3.1,1.7l0.8,0.2l4.1-0.1L588.1,963.4z M638,918.8l-0.8-0.4l-0.5-0.7c-0.6-0.9-0.9-1.7-0.9-2.8
			c0-1.2,0.3-2.1,0.9-2.8c0.6-0.8,1.3-1.3,2.2-1.5l0.6-0.2l0.7,0.1c2.1,0.2,3.5,1.8,3.7,4.1l0.1,1l-0.5,1.8l-0.6,0.7
			c-0.3,0.4-0.9,0.8-1.3,1l-0.7,0.3h-2L638,918.8z M640.9,917.3c0.2-0.1,0.5-0.4,0.7-0.7l0.4-0.6l0.1-1.8l-0.2-0.5
			c-0.1-0.3-0.4-0.8-0.7-1.1l-0.5-0.5l-1.7-0.1l-0.5,0.4c-0.3,0.2-0.7,0.6-0.9,0.9l-0.3,0.5v0.9v0.9l0.4,0.7l0.4,0.7l1.3,0.7
			l0.6-0.1C640.4,917.5,640.8,917.4,640.9,917.3L640.9,917.3z M603.4,899c-2.4-0.4-4.7-1.4-6.8-2.8c-1.4-0.9-3.3-3-4.4-4.5
			c-2.3-3.5-3.5-7.3-3.7-12.2l-0.1-2.2l0.2-1.6c0.6-5.4,2.5-9.7,5.7-12.9c2.6-2.7,5.5-4.2,8.9-4.8l1.4-0.3l4.7,0.2l1.3,0.3
			c6,1.5,10.3,6.4,12,13.3l0.4,1.6l0.1,3.4l0.1,3.4l-0.3,0.3l-0.3,0.3h-27.9l-0.1,0.2c-0.1,0.3,0.4,2.8,0.8,4.1
			c1.4,4.1,4.5,7.1,8.2,8.1l1,0.3l3.6,0l1.1-0.3c3.2-0.8,6-2.8,7.8-5.5l0.5-0.8h1l3.5,3.2v0.8l-0.9,1.3c-2.5,3.8-6.2,6.1-11.2,7
			l-1.4,0.2l-2,0C605.5,899.2,604.1,899.1,603.4,899L603.4,899z M609.7,897.3c2.6-0.4,5.4-1.5,7.3-3l1.2-0.9l2-2.5v-0.7l-0.8-0.7
			c-0.5-0.4-0.9-0.7-1-0.6c-0.1,0-0.5,0.5-0.9,1s-1.2,1.3-1.8,1.8l-1,0.9l-1.7,0.8c-0.9,0.5-2.2,1-2.7,1.1l-1,0.3H604l-1.2-0.4
			c-1.6-0.5-2.7-1.1-4.1-2.2c-2-1.6-3.7-4-4.6-6.5c-0.5-1.5-1.1-4.2-1.1-5.5v-0.9l0.7-0.5h27.9l0.1-0.4c0.3-1-0.2-5.7-0.8-7.7
			c-1.3-4.6-4.1-8.1-7.9-9.9c-1.7-0.8-2.9-1.1-4.9-1.3l-1.5-0.2l-1.6,0.2c-1.9,0.2-3.1,0.5-4.7,1.2c-4.8,2.2-8.1,6.6-9.5,12.8
			l-0.3,1.5v3.5v3.5l0.3,1.6c0.7,3.2,1.9,5.9,3.5,8l1,1.3l1.2,1C600,897,604.3,898.1,609.7,897.3L609.7,897.3z M593.2,875.8
			c-0.3-0.4-0.3-1,0.1-2.6c0.9-3.5,2.8-6.5,5.3-8.6c1.5-1.2,2.8-1.8,4.4-2.3l1.2-0.3l3.6,0l1.1,0.3c4.7,1.2,8.5,5,9.6,9.8l0.3,1.3
			v2.2l-0.6,0.5h-24.8L593.2,875.8L593.2,875.8z M617.1,873.8c0.1-0.8-0.5-2.8-1.3-4.2l-0.7-1.2l-2.8-2.8l-3-1.4l-2.6-0.5l-1.3,0.1
			c-2.6,0.2-4.2,0.9-6,2.4c-1.3,1.1-2.2,2.2-3.1,3.7c-0.7,1.3-1.7,3.9-1.5,4.3l0.1,0.2l22.1-0.1L617.1,873.8z M644.4,899
			c-7.2-1.3-12.5-6.9-14.1-15c-0.6-3-0.7-7.9-0.1-10.8c1.6-8.1,7.2-14.1,14.3-15.3c1.5-0.3,4.4-0.3,5.9-0.1c5,0.8,9.3,4,11.7,8.7
			c1.7,3.3,2.4,6.6,2.4,11.4v1.9l-0.4,0.6l-28.1,0.2l0,0.5c-0.1,0.7,0.4,2.9,0.9,4.2c1,2.5,2.8,4.8,4.9,6.3c1.4,0.9,2.6,1.3,4.6,1.6
			l1.4,0.2l1.4-0.2c3.7-0.5,7.1-2.5,9.1-5.5l0.7-1h0.9l1.6,1.5c1.8,1.7,2,1.9,2,2.3c0,0.4-1.6,2.6-2.8,3.9l-1.2,1.2l-1.3,0.8
			c-2,1.3-4.4,2.2-7.1,2.7l-1.3,0.2l-2,0C646.6,899.2,645.1,899.1,644.4,899L644.4,899z M650.8,897.3c3.3-0.5,6.1-1.8,8.2-3.8
			c1-0.9,2.4-2.7,2.4-3c0-0.1-0.4-0.5-0.9-1l-0.9-0.8l-0.6,0.8c-2.2,2.6-4.8,4.2-8,5.1l-1.2,0.3h-3.8l-1.1-0.2
			c-2.3-0.5-4-1.4-5.9-3.2l-1.2-1.2l-0.8-1.3c-1.6-2.3-2.3-4.6-2.7-7.9l-0.2-1.6l0.7-0.7l28-0.2l0-5.2l-0.4-1.8
			c-1.5-6.5-5.8-11-11.5-12.2l-1.2-0.2h-3.9l-1.2,0.3c-1.6,0.3-3,0.9-4.5,1.8l-1.2,0.7l-1.3,1.2c-0.7,0.7-1.7,1.7-2.1,2.3
			c-1.6,2.2-3,5.4-3.5,8.5l-0.3,1.6v5.5l0.3,1.6c0.7,4.2,2.3,7.6,4.8,10.1C640.2,896.7,644.8,898.2,650.8,897.3L650.8,897.3z
			 M634.3,875.8l-0.3-0.3l0.1-0.7c0.3-2.1,1.4-4.9,2.7-6.9c1.8-2.8,4.9-5,7.7-5.6l1.1-0.2h3.4l1.2,0.3c3.7,1,6.7,3.4,8.5,7
			c0.6,1.2,1.2,3.3,1.3,4.8l0.1,1.3l-0.7,0.7h-24.8L634.3,875.8L634.3,875.8z M658.3,874.2c0.1-0.3-0.3-2.3-0.8-3.4
			c-0.6-1.5-1.4-2.6-2.6-3.9l-1.2-1.2l-1-0.6c-0.6-0.3-1.6-0.8-2.3-1l-1.2-0.4l-3.8,0l-1,0.3c-3,0.8-5.6,3.2-7.4,6.6
			c-0.6,1.2-1.2,3.2-1.1,3.6l0.1,0.2h22.2L658.3,874.2L658.3,874.2z M695.3,850.3c-10.8-4.3-21.9-6.8-34-7.8l-3.1-0.3l-5.9,0
			c-3.2,0-5.9,0-5.9,0s0.7-0.4,1.6-0.9s2.3-1.3,3.2-1.9l1.6-1l0.8,0.2c0.4,0.1,1.9,0.2,3.3,0.2l2.5,0l3.2-0.7l3.8-1.6l0.2-0.4
			l0.2-0.4l-0.2-0.5c-0.3-0.6-1.3-1.4-2.2-1.6c-0.3-0.1-1.5-0.2-2.6-0.3l-2-0.2l1.1-0.9c0.6-0.5,1.8-1.6,2.7-2.5l1.6-1.5l0.1,0.4
			l3.4,0.4c11.5,1.5,23.1,4.5,33,8.6l1.2,0.5l0.1,0.7l-2.3,6.1c-2.1,5.5-2.4,6.4-2.7,6.4C697.9,851.3,696.7,850.8,695.3,850.3
			L695.3,850.3z M647.2,839.8c0.3-0.2,0.7-0.4,0.9-0.5l0.4-0.1l-0.8,0.5C646.8,840.3,646.4,840.4,647.2,839.8L647.2,839.8z
			 M634.9,837.9c-0.2-0.1-1.3-2.8-1.3-3.1c0-0.1,1.5-0.7,1.5-0.7c0.2,0.2,1.9,3.5,1.8,3.6C636.7,837.9,635.1,838,634.9,837.9
			L634.9,837.9z M655.6,836.8c0.4-0.5,0.4-0.8-0.1-1.2c-0.2-0.2-0.3-0.4-0.3-0.5c0.2-0.1,2.3-0.4,4-0.5c1.4-0.1,4.1,0.1,5,0.4
			l0.5,0.2l-0.1,0.2c-0.1,0.3-2.4,1.2-3.9,1.5l-1.4,0.3h-4L655.6,836.8L655.6,836.8z M658.2,832.1c0.6-0.6,2.2-2,3.4-3.2
			c1.2-1.2,2.5-2.3,2.8-2.6l0.5-0.5l-0.6,0.8c-1.5,1.8-6.6,6.5-7,6.5h-0.3L658.2,832.1L658.2,832.1z"/>
		<path class="st12" d="M600.8,1018.4c-2.6-0.1-7-0.5-10.4-0.9c-44-5.4-82.1-34-99.5-75c-5.1-11.9-8.4-25-9.4-37.5
			c-0.1-1.6-0.3-3.4-0.4-4c-0.1-0.6-0.2-2.8-0.2-4.9l-0.1-3.8l0.2-3c0.4-7.5,1.2-14.3,2.5-20.7c8.7-42.8,39.4-78,80.6-92.7
			c11.8-4.2,24.1-6.5,38-7.2l3.6-0.2l3.7,0.2c17.4,0.8,32.3,4.2,47.1,10.8c28,12.4,51,35.3,63.4,63.4c6.6,14.8,10,29.7,10.8,47
			l0.2,3.6l-0.2,3.6c-0.8,17.3-4.2,32.2-10.7,47c-17.1,38.6-53.2,66.3-94.7,72.7C616.4,1018.2,608,1018.8,600.8,1018.4L600.8,1018.4
			z M613.7,1013.1c12.2-0.8,24.4-3.5,35.8-8c3.7-1.5,6.2-2.6,10.3-4.7c16.7-8.4,30.9-20.5,42.4-35.9c6-8.1,11.3-17.6,15-27.2
			c3.9-9.8,6.4-20.1,7.5-30.6c0.5-4.8,0.7-7.7,0.7-13.1c0-11.5-1.4-21.7-4.4-32.5c-2.1-7.5-4.8-14.2-8.4-21.5
			c-2.2-4.4-4.2-7.8-6.8-11.7c-7-10.5-15.8-20.1-25.5-27.9c-9.2-7.4-19.8-13.5-30.8-17.8c-11.5-4.5-23.2-7.1-35.9-8
			c-3.4-0.2-12.3-0.2-15.6,0c-10.9,0.8-20.6,2.7-30.4,6c-5.8,2-10.1,3.8-15.8,6.7c-11.2,5.7-20.7,12.5-29.7,21.3
			c-5,4.9-8.2,8.6-12.2,14c-6.4,8.5-11.6,17.9-15.5,27.8c-4.5,11.5-7.1,23.1-8,35.9c-0.2,3.3-0.2,12.3,0,15.6
			c0.8,10.9,2.7,20.6,6,30.4c2,5.8,3.8,10.1,6.7,15.8c5.6,11.1,12.6,20.8,21.5,29.8c4.8,4.9,8.6,8.2,13.7,12
			c8.4,6.3,18.2,11.8,28,15.6c12.8,5,25.7,7.7,40.1,8.2C604.2,1013.4,611,1013.3,613.7,1013.1L613.7,1013.1z M517.6,970.9
			c-0.1-0.3,0.2-8.8,0.3-11.3c1-13,3.3-24.5,7.3-36.3c1.3-3.8,3-8.5,3.4-9.1l0.2-0.3l-0.7-1.9c-0.7-2.1-0.8-2.5-0.5-2.8
			c0.1-0.1,0.9-0.2,1.7-0.2l1.5,0l0.1-0.2c0-0.1,1-2,2.1-4.2c1.9-3.9,3.9-7.5,5.3-9.8c0.4-0.6,0.8-1.4,1-1.9
			c0.7-1.6,8.4-12.8,8.8-12.8c0.1,0,0.7-0.7,1.3-1.4c1.4-1.8,5.6-6.6,6.1-7.1c0.2-0.2,0.4-0.5,0.4-0.6v-0.2l-0.5-0.1
			c-0.5-0.1-11.4,0-17.7,0.2l-3.5,0.1l-0.1,13.4l-0.1,13.4l-0.5,0.7h-5.4l-0.5-0.4l-0.1-8.6c0-4.7-0.1-17.9-0.2-29.2l-0.1-20.6
			l0.2-0.6l0.2-0.6h32.2l0.3,0.2l0.3,0.2v5.7l-0.5,0.4l-25.8,0.2l0,9.3l0,9.3l0.4,0.4l23.7,0.1l0.5,0.7v2.9h0.1c0.1,0,1.2-1,2.5-2.3
			c3.1-3,5.2-4.9,5.4-4.9c0.2,0,0.3-0.4,0.3-1V859l0.3-0.2c0.2-0.1,0.6-0.2,0.9-0.2h0.6l0.6-0.5c1-0.9,5-4,7.4-5.7
			c18.1-12.9,39.4-21.2,61-23.6c5-0.6,6.6-0.7,12.7-0.7c5.7-0.1,9.7,0,9.6,0.2c-0.1,0.2-2.5,2.4-4.6,4.2l-1.9,1.6l-2,0.6
			c-1.9,0.6-2.8,0.8-7.3,1.6c-2.6,0.5-5.8,0.9-6,0.8c-0.1,0-0.5-0.7-0.9-1.4c-0.4-0.8-0.9-1.7-1.1-2l-0.4-0.7l1-0.7
			c1.8-1.2,2-1.5,1.4-2l-0.3-0.3h-1.3l-1.1,0.7c-0.6,0.4-1.7,1-2.5,1.4c-1.6,0.9-3,1.8-3.4,2.2l-0.3,0.3l0.5,0.8h0.6
			c0.3,0,0.8-0.1,1-0.2s0.5-0.2,0.6-0.1c0.1,0.1,0.3,0.7,0.5,1.4s0.6,1.6,0.8,2l0.3,0.7l1.1,0.3l2.6-0.2c2.9-0.3,8.2-0.7,8.7-0.7
			h0.4l-0.5,0.4c-1.5,1-4.2,2.4-6.2,3.3c-1.3,0.5-2.5,1.1-2.8,1.3l-0.5,0.3l-0.7-0.3l-2.7,0.5c-3,0.5-7.7,1.5-9.4,2l-1,0.3l0,0.2
			c0,0.1-0.2,0-0.4-0.3c-0.8-0.9-1.5-1.1-2.1-0.5l-0.3,0.3l0.1,0.5l0.1,0.5l-1.2,0.3c-2.2,0.7-7.5,2.5-10.3,3.7
			c-7,2.9-13.3,6.2-20.5,10.9l-1.4,0.9l-0.1,0.5c-0.1,0.3-0.2,0.7-0.3,0.8l-0.2,0.3l-1.6-0.2l-2.2,1.7c-3.7,2.8-8,6.5-8.4,7.1
			c-0.1,0.2-0.2,1.1-0.3,2.2l-0.2,1.8v10.5v10.5l-0.3,0.1c-0.2,0.1-1.4,0.2-2.7,0.2l-2.4,0.1l-0.3-0.2l-0.3-0.2l0-9.3l0-9.3
			l-0.2-0.1c-0.3-0.1-8.4,9.2-8.9,10.2c-0.1,0.2-0.8,1.2-1.5,2.2c-1.7,2.2-4.6,6.6-5.8,8.5c-0.5,0.8-0.9,1.5-1,1.5
			c-0.4,0.3-2.9,4.7-5.3,9.5c-1.6,3.1-3.4,7.2-4.6,10.3c-0.4,1-0.8,2-0.9,2.2l-0.2,0.3l1.1,3.5c0.6,1.9,3.1,9.4,5.5,16.7l4.3,13.2
			l0.5,0.1l7.4-22.4c4.1-12.3,7.5-22.6,7.5-22.8c0-0.3,0.3-1.2,0.6-2l0.5-1.5l0.8-0.4l5.5,0.1l0.3,0.3l0.3,0.3l0,0.4
			c0,0.5-1.6,5.2-2.2,6.4c-0.2,0.4-4.3,12.4-9.1,26.5c-4.8,14.2-8.9,25.9-9,26l-0.2,0.2h-5.4l-0.2-0.2c-0.1-0.1-2.7-7.6-5.7-16.6
			c-3-9-5.5-16.5-5.6-16.5l-0.1-0.1l-0.2,0.4c-0.6,1.5-2,7.9-2.8,12.5c-1.1,6.4-1.6,11.7-1.8,18.3c-0.1,2.3-0.2,4.3-0.2,4.4
			l-0.1,0.2h-13.1L517.6,970.9L517.6,970.9z M552,967c0.3-0.3,19.3-56.2,19.2-56.4c-0.1-0.2-2.7-0.2-3,0c-0.1,0.1-4,11.5-8.6,25.3
			c-4.6,13.9-8.5,25.3-8.6,25.5l-0.2,0.3l-0.8-0.1l-0.3-0.4c-0.2-0.2-4-11.7-8.5-25.5s-8.3-25.1-8.4-25.2c-0.2-0.2-3-0.2-3.1,0
			c0,0.1,0.5,2,1.3,4.3s5,14.9,9.4,28c4.4,13.1,8,23.9,8.1,24l0.2,0.2h3.2L552,967z M532.4,883l0.1-13.5l0.2-0.3l0.2-0.3h23.8
			l0.4-0.4V866l-0.2-0.1c-0.1,0-5.5-0.1-12-0.1l-11.8,0l-0.7-0.6v-21.3l0.4-0.6l26-0.2v-3h-29.5l0,28c0,15.4,0,28.1,0,28.2l0.1,0.2
			l2.9-0.1L532.4,883z M571.9,885l0.1-11.6l0.4-1.6c0.8-2.9,1.8-4.7,3.5-6.3c1.3-1.2,2.3-1.8,4-2.4l1.2-0.4l1.8-0.1
			c1,0,1.8-0.1,1.8-0.2c0-0.1,0.1-0.7,0.2-1.4l0.2-1.3l-0.1-0.1c-0.1-0.1-0.8-0.1-1.6-0.1l-1.5,0l-1,0.2c-2.8,0.7-4.9,2.5-7,5.9
			l-0.8,1.3l-1,0.1l-0.3-0.4l-0.3-0.4l-0.1-2.5c0-1.4-0.1-2.7-0.1-2.9l-0.1-0.4l-1.2,0l-1.2,0l0,2c0,1.1,0.1,9.2,0.1,17.9
			c0,8.7,0.1,15.9,0.2,16l0.1,0.2l2.4-0.1L571.9,885z M582.3,969.7c-3.5-0.4-6.4-1.8-8.4-4.2c-0.9-1-1.8-3-2.2-4.4l-0.3-1.1l0-4.4
			l0.2-1.1c0.5-2.2,1.3-3.7,2.8-5.2c1.7-1.8,3.4-2.8,6.1-3.7c3-1,6.1-1.4,11.3-1.4h3.2l0.3-0.3l0.3-0.3l-0.1-1.5
			c-0.1-1.8-0.4-3.1-0.9-4.2l-0.4-0.8l-0.8-0.7l-0.8-0.7l-1.1-0.5c-0.6-0.3-1.7-0.7-2.4-0.8l-1.2-0.3l-3.8,0.2l-1.2,0.3
			c-1.7,0.5-3.5,1.4-5.1,2.7c-0.8,0.6-1.5,1.1-1.7,1.1c-0.3,0-1-0.7-2.2-2.4l-1-1.4v-0.8l0.9-0.8c2.9-2.7,7.3-4.5,12-4.8l1.6-0.1
			l1.5,0.2c7.1,0.9,11.1,4.6,12,11.4l0.2,1.2l0,7.7c0,8.1,0.2,13.7,0.5,17.5l0.2,2.2l-0.3,0.3l-0.3,0.3h-4.7l-0.5-0.5l-0.2-1.6
			c-0.1-0.9-0.2-1.7-0.3-1.8l-0.1-0.1l-2.9,2.8l-1.5,0.7C588.5,969.6,585.7,970,582.3,969.7L582.3,969.7z M588.1,967.7
			c0.7-0.2,1.7-0.6,2.3-0.9l1.2-0.6l2.5-2.5l0.7-1.2c0.4-0.6,0.8-1.2,1-1.4l0.4-0.2l0.3,0.1c0.2,0.1,0.4,0.3,0.5,0.4l0.2,0.3
			l0.1,2.2c0,1.2,0.2,2.4,0.2,2.7l0.1,0.5h2.2l0-0.5c0-0.3-0.1-2-0.2-3.8c-0.1-1.8-0.2-7.8-0.3-13.3l-0.1-10.1l-0.3-1.3
			c-0.2-0.7-0.6-1.8-0.9-2.5l-0.6-1.2l-1.1-1.1l-1.1-1.1l-1.5-0.7c-0.8-0.4-2.1-0.9-2.8-1l-1.3-0.3l-4.1-0.2l-1.4,0.2
			c-2,0.3-4.2,1.1-5.8,1.9c-1.3,0.7-3.1,1.9-3.2,2.3l-0.1,0.2l0.7,0.9c0.4,0.5,0.7,0.9,0.7,0.9s0.8-0.5,1.6-1c1.7-1.1,3.2-1.8,5-2.3
			l1.2-0.3h4.8l1.2,0.3c0.7,0.2,1.7,0.6,2.3,0.9l1.1,0.5l1,0.9c1.1,1,1.7,2,2.2,3.6l0.3,1.1l0.1,2.6l0.1,2.6l-0.3,0.3l-0.3,0.3h-2.6
			c-2.9,0-7.1,0.2-9,0.5c-4.2,0.6-7.3,2-9.5,4.3l-1,1.1l-0.4,0.9c-0.6,1.3-0.9,2.5-1,4.5l-0.1,1.8l0.2,1.3l0.2,1.3l0.6,1.2l0.6,1.2
			l2.4,2.4l1.1,0.5c1.3,0.7,1.8,0.8,3.4,1.1l1.2,0.2l4.1-0.1L588.1,967.7L588.1,967.7z M582.3,965.2c-0.6-0.1-1.5-0.5-2.2-0.8
			l-1.2-0.6l-1-1l-1-1l-0.4-0.8c-0.6-1.2-0.8-2.2-0.8-3.6c0-2.3,0.7-4,2.4-5.6l1-1l1.4-0.7c3.1-1.5,6.7-2.1,13.2-2.1h2.7l0.6,0.6
			v4.8l-0.3,1.8c-0.2,1-0.5,2.2-0.7,2.8c-1.2,3.5-4.1,6-7.8,7l-1.1,0.3l-3.9,0.2L582.3,965.2z M588.1,963.4c2.2-0.6,4.3-2.1,5.4-3.9
			c1.2-1.9,1.8-4,2-7.5l0.1-1.7l-0.2-0.3l-0.2-0.3l-3.7,0.1c-5.2,0.1-7.4,0.5-10,1.8l-1.4,0.7l-1.7,1.7l-0.8,1.8v3.4l1,2.1l0.7,0.6
			c0.9,0.8,2,1.4,3.1,1.7l0.8,0.2l4.1-0.1L588.1,963.4z M668.3,969.7c-1.7-0.2-4-0.8-5.5-1.5c-6.3-2.9-10.2-9.1-10.8-17l-0.2-2.1
			l0.2-2.2c0.1-1.2,0.2-2.4,0.3-2.7c0.1-0.3,0.2-0.8,0.2-1.1c0-1.3,1.5-5,3-7.1c0.8-1.2,3.3-4,3.6-4c0.1,0,0.6-0.3,1.2-0.7
			c2.5-1.7,5.4-2.7,8.7-3l1.8-0.2l1.8,0.2c4.7,0.5,8,2.1,11.5,5.7c1.7,1.8,2.2,2.4,3.1,4.1c1,2,1.4,3.2,2,5.6l0.3,1.4l0,3.2
			c0,3.4-0.1,4.6-0.6,6.6c-0.9,3.7-2.5,6.8-5,9.3C679.7,968.5,674.5,970.3,668.3,969.7L668.3,969.7z M673.5,967.9
			c5.2-0.8,9.6-4.1,12-9c0.8-1.6,1.6-4,1.9-5.9l0.3-1.6v-5l-0.3-1.6c-0.5-2.8-1.7-5.8-3.1-8c-0.8-1.2-2.6-3.1-3.8-4
			c-2.7-2-6.2-3.1-9.8-3.1c-8.9,0-15.5,6.2-16.9,15.8c-1,6.8,1,13.7,5.2,17.8c3.1,3,6.9,4.6,11.5,4.7
			C671.4,968.1,672.7,968,673.5,967.9L673.5,967.9z M668.3,965.3c-2.3-0.4-4.9-1.6-6.7-3.2c-2.4-2.1-4.3-5.5-5-9.3l-0.2-1.1v-5.3
			l0.2-1.1c0.7-3.6,2.2-6.5,4.5-8.8l1.2-1.2l1.3-0.8c1.5-0.9,3.4-1.6,5-1.8l1.2-0.2l1.6,0.1l1.6,0.1l1.2,0.3c2.5,0.7,5,2.3,6.8,4.3
			c1.8,2.1,2.9,4.5,3.6,7.6l0.3,1.6v5l-0.3,1.6c-0.7,3.1-1.8,5.5-3.6,7.5c-1.8,2.1-4.3,3.7-6.8,4.3l-1.2,0.3l-2,0
			C670,965.4,668.7,965.4,668.3,965.3L668.3,965.3z M674.4,963.2c5.5-1.9,9-7.3,9-14.2v-1.4l-0.4-1.8c-0.5-2.2-0.9-3.3-1.5-4.6
			c-2.2-4.3-6.2-6.8-10.8-6.8c-3.5,0-6.4,1.3-8.8,3.8c-1.2,1.3-1.9,2.4-2.6,4c-0.2,0.6-0.6,1.4-0.7,1.6c-0.1,0.3-0.3,1.1-0.5,2
			l-0.3,1.5l0.2,4.8l0.4,1.5c1.4,5.2,4.8,8.8,9.5,9.9l0.9,0.2l4.2-0.1L674.4,963.2z M612.1,968.8c-0.2,0-0.4-0.2-0.5-0.3l-0.2-0.2
			l0-14.7c0-8.1-0.1-16-0.2-17.6c-0.1-1.6-0.2-3.7-0.2-4.6l-0.1-1.7l0.5-0.6h5.2l0.3,0.3l0.3,0.3l0.1,1.7c0,1,0.1,1.8,0.2,1.8
			c0,0,0.5-0.4,1.1-1c1.8-2,3.6-3.1,5.9-3.7l1-0.3l3.4,0l0.8,0.2c0.4,0.1,0.9,0.3,1.1,0.5l0.3,0.3l-0.1,1.1c0,0.6-0.2,1.9-0.3,2.8
			l-0.2,1.6l-0.3,0.3l-0.3,0.3l-0.7-0.1c-0.4-0.1-1.3-0.1-2.1-0.1l-1.5,0l-1.1,0.4c-0.6,0.2-1.4,0.5-1.7,0.6c-2,0.8-4,3.5-4.8,6.6
			c-0.2,0.7-0.4,2.1-0.5,3l-0.2,1.8v10.5v10.5l-0.3,0.2l-0.3,0.2l-2.2,0C613.4,968.9,612.3,968.8,612.1,968.8L612.1,968.8z
			 M615.6,967l0.2-0.2v-21.6l0.2-1.5c0.8-4.7,3-8,6.5-9.7c1.2-0.6,2.7-0.9,4.6-1.1l1.5-0.1l0.1-0.5c0.1-0.3,0.2-0.9,0.2-1.4l0.1-0.9
			l-0.4-0.2c-1.1-0.4-3.9,0-5.7,0.9l-1.2,0.6l-2.8,2.8l-0.8,1.4c-0.5,0.8-1,1.5-1.1,1.6l-0.3,0.3l-0.4-0.1c-0.2,0-0.5-0.2-0.6-0.5
			l-0.2-0.4l-0.1-2.8l-0.1-2.8l-0.2-0.2l-0.2-0.2l-1.1,0l-1.1,0l0,2.1c0,1.2,0.1,9.2,0.1,18c0,8.7,0.1,15.9,0.2,16l0.1,0.2h2.1
			L615.6,967L615.6,967z M637.3,968.7l-0.4-0.2l-0.1-14.4c-0.1-7.9-0.1-16.7-0.2-19.5l0-5l0.3-0.3l0.3-0.3h5.1l0.6,0.6l-0.1,19.3
			l-0.1,19.3l-0.2,0.3l-0.2,0.3l-4.6,0.1L637.3,968.7z M641,949v-18.1l-1.1,0l-1.1,0l-0.4,0.4v35.7l0.4,0.4l2.2-0.1V949z M638,918.8
			l-0.8-0.4l-0.5-0.7c-0.6-0.9-0.9-1.7-0.9-2.8c0-1.2,0.3-2.1,0.9-2.8c0.6-0.8,1.3-1.3,2.2-1.5l0.6-0.2l0.7,0.1
			c2.1,0.2,3.5,1.8,3.7,4.1l0.1,1l-0.5,1.8l-0.6,0.7c-0.3,0.4-0.9,0.8-1.3,1l-0.7,0.3h-2L638,918.8z M640.9,917.3
			c0.2-0.1,0.5-0.4,0.7-0.7l0.4-0.6l0.1-1.8l-0.2-0.5c-0.1-0.3-0.4-0.8-0.7-1.1l-0.5-0.5l-1.7-0.1l-0.5,0.4
			c-0.3,0.2-0.7,0.6-0.9,0.9l-0.3,0.5v0.9v0.9l0.4,0.7l0.4,0.7l1.3,0.7l0.6-0.1C640.4,917.5,640.8,917.4,640.9,917.3L640.9,917.3z
			 M603.4,899c-2.4-0.4-4.7-1.4-6.8-2.8c-1.4-0.9-3.3-3-4.4-4.5c-2.3-3.5-3.5-7.3-3.7-12.2l-0.1-2.2l0.2-1.6
			c0.6-5.4,2.5-9.7,5.7-12.9c2.6-2.7,5.5-4.2,8.9-4.8l1.4-0.3l4.7,0.2l1.3,0.3c6,1.5,10.3,6.4,12,13.3l0.4,1.6l0.1,3.4l0.1,3.4
			l-0.3,0.3l-0.3,0.3h-27.9l-0.1,0.2c-0.1,0.3,0.4,2.8,0.8,4.1c1.4,4.1,4.5,7.1,8.2,8.1l1,0.3l3.6,0l1.1-0.3c3.2-0.8,6-2.8,7.8-5.5
			l0.5-0.8h1l3.5,3.2v0.8l-0.9,1.3c-2.5,3.8-6.2,6.1-11.2,7l-1.4,0.2l-2,0C605.5,899.2,604.1,899.1,603.4,899L603.4,899z
			 M609.7,897.3c2.6-0.4,5.4-1.5,7.3-3l1.2-0.9l2-2.5v-0.7l-0.8-0.7c-0.5-0.4-0.9-0.7-1-0.6c-0.1,0-0.5,0.5-0.9,1s-1.2,1.3-1.8,1.8
			l-1,0.9l-1.7,0.8c-0.9,0.5-2.2,1-2.7,1.1l-1,0.3H604l-1.2-0.4c-1.6-0.5-2.7-1.1-4.1-2.2c-2-1.6-3.7-4-4.6-6.5
			c-0.5-1.5-1.1-4.2-1.1-5.5v-0.9l0.7-0.5h27.9l0.1-0.4c0.3-1-0.2-5.7-0.8-7.7c-1.3-4.6-4.1-8.1-7.9-9.9c-1.7-0.8-2.9-1.1-4.9-1.3
			l-1.5-0.2l-1.6,0.2c-1.9,0.2-3.1,0.5-4.7,1.2c-4.8,2.2-8.1,6.6-9.5,12.8l-0.3,1.5v3.5v3.5l0.3,1.6c0.7,3.2,1.9,5.9,3.5,8l1,1.3
			l1.2,1C600,897,604.3,898.1,609.7,897.3L609.7,897.3z M593.2,875.8c-0.3-0.4-0.3-1,0.1-2.6c0.9-3.5,2.8-6.5,5.3-8.6
			c1.5-1.2,2.8-1.8,4.4-2.3l1.2-0.3l3.6,0l1.1,0.3c4.7,1.2,8.5,5,9.6,9.8l0.3,1.3v2.2l-0.6,0.5h-24.8L593.2,875.8L593.2,875.8z
			 M617.1,873.8c0.1-0.8-0.5-2.8-1.3-4.2l-0.7-1.2l-2.8-2.8l-3-1.4l-2.6-0.5l-1.3,0.1c-2.6,0.2-4.2,0.9-6,2.4
			c-1.3,1.1-2.2,2.2-3.1,3.7c-0.7,1.3-1.7,3.9-1.5,4.3l0.1,0.2l22.1-0.1L617.1,873.8z M644.4,899c-7.2-1.3-12.5-6.9-14.1-15
			c-0.6-3-0.7-7.9-0.1-10.8c1.6-8.1,7.2-14.1,14.3-15.3c1.5-0.3,4.4-0.3,5.9-0.1c5,0.8,9.3,4,11.7,8.7c1.7,3.3,2.4,6.6,2.4,11.4v1.9
			l-0.4,0.6l-28.1,0.2l0,0.5c-0.1,0.7,0.4,2.9,0.9,4.2c1,2.5,2.8,4.8,4.9,6.3c1.4,0.9,2.6,1.3,4.6,1.6l1.4,0.2l1.4-0.2
			c3.7-0.5,7.1-2.5,9.1-5.5l0.7-1h0.9l1.6,1.5c1.8,1.7,2,1.9,2,2.3c0,0.4-1.6,2.6-2.8,3.9l-1.2,1.2l-1.3,0.8c-2,1.3-4.4,2.2-7.1,2.7
			l-1.3,0.2l-2,0C646.6,899.2,645.1,899.1,644.4,899L644.4,899z M650.8,897.3c3.3-0.5,6.1-1.8,8.2-3.8c1-0.9,2.4-2.7,2.4-3
			c0-0.1-0.4-0.5-0.9-1l-0.9-0.8l-0.6,0.8c-2.2,2.6-4.8,4.2-8,5.1l-1.2,0.3h-3.8l-1.1-0.2c-2.3-0.5-4-1.4-5.9-3.2l-1.2-1.2l-0.8-1.3
			c-1.6-2.3-2.3-4.6-2.7-7.9l-0.2-1.6l0.7-0.7l28-0.2l0-5.2l-0.4-1.8c-1.5-6.5-5.8-11-11.5-12.2l-1.2-0.2h-3.9l-1.2,0.3
			c-1.6,0.3-3,0.9-4.5,1.8l-1.2,0.7l-1.3,1.2c-0.7,0.7-1.7,1.7-2.1,2.3c-1.6,2.2-3,5.4-3.5,8.5l-0.3,1.6v5.5l0.3,1.6
			c0.7,4.2,2.3,7.6,4.8,10.1C640.2,896.7,644.8,898.2,650.8,897.3L650.8,897.3z M634.3,875.8l-0.3-0.3l0.1-0.7
			c0.3-2.1,1.4-4.9,2.7-6.9c1.8-2.8,4.9-5,7.7-5.6l1.1-0.2h3.4l1.2,0.3c3.7,1,6.7,3.4,8.5,7c0.6,1.2,1.2,3.3,1.3,4.8l0.1,1.3
			l-0.7,0.7h-24.8L634.3,875.8L634.3,875.8z M658.3,874.2c0.1-0.3-0.3-2.3-0.8-3.4c-0.6-1.5-1.4-2.6-2.6-3.9l-1.2-1.2l-1-0.6
			c-0.6-0.3-1.6-0.8-2.3-1l-1.2-0.4l-3.8,0l-1,0.3c-3,0.8-5.6,3.2-7.4,6.6c-0.6,1.2-1.2,3.2-1.1,3.6l0.1,0.2h22.2L658.3,874.2
			L658.3,874.2z M695.3,850.3c-10.8-4.3-21.9-6.8-34-7.8l-3.1-0.3l-5.9,0c-3.2,0-5.9,0-5.9,0c0,0,0.7-0.4,1.6-0.9s2.3-1.3,3.2-1.9
			l1.6-1l0.8,0.2c0.4,0.1,1.9,0.2,3.3,0.2l2.5,0l3.2-0.7l3.8-1.6l0.2-0.4l0.2-0.4l-0.2-0.5c-0.3-0.6-1.3-1.4-2.2-1.6
			c-0.3-0.1-1.5-0.2-2.6-0.3l-2-0.2l1.1-0.9c0.6-0.5,1.8-1.6,2.7-2.5l1.6-1.5l0.1,0.4l3.4,0.4c11.5,1.5,23.1,4.5,33,8.6l1.2,0.5
			l0.1,0.7l-2.3,6.1c-2.1,5.5-2.4,6.4-2.7,6.4C697.9,851.3,696.7,850.8,695.3,850.3L695.3,850.3z M647.2,839.8
			c0.3-0.2,0.7-0.4,0.9-0.5l0.4-0.1l-0.8,0.5C646.8,840.3,646.4,840.4,647.2,839.8L647.2,839.8z M634.9,837.9
			c-0.2-0.1-1.3-2.8-1.3-3.1c0-0.1,1.5-0.7,1.5-0.7c0.2,0.2,1.9,3.5,1.8,3.6C636.7,837.9,635.1,838,634.9,837.9L634.9,837.9z
			 M655.6,836.8c0.4-0.5,0.4-0.8-0.1-1.2c-0.2-0.2-0.3-0.4-0.3-0.5c0.2-0.1,2.3-0.4,4-0.5c1.4-0.1,4.1,0.1,5,0.4l0.5,0.2l-0.1,0.2
			c-0.1,0.3-2.4,1.2-3.9,1.5l-1.4,0.3h-4L655.6,836.8L655.6,836.8z M658.2,832.1c0.6-0.6,2.2-2,3.4-3.2c1.2-1.2,2.5-2.3,2.8-2.6
			l0.5-0.5l-0.6,0.8c-1.5,1.8-6.6,6.5-7,6.5h-0.3L658.2,832.1L658.2,832.1z"/>
		<path class="st13" d="M600.8,1018.4c-2.6-0.1-7-0.5-10.4-0.9c-44-5.4-82.1-34-99.5-75c-5.1-11.9-8.4-25-9.4-37.5
			c-0.1-1.6-0.3-3.4-0.4-4c-0.1-0.6-0.2-2.8-0.2-4.9l-0.1-3.8l0.2-3c0.4-7.5,1.2-14.3,2.5-20.7c8.7-42.8,39.4-78,80.6-92.7
			c11.8-4.2,24.1-6.5,38-7.2l3.6-0.2l3.7,0.2c17.4,0.8,32.3,4.2,47.1,10.8c28,12.4,51,35.3,63.4,63.4c6.6,14.8,10,29.7,10.8,47
			l0.2,3.6l-0.2,3.6c-0.8,17.3-4.2,32.2-10.7,47c-17.1,38.6-53.2,66.3-94.7,72.7C616.4,1018.2,608,1018.8,600.8,1018.4L600.8,1018.4
			z M613.7,1013.1c12.2-0.8,24.4-3.5,35.8-8c3.7-1.5,6.2-2.6,10.3-4.7c16.7-8.4,30.9-20.5,42.4-35.9c6-8.1,11.3-17.6,15-27.2
			c3.9-9.8,6.4-20.1,7.5-30.6c0.5-4.8,0.7-7.7,0.7-13.1c0-11.5-1.4-21.7-4.4-32.5c-2.1-7.5-4.8-14.2-8.4-21.5
			c-2.2-4.4-4.2-7.8-6.8-11.7c-7-10.5-15.8-20.1-25.5-27.9c-9.2-7.4-19.8-13.5-30.8-17.8c-11.5-4.5-23.2-7.1-35.9-8
			c-3.4-0.2-12.3-0.2-15.6,0c-10.9,0.8-20.6,2.7-30.4,6c-5.8,2-10.1,3.8-15.8,6.7c-11.2,5.7-20.7,12.5-29.7,21.3
			c-5,4.9-8.2,8.6-12.2,14c-6.4,8.5-11.6,17.9-15.5,27.8c-4.5,11.5-7.1,23.1-8,35.9c-0.2,3.3-0.2,12.3,0,15.6
			c0.8,10.9,2.7,20.6,6,30.4c2,5.8,3.8,10.1,6.7,15.8c5.6,11.1,12.6,20.8,21.5,29.8c4.8,4.9,8.6,8.2,13.7,12
			c8.4,6.3,18.2,11.8,28,15.6c12.8,5,25.7,7.7,40.1,8.2C604.2,1013.4,611,1013.3,613.7,1013.1L613.7,1013.1z M582.3,969.7
			c-3.5-0.4-6.4-1.8-8.4-4.2c-0.9-1-1.8-3-2.2-4.4l-0.3-1.1l0-4.4l0.2-1.1c0.5-2.2,1.3-3.7,2.8-5.2c1.7-1.8,3.4-2.8,6.1-3.7
			c3-1,6.1-1.4,11.3-1.4h3.2l0.3-0.3l0.3-0.3l-0.1-1.5c-0.1-1.8-0.4-3.1-0.9-4.2l-0.4-0.8l-0.8-0.7l-0.8-0.7l-1.1-0.5
			c-0.6-0.3-1.7-0.7-2.4-0.8l-1.2-0.3l-3.8,0.2l-1.2,0.3c-1.7,0.5-3.5,1.4-5.1,2.7c-0.8,0.6-1.5,1.1-1.7,1.1c-0.3,0-1-0.7-2.2-2.4
			l-1-1.4v-0.8l0.9-0.8c2.9-2.7,7.3-4.5,12-4.8l1.6-0.1l1.5,0.2c7.1,0.9,11.1,4.6,12,11.4l0.2,1.2l0,7.7c0,8.1,0.2,13.7,0.5,17.5
			l0.2,2.2l-0.3,0.3l-0.3,0.3h-4.7l-0.5-0.5l-0.2-1.6c-0.1-0.9-0.2-1.7-0.3-1.8l-0.1-0.1l-2.9,2.8l-1.5,0.7
			C588.5,969.6,585.7,970,582.3,969.7L582.3,969.7z M588.1,967.7c0.7-0.2,1.7-0.6,2.3-0.9l1.2-0.6l2.5-2.5l0.7-1.2
			c0.4-0.6,0.8-1.2,1-1.4l0.4-0.2l0.3,0.1c0.2,0.1,0.4,0.3,0.5,0.4l0.2,0.3l0.1,2.2c0,1.2,0.2,2.4,0.2,2.7l0.1,0.5h2.2l0-0.5
			c0-0.3-0.1-2-0.2-3.8c-0.1-1.8-0.2-7.8-0.3-13.3l-0.1-10.1l-0.3-1.3c-0.2-0.7-0.6-1.8-0.9-2.5l-0.6-1.2l-1.1-1.1l-1.1-1.1
			l-1.5-0.7c-0.8-0.4-2.1-0.9-2.8-1l-1.3-0.3l-4.1-0.2l-1.4,0.2c-2,0.3-4.2,1.1-5.8,1.9c-1.3,0.7-3.1,1.9-3.2,2.3l-0.1,0.2l0.7,0.9
			c0.4,0.5,0.7,0.9,0.7,0.9s0.8-0.5,1.6-1c1.7-1.1,3.2-1.8,5-2.3l1.2-0.3h4.8l1.2,0.3c0.7,0.2,1.7,0.6,2.3,0.9l1.1,0.5l1,0.9
			c1.1,1,1.7,2,2.2,3.6l0.3,1.1l0.1,2.6l0.1,2.6l-0.3,0.3l-0.3,0.3h-2.6c-2.9,0-7.1,0.2-9,0.5c-4.2,0.6-7.3,2-9.5,4.3l-1,1.1
			l-0.4,0.9c-0.6,1.3-0.9,2.5-1,4.5l-0.1,1.8l0.2,1.3l0.2,1.3l0.6,1.2l0.6,1.2l2.4,2.4l1.1,0.5c1.3,0.7,1.8,0.8,3.4,1.1l1.2,0.2
			l4.1-0.1L588.1,967.7L588.1,967.7z M582.3,965.2c-0.6-0.1-1.5-0.5-2.2-0.8l-1.2-0.6l-1-1l-1-1l-0.4-0.8c-0.6-1.2-0.8-2.2-0.8-3.6
			c0-2.3,0.7-4,2.4-5.6l1-1l1.4-0.7c3.1-1.5,6.7-2.1,13.2-2.1h2.7l0.6,0.6v4.8l-0.3,1.8c-0.2,1-0.5,2.2-0.7,2.8
			c-1.2,3.5-4.1,6-7.8,7l-1.1,0.3l-3.9,0.2L582.3,965.2z M588.1,963.4c2.2-0.6,4.3-2.1,5.4-3.9c1.2-1.9,1.8-4,2-7.5l0.1-1.7
			l-0.2-0.3l-0.2-0.3l-3.7,0.1c-5.2,0.1-7.4,0.5-10,1.8l-1.4,0.7l-1.7,1.7l-0.8,1.8v3.4l1,2.1l0.7,0.6c0.9,0.8,2,1.4,3.1,1.7
			l0.8,0.2l4.1-0.1L588.1,963.4z M668.3,969.7c-1.7-0.2-4-0.8-5.5-1.5c-6.3-2.9-10.2-9.1-10.8-17l-0.2-2.1l0.2-2.2
			c0.1-1.2,0.2-2.4,0.3-2.7c0.1-0.3,0.2-0.8,0.2-1.1c0-1.3,1.5-5,3-7.1c0.8-1.2,3.3-4,3.6-4c0.1,0,0.6-0.3,1.2-0.7
			c2.5-1.7,5.4-2.7,8.7-3l1.8-0.2l1.8,0.2c4.7,0.5,8,2.1,11.5,5.7c1.7,1.8,2.2,2.4,3.1,4.1c1,2,1.4,3.2,2,5.6l0.3,1.4l0,3.2
			c0,3.4-0.1,4.6-0.6,6.6c-0.9,3.7-2.5,6.8-5,9.3C679.7,968.5,674.5,970.3,668.3,969.7L668.3,969.7z M673.5,967.9
			c5.2-0.8,9.6-4.1,12-9c0.8-1.6,1.6-4,1.9-5.9l0.3-1.6v-5l-0.3-1.6c-0.5-2.8-1.7-5.8-3.1-8c-0.8-1.2-2.6-3.1-3.8-4
			c-2.7-2-6.2-3.1-9.8-3.1c-8.9,0-15.5,6.2-16.9,15.8c-1,6.8,1,13.7,5.2,17.8c3.1,3,6.9,4.6,11.5,4.7
			C671.4,968.1,672.7,968,673.5,967.9L673.5,967.9z M668.3,965.3c-2.3-0.4-4.9-1.6-6.7-3.2c-2.4-2.1-4.3-5.5-5-9.3l-0.2-1.1v-5.3
			l0.2-1.1c0.7-3.6,2.2-6.5,4.5-8.8l1.2-1.2l1.3-0.8c1.5-0.9,3.4-1.6,5-1.8l1.2-0.2l1.6,0.1l1.6,0.1l1.2,0.3c2.5,0.7,5,2.3,6.8,4.3
			c1.8,2.1,2.9,4.5,3.6,7.6l0.3,1.6v5l-0.3,1.6c-0.7,3.1-1.8,5.5-3.6,7.5c-1.8,2.1-4.3,3.7-6.8,4.3l-1.2,0.3l-2,0
			C670,965.4,668.7,965.4,668.3,965.3L668.3,965.3z M674.4,963.2c5.5-1.9,9-7.3,9-14.2v-1.4l-0.4-1.8c-0.5-2.2-0.9-3.3-1.5-4.6
			c-2.2-4.3-6.2-6.8-10.8-6.8c-3.5,0-6.4,1.3-8.8,3.8c-1.2,1.3-1.9,2.4-2.6,4c-0.2,0.6-0.6,1.4-0.7,1.6c-0.1,0.3-0.3,1.1-0.5,2
			l-0.3,1.5l0.2,4.8l0.4,1.5c1.4,5.2,4.8,8.8,9.5,9.9l0.9,0.2l4.2-0.1L674.4,963.2z M547.7,968.8c-0.2,0-0.4-0.2-0.5-0.3
			c-0.1-0.1-2.6-7.5-5.6-16.5c-3-9-5.5-16.5-5.7-16.7c-0.1-0.2-1.8-5.1-3.7-10.8c-5-15.2-4.9-15-4.5-15.3c0.2-0.2,2.4-0.4,4.7-0.4
			l1.5,0l0.2,0.3c0.3,0.4,5.1,14.8,5.1,15.2c0,0.2,2.5,7.7,5.5,16.8l5.5,16.5l0.5,0.1l7.4-22.4c4.1-12.3,7.5-22.6,7.5-22.8
			c0-0.3,0.3-1.2,0.6-2l0.5-1.5l0.8-0.4l5.5,0.1l0.3,0.3l0.3,0.3l0,0.4c0,0.5-1.6,5.2-2.2,6.4c-0.2,0.4-4.3,12.4-9.1,26.5
			c-4.8,14.2-8.9,25.9-9,26l-0.2,0.2l-2.5,0C549.2,968.9,547.9,968.8,547.7,968.8L547.7,968.8z M552,967
			c0.3-0.3,19.3-56.2,19.2-56.4c-0.1-0.2-2.7-0.2-3,0c-0.1,0.1-4,11.5-8.6,25.3c-4.6,13.9-8.5,25.3-8.6,25.5l-0.2,0.3l-0.8-0.1
			l-0.3-0.4c-0.2-0.2-4-11.7-8.5-25.5c-4.5-13.8-8.3-25.1-8.4-25.2c-0.2-0.2-3-0.2-3.1,0c0,0.1,0.5,2,1.3,4.3s5,14.9,9.4,28
			s8,23.9,8.1,24l0.2,0.2h3.2L552,967z M612.1,968.8c-0.2,0-0.4-0.2-0.5-0.3l-0.2-0.2l0-14.7c0-8.1-0.1-16-0.2-17.6
			s-0.2-3.7-0.2-4.6l-0.1-1.7l0.5-0.6h5.2l0.3,0.3l0.3,0.3l0.1,1.7c0,1,0.1,1.8,0.2,1.8c0,0,0.5-0.4,1.1-1c1.8-2,3.6-3.1,5.9-3.7
			l1-0.3l3.4,0l0.8,0.2c0.4,0.1,0.9,0.3,1.1,0.5l0.3,0.3l-0.1,1.1c0,0.6-0.2,1.9-0.3,2.8l-0.2,1.6l-0.3,0.3l-0.3,0.3l-0.7-0.1
			c-0.4-0.1-1.3-0.1-2.1-0.1l-1.5,0l-1.1,0.4c-0.6,0.2-1.4,0.5-1.7,0.6c-2,0.8-4,3.5-4.8,6.6c-0.2,0.7-0.4,2.1-0.5,3l-0.2,1.8v10.5
			v10.5l-0.3,0.2l-0.3,0.2l-2.2,0C613.4,968.9,612.3,968.8,612.1,968.8L612.1,968.8z M615.6,967l0.2-0.2v-21.6l0.2-1.5
			c0.8-4.7,3-8,6.5-9.7c1.2-0.6,2.7-0.9,4.6-1.1l1.5-0.1l0.1-0.5c0.1-0.3,0.2-0.9,0.2-1.4l0.1-0.9l-0.4-0.2c-1.1-0.4-3.9,0-5.7,0.9
			l-1.2,0.6l-2.8,2.8l-0.8,1.4c-0.5,0.8-1,1.5-1.1,1.6l-0.3,0.3l-0.4-0.1c-0.2,0-0.5-0.2-0.6-0.5l-0.2-0.4l-0.1-2.8l-0.1-2.8
			l-0.2-0.2l-0.2-0.2l-1.1,0l-1.1,0l0,2.1c0,1.2,0.1,9.2,0.1,18c0,8.7,0.1,15.9,0.2,16l0.1,0.2h2.1L615.6,967L615.6,967z
			 M637.3,968.7l-0.4-0.2l-0.1-14.4c-0.1-7.9-0.1-16.7-0.2-19.5l0-5l0.3-0.3l0.3-0.3h5.1l0.6,0.6l-0.1,19.3l-0.1,19.3l-0.2,0.3
			l-0.2,0.3l-4.6,0.1L637.3,968.7z M641,949v-18.1l-1.1,0l-1.1,0l-0.4,0.4v35.7l0.4,0.4l2.2-0.1V949z M638,918.8l-0.8-0.4l-0.5-0.7
			c-0.6-0.9-0.9-1.7-0.9-2.8c0-1.2,0.3-2.1,0.9-2.8c0.6-0.8,1.3-1.3,2.2-1.5l0.6-0.2l0.7,0.1c2.1,0.2,3.5,1.8,3.7,4.1l0.1,1
			l-0.5,1.8l-0.6,0.7c-0.3,0.4-0.9,0.8-1.3,1l-0.7,0.3h-2L638,918.8z M640.9,917.3c0.2-0.1,0.5-0.4,0.7-0.7l0.4-0.6l0.1-1.8
			l-0.2-0.5c-0.1-0.3-0.4-0.8-0.7-1.1l-0.5-0.5l-1.7-0.1l-0.5,0.4c-0.3,0.2-0.7,0.6-0.9,0.9l-0.3,0.5v0.9v0.9l0.4,0.7l0.4,0.7
			l1.3,0.7l0.6-0.1C640.4,917.5,640.8,917.4,640.9,917.3L640.9,917.3z M550.2,901.8c0-0.6,7.8-12.1,8.1-11.9c0,0-0.6,0.9-1.3,1.9
			c-1.8,2.4-4.2,5.9-5.6,8.2C550.7,901.1,550.2,901.9,550.2,901.8L550.2,901.8z M603.4,899c-2.4-0.4-4.7-1.4-6.8-2.8
			c-1.4-0.9-3.3-3-4.4-4.5c-2.3-3.5-3.5-7.3-3.7-12.2l-0.1-2.2l0.2-1.6c0.6-5.4,2.5-9.7,5.7-12.9c2.6-2.7,5.5-4.2,8.9-4.8l1.4-0.3
			l4.7,0.2l1.3,0.3c6,1.5,10.3,6.4,12,13.3l0.4,1.6l0.1,3.4l0.1,3.4l-0.3,0.3l-0.3,0.3h-27.9l-0.1,0.2c-0.1,0.3,0.4,2.8,0.8,4.1
			c1.4,4.1,4.5,7.1,8.2,8.1l1,0.3l3.6,0l1.1-0.3c3.2-0.8,6-2.8,7.8-5.5l0.5-0.8h1l3.5,3.2v0.8l-0.9,1.3c-2.5,3.8-6.2,6.1-11.2,7
			l-1.4,0.2l-2,0C605.5,899.2,604.1,899.1,603.4,899L603.4,899z M609.7,897.3c2.6-0.4,5.4-1.5,7.3-3l1.2-0.9l2-2.5v-0.7l-0.8-0.7
			c-0.5-0.4-0.9-0.7-1-0.6c-0.1,0-0.5,0.5-0.9,1s-1.2,1.3-1.8,1.8l-1,0.9l-1.7,0.8c-0.9,0.5-2.2,1-2.7,1.1l-1,0.3H604l-1.2-0.4
			c-1.6-0.5-2.7-1.1-4.1-2.2c-2-1.6-3.7-4-4.6-6.5c-0.5-1.5-1.1-4.2-1.1-5.5v-0.9l0.7-0.5h27.9l0.1-0.4c0.3-1-0.2-5.7-0.8-7.7
			c-1.3-4.6-4.1-8.1-7.9-9.9c-1.7-0.8-2.9-1.1-4.9-1.3l-1.5-0.2l-1.6,0.2c-1.9,0.2-3.1,0.5-4.7,1.2c-4.8,2.2-8.1,6.6-9.5,12.8
			l-0.3,1.5v3.5v3.5l0.3,1.6c0.7,3.2,1.9,5.9,3.5,8l1,1.3l1.2,1C600,897,604.3,898.1,609.7,897.3L609.7,897.3z M593.2,875.8
			c-0.3-0.4-0.3-1,0.1-2.6c0.9-3.5,2.8-6.5,5.3-8.6c1.5-1.2,2.8-1.8,4.4-2.3l1.2-0.3l3.6,0l1.1,0.3c4.7,1.2,8.5,5,9.6,9.8l0.3,1.3
			v2.2l-0.6,0.5h-24.8L593.2,875.8L593.2,875.8z M617.1,873.8c0.1-0.8-0.5-2.8-1.3-4.2l-0.7-1.2l-2.8-2.8l-3-1.4l-2.6-0.5l-1.3,0.1
			c-2.6,0.2-4.2,0.9-6,2.4c-1.3,1.1-2.2,2.2-3.1,3.7c-0.7,1.3-1.7,3.9-1.5,4.3l0.1,0.2l22.1-0.1L617.1,873.8z M644.4,899
			c-7.2-1.3-12.5-6.9-14.1-15c-0.6-3-0.7-7.9-0.1-10.8c1.6-8.1,7.2-14.1,14.3-15.3c1.5-0.3,4.4-0.3,5.9-0.1c5,0.8,9.3,4,11.7,8.7
			c1.7,3.3,2.4,6.6,2.4,11.4v1.9l-0.4,0.6l-28.1,0.2l0,0.5c-0.1,0.7,0.4,2.9,0.9,4.2c1,2.5,2.8,4.8,4.9,6.3c1.4,0.9,2.6,1.3,4.6,1.6
			l1.4,0.2l1.4-0.2c3.7-0.5,7.1-2.5,9.1-5.5l0.7-1h0.9l1.6,1.5c1.8,1.7,2,1.9,2,2.3c0,0.4-1.6,2.6-2.8,3.9l-1.2,1.2l-1.3,0.8
			c-2,1.3-4.4,2.2-7.1,2.7l-1.3,0.2l-2,0C646.6,899.2,645.1,899.1,644.4,899L644.4,899z M650.8,897.3c3.3-0.5,6.1-1.8,8.2-3.8
			c1-0.9,2.4-2.7,2.4-3c0-0.1-0.4-0.5-0.9-1l-0.9-0.8l-0.6,0.8c-2.2,2.6-4.8,4.2-8,5.1l-1.2,0.3h-3.8l-1.1-0.2
			c-2.3-0.5-4-1.4-5.9-3.2l-1.2-1.2l-0.8-1.3c-1.6-2.3-2.3-4.6-2.7-7.9l-0.2-1.6l0.7-0.7l28-0.2l0-5.2l-0.4-1.8
			c-1.5-6.5-5.8-11-11.5-12.2l-1.2-0.2h-3.9l-1.2,0.3c-1.6,0.3-3,0.9-4.5,1.8l-1.2,0.7l-1.3,1.2c-0.7,0.7-1.7,1.7-2.1,2.3
			c-1.6,2.2-3,5.4-3.5,8.5l-0.3,1.6v5.5l0.3,1.6c0.7,4.2,2.3,7.6,4.8,10.1C640.2,896.7,644.8,898.2,650.8,897.3L650.8,897.3z
			 M634.3,875.8l-0.3-0.3l0.1-0.7c0.3-2.1,1.4-4.9,2.7-6.9c1.8-2.8,4.9-5,7.7-5.6l1.1-0.2h3.4l1.2,0.3c3.7,1,6.7,3.4,8.5,7
			c0.6,1.2,1.2,3.3,1.3,4.8l0.1,1.3l-0.7,0.7h-24.8L634.3,875.8L634.3,875.8z M658.3,874.2c0.1-0.3-0.3-2.3-0.8-3.4
			c-0.6-1.5-1.4-2.6-2.6-3.9l-1.2-1.2l-1-0.6c-0.6-0.3-1.6-0.8-2.3-1l-1.2-0.4l-3.8,0l-1,0.3c-3,0.8-5.6,3.2-7.4,6.6
			c-0.6,1.2-1.2,3.2-1.1,3.6l0.1,0.2h22.2L658.3,874.2L658.3,874.2z M567.8,898.3l-0.3-0.2l-0.1-14.1c0-7.7-0.2-16-0.2-18.3
			s-0.1-4.8-0.1-5.5l0.1-1.3l0.6-0.3l4.8-0.2l0.7,0.7v0.7c0,0.4,0,1.2,0.1,1.8l0.1,1.1l1.3-1.3c2-2.1,3.7-3.1,6.1-3.6l1.2-0.3
			l1.8,0.1c1,0,2,0.2,2.3,0.3l0.6,0.2l0.3,0.8l-0.2,1.8c-0.2,1.6-0.5,3.3-0.7,3.6c0,0.1-0.9,0.1-2,0.1l-1.9,0l-1.1,0.2
			c-0.6,0.1-1.6,0.5-2.2,0.8l-1.1,0.6L576,868l-0.6,1.2c-0.3,0.7-0.8,1.7-0.9,2.2c-0.2,0.5-0.4,1.2-0.5,1.5
			c-0.1,0.3-0.3,1.3-0.4,2.3l-0.2,1.8v10.5V898l-0.3,0.1c-0.2,0.1-1.4,0.2-2.7,0.2l-2.4,0.1L567.8,898.3L567.8,898.3z M571.9,885
			l0.1-11.6l0.4-1.6c0.8-2.9,1.8-4.7,3.5-6.3c1.3-1.2,2.3-1.8,4-2.4l1.2-0.4l1.8-0.1c1,0,1.8-0.1,1.8-0.2c0-0.1,0.1-0.7,0.2-1.4
			l0.2-1.3l-0.1-0.1c-0.1-0.1-0.8-0.1-1.6-0.1l-1.5,0l-1,0.2c-2.8,0.7-4.9,2.5-7,5.9l-0.8,1.3l-1,0.1l-0.3-0.4l-0.3-0.4l-0.1-2.5
			c0-1.4-0.1-2.7-0.1-2.9l-0.1-0.4l-1.2,0l-1.2,0l0,2c0,1.1,0.1,9.2,0.1,17.9c0,8.7,0.1,15.9,0.2,16l0.1,0.2l2.4-0.1L571.9,885z
			 M527.9,898.1l-0.3-0.2l-0.1-8.6c0-4.7-0.1-17.9-0.2-29.2l-0.1-20.6l0.2-0.6l0.2-0.6h32.2l0.3,0.2l0.3,0.2v5.7l-0.5,0.4l-25.8,0.2
			l0,9.3l0,9.3l0.4,0.4l23.7,0.1l0.4,0.7l0.1,2.6l0.1,2.6l-0.6,0.8l-1.3,0c-2.3-0.1-15.4,0-19.2,0l-3.5,0.1l-0.1,13.4l-0.1,13.4
			l-0.5,0.7h-5.4L527.9,898.1L527.9,898.1z M532.4,883l0.1-13.5l0.2-0.3l0.2-0.3h23.8l0.4-0.4V866l-0.2-0.1c-0.1,0-5.5-0.1-12-0.1
			l-11.8,0l-0.7-0.6v-21.3l0.4-0.6l26-0.2v-3h-29.5l0,28c0,15.4,0,28.1,0,28.2l0.1,0.2l2.9-0.1L532.4,883z M539.5,892.4
			c0.6-1.3,7.6-11.4,8.5-12.2l0.2-0.2l-0.1,0.2c-0.1,0.1-1,1.4-2,2.7s-2.9,4-4.2,6s-2.4,3.6-2.5,3.8l-0.2,0.3L539.5,892.4z
			 M619.7,846.5l-0.2-0.4l0.2-0.4c0.1-0.2,0.4-0.5,0.6-0.6l0.4-0.2l1.1,0.3l0.4,0.5c0.2,0.3,0.4,0.6,0.3,0.6s-0.2-0.1-0.4-0.4
			c-0.7-0.9-1.5-1.1-2-0.5l-0.3,0.3l0.1,0.5C620,847,619.9,847.1,619.7,846.5L619.7,846.5z M636.2,843.6c0-0.1,0.5-0.3,3.6-1.7
			c2.3-1,5.5-2.7,5.5-3v-0.2l-1,0.1c-0.5,0-2,0.2-3.2,0.3s-2.8,0.2-3.5,0.3s-1.8,0.2-2.5,0.2H634l-0.8-0.7l-0.6-1.6
			c-0.3-0.9-0.6-1.6-0.7-1.7c-0.1-0.1-0.4,0-0.8,0.1l-0.7,0.2l-1-0.4l-0.1-0.4c0-0.2,0-0.5,0-0.7c0.1-0.3,1.9-1.6,3.2-2.3
			c0.5-0.2,1.5-0.8,2.4-1.4l1.6-1l1.2-0.1l1,0.6v0.4c0,0.6-0.2,0.8-1.4,1.6c-0.5,0.4-1,0.7-1,0.8c0,0.2,1.7,3.3,1.9,3.5l0.2,0.2
			l1.9-0.2c1-0.1,3.5-0.5,5.4-0.9l3.6-0.7l3.9-1.3l1-0.8c0.6-0.5,2.1-1.8,3.3-2.9s2.3-2,2.4-2c0.1,0.1-2.2,2.2-5,4.6l-1.5,1.3
			l-2,0.6c-1.9,0.6-2.8,0.8-7.3,1.6c-2.6,0.5-5.8,0.9-6,0.8c-0.1,0-0.5-0.7-0.9-1.4c-0.4-0.8-0.9-1.7-1.1-2l-0.4-0.7l1-0.7
			c1.8-1.2,2-1.5,1.4-2l-0.3-0.3h-1.3l-1.1,0.7c-0.6,0.4-1.7,1-2.5,1.4c-1.6,0.9-3,1.8-3.4,2.2l-0.3,0.3l0.5,0.8h0.6
			c0.3,0,0.8-0.1,1-0.2s0.5-0.2,0.6-0.1c0.1,0.1,0.3,0.7,0.5,1.4c0.2,0.7,0.6,1.6,0.8,2l0.3,0.7l1.1,0.3l2.6-0.2
			c2.9-0.3,8.2-0.7,8.7-0.7h0.4l-0.5,0.4c-1.5,1-4.1,2.4-6.6,3.5C636.6,843.6,636.2,843.7,636.2,843.6L636.2,843.6z M646.4,842.2
			c0,0,0.7-0.5,1.6-1c0.9-0.5,2.3-1.3,3.2-1.9l1.6-1l0.8,0.2c0.4,0.1,1.9,0.2,3.3,0.2l2.5,0l3.2-0.7l3.8-1.6l0.2-0.4l0.2-0.4
			l-0.2-0.5c-0.3-0.6-1.3-1.4-2.2-1.6c-0.3-0.1-1.5-0.2-2.6-0.3l-2-0.2l1.1-0.9c0.6-0.5,1.8-1.6,2.7-2.5s1.6-1.5,1.6-1.4
			c0,0.1-1,1.1-2.2,2.3c-1.2,1.2-2.2,2.2-2.1,2.3c0,0.1,0.7,0.2,1.3,0.2c0.7,0,1.7,0.2,2.2,0.4l1,0.3l1.5,1.5v0.5
			c0,0.3-0.1,0.6-0.2,0.7c-0.3,0.4-3.7,1.8-5.3,2.2l-1.4,0.3l-1.9,0.1c-1,0-2.7,0-3.6-0.1l-1.7-0.2l-1.3,0.8
			c-1.7,1.1-4.7,2.7-4.8,2.7C646.4,842.2,646.4,842.2,646.4,842.2L646.4,842.2z M647.2,839.8c0.3-0.2,0.7-0.4,0.9-0.5l0.4-0.1
			l-0.8,0.5C646.8,840.3,646.4,840.4,647.2,839.8L647.2,839.8z M634.9,837.9c-0.2-0.1-1.3-2.8-1.3-3.1c0-0.1,1.5-0.7,1.5-0.7
			c0.2,0.2,1.9,3.5,1.8,3.6C636.7,837.9,635.1,838,634.9,837.9L634.9,837.9z M655.6,836.8c0.4-0.5,0.4-0.8-0.1-1.2
			c-0.2-0.2-0.3-0.4-0.3-0.5c0.2-0.1,2.3-0.4,4-0.5c1.4-0.1,4.1,0.1,5,0.4l0.5,0.2l-0.1,0.2c-0.1,0.3-2.4,1.2-3.9,1.5l-1.4,0.3h-4
			L655.6,836.8L655.6,836.8z M658.2,832.1c0.6-0.6,2.2-2,3.4-3.2c1.2-1.2,2.5-2.3,2.8-2.6l0.5-0.5l-0.6,0.8c-1.5,1.8-6.6,6.5-7,6.5
			h-0.3L658.2,832.1L658.2,832.1z"/>
		<path class="st14" d="M601.5,1018.4c-1.3,0-2.2-0.1-2-0.2c0.2,0-0.5-0.1-1.7-0.2c-17-0.9-35.2-6.1-50.5-14.2
			c-35.8-19.1-60.2-54.3-65.3-94.3c-0.4-2.9-0.8-7.5-0.8-9l0-1l-0.2,0.8l-0.1-3.3c0-1.8,0-4.8,0-6.6l0.1-3.3l0.2,0.8l0-1
			c0-1.5,0.4-6.1,0.8-9c1.9-14.7,6.5-29.5,13.5-42.5c17.7-33.2,49.2-56.7,85.8-64c5.3-1.1,11.8-1.9,16.6-2.1l2.1-0.1l-0.5-0.1
			c-0.3,0,0.9-0.1,2.7-0.2c3.4-0.1,10.4,0,9.7,0.2l-0.5,0.1l2.1,0.1c4.7,0.2,11.2,1.1,16.6,2.1c24.2,4.8,46.3,16.6,63.8,34.1
			c19.6,19.6,32.1,45,35.5,72.3c0.4,2.9,0.8,7.5,0.8,9l0,1l0.2-0.8l0.1,3.3c0,1.8,0,4.8,0,6.6l-0.1,3.3l-0.2-0.8l0,1
			c0,0.6-0.1,2.2-0.2,3.8c-1.7,19.2-7.4,37-17.3,53.5c-15.8,26.4-41.2,46.2-70.4,55.1c-9.2,2.8-19.9,4.7-28.7,5.2l-2.1,0.1l0.9,0.2
			l-1.4,0c-0.8,0-2.7,0-4.2,0.1C605.2,1018.5,602.9,1018.5,601.5,1018.4L601.5,1018.4z M612.7,1013.2c16.1-1,30.9-4.9,45.1-11.7
			c16.4-7.9,31-19.7,42.4-34.3c14.9-19.1,23.7-42.3,25.1-66.7c0.2-3.4,0.2-10.5,0-13.9c-1.7-29.1-13.8-56.2-34.2-77
			c-4.9-4.9-8.8-8.4-14-12.2c-17.4-12.9-38.1-21-59.5-23.1c-7.8-0.8-16.2-0.8-23.9,0c-18.5,1.8-36.3,8-52.2,18
			c-12.8,8.1-24.5,19.2-33.5,31.8c-13.1,18.3-20.6,39.7-22,62.5c-0.2,3.3-0.2,10.4,0,13.7c1.8,29.3,13.6,56.1,34.1,76.9
			c7,7.1,13.8,12.6,21.7,17.6c16.9,10.7,36.3,16.9,56.5,18.2C601.3,1013.4,609.8,1013.4,612.7,1013.2L612.7,1013.2z M582.1,969.6
			c-0.3,0-1.1-0.2-1.8-0.4l-1.3-0.3l-1.3-0.6c-2.8-1.4-4.9-3.9-5.8-6.9l-0.3-0.9l-0.2-4.2l0.3-1.3c0.3-1.7,0.7-2.7,1.5-3.8
			c2.1-3.2,5.8-5.3,10.7-6.2c1.8-0.3,6.2-0.6,9.6-0.7l2,0l0-1.4l0-1.4l-0.2-1.2c-0.1-0.6-0.5-1.6-0.7-2.1l-0.5-1l-0.8-0.7
			c-0.9-0.8-2.3-1.5-3.7-1.9l-1-0.3h-4.2l-1.2,0.3c-1.7,0.5-3.8,1.5-5.3,2.8c-1.2,1-1.6,1.2-2,0.9c-0.3-0.2-2.7-3.4-2.8-3.8
			l-0.1-0.4l0.7-0.7c2.6-2.5,6.2-4.2,10.2-4.9l1.5-0.2l2.3,0.1l2.3,0.1l1.5,0.4c2.7,0.7,4.8,1.9,6.4,3.7l1,1l0.7,1.4
			c0.7,1.5,1.1,2.6,1.3,4.4l0.2,1.1l0.3,23.3l0.5,4.4l-0.5,0.7h-4.5l-0.3-0.2l-0.3-0.2l-0.2-1.7c-0.1-0.9-0.2-1.8-0.2-1.8
			c0-0.3-0.5-0.1-0.9,0.5c-0.9,1-2.5,2.3-3.6,2.9c-1.3,0.7-2.2,1-3.9,1.3l-1.3,0.2l-1.7,0C583.3,969.6,582.4,969.6,582.1,969.6
			L582.1,969.6z M588.3,967.8c0.7-0.2,1.7-0.6,2.3-0.9l1.1-0.6l2.4-2.3l0.8-1.4c0.9-1.4,1.2-1.7,1.7-1.4c0.4,0.2,0.4,0.4,0.5,3
			c0,1.2,0.1,2.3,0.2,2.6l0.1,0.5h2.5l0-0.6c0-0.3-0.1-2-0.2-3.6l-0.2-3v-8.3c0-4.5-0.1-9.3-0.2-10.5l-0.2-2.2l-0.3-1.2
			c-0.2-0.7-0.6-1.8-0.9-2.5l-0.6-1.3l-1.2-1.2l-1.2-1.2l-1.3-0.7c-0.7-0.4-1.9-0.8-2.7-1l-1.3-0.3l-4.4-0.2l-1.5,0.3
			c-3,0.5-6.1,1.8-8.2,3.5l-0.9,0.7v0.3c0,0.4,1.2,2.1,1.5,2.1c0.1,0,0.8-0.4,1.4-0.8c2.2-1.5,4.3-2.4,6.9-2.8l1.3-0.2l1.5,0.1
			c2.5,0.2,4.4,0.8,6.1,2c1.2,0.8,1.8,1.5,2.5,2.9l0.5,1.1l0.5,2.4v4l-0.2,0.2l-0.2,0.2h-2.8c-3.3,0-7.2,0.2-9.2,0.6
			c-4.2,0.7-7.5,2.3-9.5,4.7c-1,1.2-1.4,2.2-1.8,3.8l-0.3,1.3v1.6v1.6l0.2,1.2l0.2,1.2l1.2,2.3l2.4,2.4l1.3,0.6
			c1.1,0.5,2.1,0.8,4,1.2c0.2,0,1.4,0,2.6,0l2.2,0L588.3,967.8L588.3,967.8z M582.5,965.1c-2.9-0.7-5.1-2.4-6.1-4.9l-0.3-0.8
			L576,958l-0.1-1.3l0.3-1c0.4-1.5,0.8-2.2,1.8-3.3c1-1.1,2.5-2,4.2-2.7c2.5-1,4.8-1.3,10.2-1.4l3.9-0.1l0.8,0.5v4.4l-0.2,1.7
			c-0.4,2.7-1.1,4.5-2.4,6.3c-1.3,1.8-3.7,3.3-6.1,3.9l-1.2,0.3l-3.6,0.1L582.5,965.1z M586.7,963.7c3.3-0.5,6-2.2,7.5-5
			c1-1.8,1.5-4.5,1.5-7.3v-1.6l-0.3-0.2l-0.3-0.2l-3.2,0.1c-6.3,0.2-9.3,0.9-11.8,2.8L579,953l-0.6,0.8l-0.6,0.8l-0.2,0.9
			c-0.8,3.1,0.5,6,3.3,7.3C582.5,963.8,584.3,964,586.7,963.7L586.7,963.7z M667.5,969.5c-2.5-0.5-4.7-1.3-6.8-2.7l-1.4-0.9
			l-1.3-1.3c-2.8-2.8-4.6-6.3-5.5-10.6l-0.3-1.5l-0.1-2.7l-0.1-2.7l0.3-1.6c0.1-0.9,0.3-2.1,0.4-2.7c0.4-2.9,3-7.6,5.3-9.7
			c0.9-0.8,3.3-2.4,4.7-3.1c1.4-0.7,3.2-1.2,4.9-1.5l1.5-0.2l4.5,0.2l1.3,0.3c3.7,0.9,6.7,2.7,9,5.4c0.5,0.5,1,1,1.1,1.1
			c0.9,0.5,3,4.9,3.8,8l0.3,1.4l0,7.2l-0.3,1.6c-1.4,8.1-6.7,14-14,15.9l-1.3,0.3l-2.5,0.1l-2.5,0.1L667.5,969.5L667.5,969.5z
			 M673.3,968.1c3.5-0.5,6.6-2.1,9.1-4.6c2.7-2.7,4.4-6.1,5.2-10.4l0.3-1.5v-5.3l-0.3-1.5c-1.1-6.2-4.4-11-9.4-13.5
			c-4.4-2.2-10.7-2.2-15.2,0c-2.8,1.4-5.3,3.9-7,6.9c-3.4,6-3.4,15.4,0,21.3c1,1.8,1.4,2.3,2.7,3.7c2.5,2.6,5.3,4.1,8.7,4.7
			C668.9,968.3,671.8,968.3,673.3,968.1L673.3,968.1z M668.2,965.1c-2.8-0.5-5.3-1.9-7.4-4c-2-2.1-3.3-4.8-4.1-8.1l-0.3-1.3v-5.3
			l0.3-1.3c0.8-3.6,2.3-6.4,4.5-8.5c1.3-1.2,2.2-1.8,3.8-2.6c1.7-0.8,3-1.1,4.9-1.2l1.6-0.1l1.5,0.2c6.1,1.1,10.5,5.8,11.7,12.5
			l0.3,1.5v4.4l-0.3,1.5c-0.3,1.5-1,3.7-1.6,5C680.2,963.1,674.1,966.2,668.2,965.1L668.2,965.1z M674,963.4
			c2.2-0.6,3.9-1.7,5.7-3.6l1.1-1.2l0.7-1.3c1.2-2.2,1.8-4.5,2-7.4c0.1-1.6,0-3-0.7-5.4l-0.5-1.9l-0.6-1.3c-1.6-3.4-4.5-5.8-7.9-6.7
			l-1.2-0.3h-3.8l-1.2,0.3c-3.7,1-6.6,3.6-8.2,7.3c-0.3,0.7-0.6,1.4-0.8,1.7c-0.1,0.2-0.3,0.9-0.5,1.6l-0.3,1.2v5.3l0.3,1.4
			c1.3,5.8,5,9.6,10.1,10.6l1.1,0.2l3.4-0.1L674,963.4L674,963.4z M547.3,968.4c-0.1-0.2-2.7-7.7-5.7-16.6c-3-8.9-5.5-16.4-5.6-16.5
			c-0.3-0.3-7.2-21.2-7.2-21.6c0-0.2-0.2-1-0.5-2s-0.5-1.8-0.5-2.1v-0.4l0.3-0.2c0.2-0.1,1.5-0.2,3.1-0.3l2.8-0.1l0.3,0.3
			c0.3,0.3,4.8,13.9,5,15c0.1,0.9,10.8,33.5,11.1,33.7c0.1,0.1,0.2,0.1,0.3,0.1l0.2-0.1l7.5-22.4c4.1-12.3,7.5-22.6,7.5-22.8
			c0-0.5,0.9-3.1,1.2-3.4l0.3-0.3h5.8l0.3,0.3c0.1,0.2,0.3,0.4,0.3,0.6c0,0.4-1.9,5.9-2.1,6.2c-0.1,0.1-4.2,12-9.1,26.4l-8.9,26.2
			l-0.3,0.2l-0.3,0.2h-5.2L547.3,968.4z M552.2,967.1c0.1-0.1,4.5-12.8,9.7-28.3l9.6-28.1l-0.2-0.5h-3.1l-0.2,0.3
			c-0.1,0.2-3.9,11.4-8.4,24.9c-4.5,13.5-8.2,24.8-8.4,25.2c-0.3,0.9-1.1,1.1-1.4,0.3c-0.1-0.2-3.9-11.6-8.4-25.3
			s-8.3-25.1-8.4-25.2l-0.2-0.2h-3.2l-0.1,0.2c-0.1,0.2,18.6,56.3,18.9,56.6l0.2,0.2h3.5L552.2,967.1z M611.8,968.5l-0.2-0.2
			l-0.2-32.8l-0.2-1.6c-0.1-0.9-0.2-2.1-0.2-2.8l-0.1-1.3l0.5-0.8h5.1l0.6,0.4l0,1.8c0,1,0.1,1.8,0.2,1.9l0.1,0.1l1.3-1.4
			c2-2.1,3.6-3.1,6-3.6l1.2-0.3l1.7,0.1c2,0.1,2.8,0.3,3.1,0.7l0.2,0.3l-0.6,5.3l-0.2,0.2l-0.2,0.2l-3.3-0.2l-1.1,0.2
			c-0.6,0.1-1.5,0.4-1.9,0.6c-0.5,0.2-0.9,0.4-1.1,0.4c-0.4,0-1.9,1.3-2.6,2.2c-0.9,1.2-1.6,2.6-2.1,4.4l-0.4,1.5l-0.2,24.1
			l-0.2,0.3l-0.2,0.3h-4.7L611.8,968.5z M615.7,967.1l0.2-0.2v-21.6l0.2-1.5c0.3-1.9,1-4,1.8-5.4l0.6-1.1l1.2-1.2l1.2-1.2l1.3-0.6
			c1.5-0.8,2.8-1.1,4.9-1.2l1.5-0.1l0.1-0.4c0.1-0.2,0.2-0.8,0.2-1.4l0.1-1L629,930l-0.1-0.2l-2.6-0.1l-1.1,0.2
			c-2.9,0.6-5.5,2.7-7.5,6c-0.4,0.7-0.8,1.3-1,1.3c-0.3,0.1-0.7,0-0.9-0.4l-0.2-0.3l-0.1-2.8l-0.1-2.8l-0.2-0.2l-0.2-0.2l-2.5,0.1
			l0,2.4c0,1.3,0.1,9.5,0.1,18.1c0.1,8.6,0.1,15.8,0.2,15.9l0.1,0.2h2.5L615.7,967.1L615.7,967.1z M637.1,968.5l-0.2-0.3l-0.1-19.3
			l-0.1-19.3l0.3-0.2l0.3-0.2h5l0.3,0.2l0.3,0.2l0,5.7c0,3.1-0.1,11.9-0.1,19.4l-0.1,13.7l-0.3,0.2l-0.3,0.2h-4.7L637.1,968.5z
			 M641,967.2l0.2-0.1v-36.3l-0.2-0.1c-0.1,0-0.7-0.1-1.3-0.1h-1l-0.4,0.4v36l0.4,0.4h1C640.2,967.3,640.8,967.3,641,967.2
			L641,967.2z M638.5,919c-0.3-0.1-0.9-0.4-1.2-0.7l-0.6-0.5l-0.4-0.9l-0.4-0.9l0-2.5l0.4-0.8c0.5-0.9,1.5-1.9,2.3-2.1
			c0.3-0.1,0.9-0.2,1.3-0.2h0.8l1.7,0.8l0.5,0.6c0.2,0.3,0.6,0.9,0.7,1.3l0.3,0.7l-0.1,1.2l-0.1,1.2l-0.3,0.5
			c-0.4,0.8-1.1,1.5-1.9,1.9l-0.6,0.3l-1.7,0.1L638.5,919L638.5,919z M640.6,917.6c0.3-0.1,0.7-0.5,1-0.8l0.5-0.6l0.1-0.6
			c0.1-0.3,0.1-0.9,0-1.4l-0.1-0.8l-0.4-0.6c-0.2-0.3-0.6-0.7-0.9-0.8l-0.5-0.2l-1.7,0.1l-0.5,0.5c-0.6,0.6-1.1,1.5-1.1,2.2
			C637.2,916.9,638.9,918.3,640.6,917.6L640.6,917.6z M604.8,899.1c-4.2-0.4-7.5-2-10.5-5c-2.6-2.6-4.3-6-5.3-10.6l-0.3-1.3v-7.3
			l0.4-1.6c2-8.8,7.8-14.5,15.6-15.3l1.7-0.2l1.6,0.2c1.9,0.2,3.2,0.5,4.7,1.1c5.3,2.2,9,7.2,10.1,13.7l0.3,1.6l0,5.9l-0.2,0.2
			l-0.2,0.2H595l-0.5,0.5l0.1,0.3c0,0.2,0.2,0.8,0.2,1.4c0.4,2.3,1.3,4.5,2.8,6.4l0.9,1.2l1.1,0.9c1.4,1.1,2.8,1.8,4.2,2.1l1.1,0.2
			h3.4l1.2-0.3c3.1-0.8,5.7-2.6,7.6-5.3c0.6-0.9,1-1.2,1.3-1c0.1,0.1,1,0.8,1.9,1.7l1.7,1.6v0.3c0,0.3-1.3,2.2-2.3,3.4
			c-1.6,1.9-4.2,3.6-7,4.5C610.6,899,607.2,899.3,604.8,899.1L604.8,899.1z M608.4,897.7c3.1-0.3,6-1.3,8.1-2.7
			c1.2-0.8,3.1-2.9,3.7-3.8l0.4-0.7l-0.9-0.9c-0.5-0.5-1-0.9-1.1-0.9c-0.1,0-0.6,0.4-1,1c-2.1,2.5-5,4.2-8.1,4.9l-1.1,0.2h-1.6
			c-1.8,0-3.5-0.3-4.7-0.8c-3.5-1.4-6.5-4.7-7.8-8.7c-0.4-1.2-1-4.1-1-5.1v-0.8l0.7-0.5h27.9l0.1-0.4c0.1-0.6-0.1-4.4-0.3-5.9
			c-1.1-6.2-5-11.1-10.3-12.8l-1.3-0.4l-3.4-0.3l-1.6,0.2c-3.6,0.4-6.6,1.8-9.1,4.2c-2.6,2.6-4.3,5.7-5.2,9.7l-0.3,1.4l-0.2,5.5
			l0.2,1.6c0.4,3.1,1.3,6,2.7,8.3l0.8,1.4l1.3,1.4c3,3.2,6.3,4.6,11.2,5C606.5,897.8,607.4,897.8,608.4,897.7L608.4,897.7z
			 M593.4,875.7c-0.3-0.4-0.3-0.8,0.1-2.3c0.4-1.7,1-3.2,2-4.8l0.8-1.3l1.3-1.3c2.7-2.7,5-3.7,8.7-3.7l1.7,0l1.2,0.3
			c1.4,0.4,3.6,1.5,4.8,2.4c0.5,0.4,1.3,1.2,1.8,1.8l0.9,1.1l0.8,1.6c0.9,1.9,1.2,3,1.3,4.8l0.1,1.3l-0.5,0.5h-24.6L593.4,875.7z
			 M617.2,874.3l0.2-0.2l-0.2-1.1c-0.4-2.4-1.7-4.7-3.6-6.5c-1.3-1.2-2.4-1.9-4-2.5l-1.2-0.4h-4.7l-1,0.3c-3.5,1.2-6.4,4.4-7.7,8.5
			l-0.5,1.5l0.4,0.5h22L617.2,874.3L617.2,874.3z M645.9,899.1c-5.5-0.5-10.2-3.6-13.1-8.5c-2.4-4-3.5-10-2.8-15.4
			c0.4-3.1,1.1-5.3,2.4-8c2.2-4.4,6.2-7.7,10.6-8.9c0.6-0.2,1.9-0.4,2.8-0.5l1.7-0.2l1.7,0.2c3.9,0.4,7,1.8,9.7,4.5
			c2.8,2.8,4.5,6.4,5.2,10.8l0.2,1.5v5.3l-0.4,0.4h-27.8l-0.2,0.2c-0.3,0.3-0.2,0.8,0.2,2.7l0.4,1.7l0.6,1.3c0.8,1.8,1.8,3,3.1,4.3
			l1.1,1l1.3,0.6c0.7,0.3,1.8,0.7,2.4,0.8l1.1,0.2l3.3,0l1.2-0.3c1.3-0.3,3.4-1.3,4.5-2c1-0.7,2.3-2.1,3.1-3.2
			c0.4-0.5,0.8-1,0.9-1.1c0.4-0.1,0.8,0.2,2.5,1.8l1.6,1.5v0.4c0,0.9-2.9,4.4-4.9,5.8c-2.2,1.5-5.5,2.7-8.8,3
			C647.7,899.2,647.8,899.2,645.9,899.1L645.9,899.1z M651.3,897.4c2.5-0.4,4.8-1.3,6.6-2.8c1.6-1.2,3.6-3.5,3.6-4.2
			c0-0.3-1.7-1.8-2-1.8c-0.1,0-0.5,0.3-0.8,0.8c-1.7,2.3-5,4.4-8.3,5.1l-1.2,0.3l-4.1-0.2l-0.9-0.3c-4.8-1.3-8.5-5.7-9.6-11.3
			c-0.2-0.8-0.3-2-0.4-2.5l-0.1-1l0.2-0.3l0.2-0.3l28.2-0.2l0-5.3l-0.3-1.3c-1.1-5.4-4-9.5-8.3-11.7c-1.4-0.7-3-1.1-5-1.4l-1.6-0.2
			l-1.1,0.1c-4,0.4-6.7,1.5-9.5,4.2c-3.5,3.2-5.5,8.2-5.8,14l-0.1,2l0.2,1.7c0.6,5.8,2.7,10.1,6.2,13.1
			C641.3,897.3,645.8,898.3,651.3,897.4L651.3,897.4z M634.5,875.7l-0.3-0.3l0.1-0.6c0.7-3.9,2.6-7.4,5.4-9.8l1-0.8l2.8-1.4l2.2-0.5
			l3.3,0l1.2,0.3c5.3,1.4,9.2,6,9.7,11.7l0.1,1.1l-0.7,0.7h-24.5L634.5,875.7z M658.3,873.5c0-2.3-1.9-5.7-4.1-7.5
			c-1.1-0.9-3-1.9-4.4-2.2l-0.9-0.2h-3.3l-2.5,0.6l-1,0.6c-2.1,1.3-3.9,3.2-5.1,5.7c-0.8,1.5-1.3,3.3-1.1,3.7l0.1,0.3l22.3-0.1
			L658.3,873.5L658.3,873.5z M568,898.3c-0.2-0.1-0.4-0.3-0.5-0.5l-0.2-0.4l0.4-1.6l-0.1-8c0-4.4-0.2-11.8-0.3-16.5
			s-0.2-9.2-0.2-10.1l0-1.7l0.2-0.3l0.2-0.3l0.7-0.1c0.4,0,1.6-0.1,2.6-0.2l1.8-0.1l0.7,0.7v1.6c0,0.9,0.1,1.7,0.1,1.8l0.1,0.2
			l1.2-1.3c1.3-1.4,2.5-2.3,4-3c1.9-0.9,4.8-1.2,6.7-0.7l0.9,0.2l0.3,0.3l0.3,0.3l-0.2,2c-0.3,2.3-0.6,3.5-0.9,3.7
			c-0.1,0.1-0.5,0.1-0.8,0c-0.6-0.1-2.9,0-4,0.3c-0.4,0.1-1.3,0.4-1.9,0.7l-1.2,0.5l-2.1,2.1l-0.6,1c-0.3,0.6-0.7,1.5-1,2.2
			s-0.5,1.5-0.7,1.9l-0.3,0.7l-0.2,24.1l-0.2,0.2c-0.1,0.1-0.8,0.2-1.6,0.2s-1.9,0.1-2.3,0.2C568.8,898.4,568.2,898.4,568,898.3
			L568,898.3z M572,885.1l0.1-11.6l0.3-1c1.1-4.6,3.2-7.3,6.5-8.8c1.4-0.6,2.3-0.8,4.3-0.9l1.7-0.1l0.1-0.5c0.1-0.3,0.2-1,0.2-1.6
			l0.1-1.1l-0.4-0.1c-0.5-0.2-3-0.1-3.9,0.1c-0.5,0.1-1.3,0.4-2,0.7l-1.2,0.5l-1.4,1.3c-1.3,1.2-1.6,1.7-3,3.9l-0.5,0.8l-0.7,0.1
			l-0.5-0.8l-0.1-2.5c0-1.4-0.1-2.7-0.1-2.9l-0.1-0.4l-2.7,0.1l0,2.3c0,1.2,0.1,9.4,0.1,18s0.1,15.9,0.2,16l0.1,0.2l2.7-0.1
			L572,885.1z M527.8,897.8l-0.2-0.3l-0.1-29.3l-0.1-29.3l0.4-0.5h32.3l0.2,0.3l0.2,0.3v5.2l-0.5,0.5h-25.7l-0.4,0.4l0.1,7.5
			c0,4.1,0.1,8.3,0.2,9.4l0.1,1.9l1.5,0.1c0.8,0.1,6.1,0.1,11.7,0.1h10.2l0.8,0.4l0.1,1.8c0.1,1,0.1,2.1,0.2,2.5
			c0.1,0.8-0.1,1.7-0.4,1.7c-0.1,0-3.7,0-8.1,0s-9.7,0-12,0.1l-4.1,0.1l-0.1,8.7c-0.1,4.8-0.2,10.8-0.2,13.5l-0.1,4.8l-0.2,0.2
			l-0.2,0.2H528L527.8,897.8z M532.5,883.2l0-13.5l0.5-0.6h23.8l0.4-0.4v-2.9l-0.6-0.3H533l-0.5-0.5v-21l0.5-0.7h25.9l0.1-0.3
			c0-0.2,0.1-1,0-1.7l0-1.3l-29.7-0.1l-0.1,0.2c-0.1,0.2-0.2,56,0,56.4l0.1,0.2l3.2-0.1L532.5,883.2z M645.3,838.8
			c0-0.1,0.2-0.2,0.4-0.2h0.4l-0.2,0.2C645.6,839,645.3,839,645.3,838.8z M634.7,837.4c-0.3-0.9-0.9-2.5-0.9-2.6
			c0-0.1,1.2-0.7,1.3-0.6c0.2,0.2,1.8,3.3,1.7,3.4c0,0-0.5,0.1-1,0.2l-0.9,0.1L634.7,837.4z M655.9,837.1l-0.4-0.1l0.2-0.1
			c0.1-0.1,0.2-0.4,0.2-0.7v-0.5l-0.3-0.2l-0.3-0.2l0.5-0.1c3.3-0.6,7.7-0.5,8.5,0.2l0.3,0.2l-0.8,0.3
			C661.2,836.9,657.5,837.5,655.9,837.1L655.9,837.1z M631.8,835.4c0-0.1,0.1-0.2,0.2-0.2c0.1,0,0.2,0.1,0.2,0.2s-0.1,0.2-0.2,0.2
			C631.9,835.5,631.8,835.4,631.8,835.4z M660.1,833c0-0.2,0.3-0.3,0.5-0.2l0.2,0.2l-0.3,0.1C660.3,833.1,660.1,833.1,660.1,833
			L660.1,833z M657.5,833c0,0,0.1-0.1,0.2-0.2l0.2-0.2v0.2c0,0.1-0.1,0.2-0.2,0.2S657.5,833,657.5,833L657.5,833z M659.3,831.3
			c0.7-0.7,1.8-1.7,2.4-2.2l1.1-1l-0.8,0.8c-0.4,0.5-1.5,1.5-2.4,2.2l-1.6,1.4L659.3,831.3z"/>
	</g>
	<g class="st15">
		<path d="M481.8,1032.3h19.8v6h-12.4v7.4h11.6v6h-11.6v13h-7.3V1032.3z"/>
		<path d="M505.9,1048.9c0-3.5-0.1-5.7-0.2-7.7h6.3l0.2,4.3h0.2c1.2-3.4,4.1-4.8,6.3-4.8c0.7,0,1,0,1.5,0.1v6.9
			c-0.5-0.1-1.2-0.2-2-0.2c-2.7,0-4.5,1.4-5,3.7c-0.1,0.5-0.1,1.1-0.1,1.6v11.9h-7.3V1048.9z"/>
		<path d="M529.4,1055.3c0.2,3,3.2,4.5,6.6,4.5c2.5,0,4.5-0.3,6.5-1l1,4.9c-2.4,1-5.3,1.4-8.5,1.4c-8,0-12.5-4.6-12.5-12
			c0-6,3.7-12.5,11.9-12.5c7.6,0,10.5,5.9,10.5,11.7c0,1.2-0.1,2.4-0.2,2.9H529.4z M538,1050.3c0-1.8-0.8-4.8-4.1-4.8
			c-3.1,0-4.3,2.8-4.5,4.8H538z"/>
		<path d="M554.7,1055.3c0.2,3,3.2,4.5,6.6,4.5c2.5,0,4.5-0.3,6.5-1l1,4.9c-2.4,1-5.3,1.4-8.5,1.4c-8,0-12.5-4.6-12.5-12
			c0-6,3.7-12.5,11.9-12.5c7.6,0,10.5,5.9,10.5,11.7c0,1.2-0.1,2.4-0.2,2.9H554.7z M563.3,1050.3c0-1.8-0.8-4.8-4.1-4.8
			c-3.1,0-4.3,2.8-4.5,4.8H563.3z"/>
		<path d="M582.3,1064.7l-10.4-32.4h8l3.9,13.7c1.1,3.8,2.1,7.5,2.9,11.6h0.1c0.8-3.9,1.8-7.7,2.9-11.4l4.1-13.8h7.8l-10.9,32.4
			H582.3z"/>
		<path d="M616.3,1064.7l-0.4-2.4h-0.1c-1.5,1.9-3.9,2.9-6.7,2.9c-4.8,0-7.6-3.5-7.6-7.2c0-6.1,5.5-9,13.8-9v-0.3c0-1.2-0.7-3-4.3-3
			c-2.4,0-4.9,0.8-6.5,1.8l-1.3-4.7c1.6-0.9,4.8-2.1,9.1-2.1c7.8,0,10.3,4.6,10.3,10.1v8.2c0,2.3,0.1,4.4,0.3,5.7H616.3z
			 M615.5,1053.6c-3.8,0-6.8,0.9-6.8,3.7c0,1.9,1.2,2.8,2.9,2.8c1.8,0,3.3-1.2,3.8-2.7c0.1-0.4,0.1-0.8,0.1-1.2V1053.6z"/>
		<path d="M628.3,1048.9c0-3.5-0.1-5.7-0.2-7.7h6.3l0.2,4.3h0.2c1.2-3.4,4.1-4.8,6.3-4.8c0.7,0,1,0,1.5,0.1v6.9
			c-0.5-0.1-1.2-0.2-2-0.2c-2.7,0-4.5,1.4-5,3.7c-0.1,0.5-0.1,1.1-0.1,1.6v11.9h-7.3V1048.9z"/>
		<path d="M654.1,1034.7c0,2-1.5,3.6-3.9,3.6c-2.3,0-3.8-1.6-3.8-3.6c0-2.1,1.5-3.7,3.8-3.7C652.6,1031,654.1,1032.6,654.1,1034.7z
			 M646.6,1064.7v-23.5h7.3v23.5H646.6z"/>
		<path d="M682.9,1052.7c0,8.6-6.1,12.5-12.4,12.5c-6.9,0-12.1-4.5-12.1-12.1c0-7.6,5-12.4,12.5-12.4
			C678.1,1040.7,682.9,1045.6,682.9,1052.7z M665.9,1052.9c0,4,1.7,7.1,4.8,7.1c2.8,0,4.7-2.8,4.7-7.1c0-3.5-1.3-7.1-4.7-7.1
			C667.2,1045.8,665.9,1049.4,665.9,1052.9z"/>
		<path d="M685.3,1060.8c0-2.6,1.8-4.5,4.3-4.5c2.5,0,4.3,1.8,4.3,4.5c0,2.5-1.7,4.4-4.3,4.4C687,1065.2,685.3,1063.3,685.3,1060.8z
			"/>
		<path d="M721,1030.6v27.1c0,2.6,0.1,5.4,0.2,7h-6.5l-0.3-3.5h-0.1c-1.5,2.6-4.3,4-7.3,4c-5.6,0-10-4.8-10-12
			c0-7.9,4.9-12.5,10.5-12.5c2.9,0,5.1,1,6.2,2.6h0.1v-12.7H721z M713.7,1051.1c0-0.4,0-0.9-0.1-1.3c-0.4-2-2-3.6-4.3-3.6
			c-3.3,0-5,3-5,6.7c0,4,2,6.5,5,6.5c2.1,0,3.8-1.4,4.2-3.5c0.1-0.5,0.2-1.1,0.2-1.7V1051.1z"/>
		<path d="M732.5,1055.3c0.2,3,3.2,4.5,6.6,4.5c2.5,0,4.5-0.3,6.5-1l1,4.9c-2.4,1-5.3,1.4-8.5,1.4c-8,0-12.5-4.6-12.5-12
			c0-6,3.7-12.5,11.9-12.5c7.6,0,10.5,5.9,10.5,11.7c0,1.2-0.1,2.4-0.2,2.9H732.5z M741.1,1050.3c0-1.8-0.8-4.8-4.1-4.8
			c-3.1,0-4.3,2.8-4.5,4.8H741.1z"/>
		<path d="M781.4,1051h-11.9v7.7h13.3v6h-20.6v-32.4h20v6h-12.6v6.7h11.9V1051z"/>
		<path d="M810.1,1030.6v27.1c0,2.6,0.1,5.4,0.2,7h-6.5l-0.3-3.5h-0.1c-1.5,2.6-4.3,4-7.3,4c-5.6,0-10-4.8-10-12
			c0-7.9,4.9-12.5,10.5-12.5c2.9,0,5.1,1,6.2,2.6h0.1v-12.7H810.1z M802.8,1051.1c0-0.4,0-0.9-0.1-1.3c-0.4-2-2-3.6-4.3-3.6
			c-3.3,0-5,3-5,6.7c0,4,2,6.5,5,6.5c2.1,0,3.8-1.4,4.2-3.5c0.1-0.5,0.2-1.1,0.2-1.7V1051.1z"/>
		<path d="M823.5,1034.7c0,2-1.5,3.6-3.9,3.6c-2.3,0-3.8-1.6-3.8-3.6c0-2.1,1.5-3.7,3.8-3.7S823.4,1032.6,823.5,1034.7z M816,1064.7
			v-23.5h7.3v23.5H816z"/>
		<path d="M837.3,1034.5v6.7h5.2v5.4h-5.2v8.5c0,2.8,0.7,4.1,2.9,4.1c0.9,0,1.6-0.1,2.2-0.2l0,5.5c-1,0.4-2.7,0.6-4.8,0.6
			c-2.4,0-4.3-0.8-5.5-2c-1.3-1.4-2-3.6-2-7v-9.6H827v-5.4h3.1v-5.1L837.3,1034.5z"/>
		<path d="M854.3,1034.7c0,2-1.5,3.6-3.9,3.6c-2.3,0-3.8-1.6-3.8-3.6c0-2.1,1.5-3.7,3.8-3.7S854.2,1032.6,854.3,1034.7z
			 M846.7,1064.7v-23.5h7.3v23.5H846.7z"/>
		<path d="M883.1,1052.7c0,8.6-6.1,12.5-12.4,12.5c-6.9,0-12.1-4.5-12.1-12.1c0-7.6,5-12.4,12.5-12.4
			C878.3,1040.7,883.1,1045.6,883.1,1052.7z M866.1,1052.9c0,4,1.7,7.1,4.8,7.1c2.8,0,4.7-2.8,4.7-7.1c0-3.5-1.3-7.1-4.7-7.1
			C867.4,1045.8,866.1,1049.4,866.1,1052.9z"/>
		<path d="M887.6,1048.7c0-2.9-0.1-5.4-0.2-7.5h6.3l0.3,3.2h0.1c1-1.5,3.4-3.7,7.2-3.7c4.8,0,8.4,3.2,8.4,10.1v13.9h-7.3v-13
			c0-3-1.1-5.1-3.7-5.1c-2,0-3.2,1.4-3.7,2.7c-0.2,0.4-0.3,1.2-0.3,1.8v13.5h-7.3V1048.7z"/>
	</g>
</g>
</svg>
