<svg xmlns="http://www.w3.org/2000/svg" xmlns:xlink="http://www.w3.org/1999/xlink" width="1200.79" height="764.77" viewBox="0 0 1200.79 764.77">
  <defs>
    <linearGradient id="Unbenannter_Verlauf_4" data-name="Unbenannter Verlauf 4" x1="355.71" y1="490.49" x2="355.71" y2="756.67" gradientUnits="userSpaceOnUse">
      <stop offset="0" stop-color="#5350c6"/>
      <stop offset="1" stop-color="#0400ac"/>
    </linearGradient>
    <linearGradient id="Unbenannter_Verlauf_4-2" x1="622.14" y1="492.01" x2="622.14" y2="756.67" xlink:href="#Unbenannter_Verlauf_4"/>
    <linearGradient id="Unbenannter_Verlauf_4-3" x1="780.28" y1="492.01" x2="780.28" y2="756.67" xlink:href="#Unbenannter_Verlauf_4"/>
    <linearGradient id="Unbenannter_Verlauf_4-4" x1="956.66" y1="488.6" x2="956.66" y2="760.08" xlink:href="#Unbenannter_Verlauf_4"/>
    <linearGradient id="Unbenannter_Verlauf_4-5" x1="134.78" y1="433.76" x2="134.78" y2="758.19" xlink:href="#Unbenannter_Verlauf_4"/>
    <linearGradient id="Unbenannter_Verlauf_5" data-name="Unbenannter Verlauf 5" x1="243.08" y1="266.12" x2="627.92" y2="266.12" gradientUnits="userSpaceOnUse">
      <stop offset="0" stop-color="#5350c6"/>
      <stop offset="1" stop-color="#d6d5f1"/>
    </linearGradient>
  </defs>
  <g id="Ebene_1" data-name="Ebene 1">
    <path d="M446.27,756.67l-35.24-78H298.5l-33.35,78H226.32L340,490.49H366.7L485.11,756.67Zm-93.4-208-39.6,95.87H395.5Z" style="fill: url(#Unbenannter_Verlauf_4)"/>
    <path d="M673.39,565.7q0,23.31-11.27,40t-33.06,25.2a101.82,101.82,0,0,1,21.6,17.9q8.7,9.76,26.9,37.23l46.6,70.66H679.07L637.2,691.5q-18.57-29.55-32.58-39.78t-29.56-10.24H558V756.67H520.12V492h72.94q25.2,0,43.39,10.13t27.56,27A74,74,0,0,1,673.39,565.7Zm-38.84,0q0-19.32-11.46-29.84t-32.87-10.51H558v82.79h24.44q24.06,0,38.08-9T634.55,565.7Z" style="fill: url(#Unbenannter_Verlauf_4-2)"/>
    <path d="M761.33,756.67V492h37.89V756.67Z" style="fill: url(#Unbenannter_Verlauf_4-3)"/>
    <path d="M1076.84,624.06a157.28,157.28,0,0,1-14.57,67.25,120.38,120.38,0,0,1-42.44,50Q992,760.08,954.49,760.08q-34.43,0-61.25-18.37t-41.8-49.26q-15-30.88-15-67.26a161.08,161.08,0,0,1,14.09-66.78,122.31,122.31,0,0,1,41.16-50.58q27.06-19.23,64.54-19.23,34.74,0,62.29,18t42.92,49.07Q1076.85,586.74,1076.84,624.06Zm-207.22,1.13q0,28.23,11.61,51t31.31,35.53a77,77,0,0,0,42.76,12.79q24.5,0,44.51-11.47t32-34.1q11.94-22.64,11.93-55.22a116.25,116.25,0,0,0-9.93-46.61,93.44,93.44,0,0,0-29.62-37.89q-19.7-15-46.92-15-26.91,0-46.76,13.45a86.41,86.41,0,0,0-30.35,36.28Q869.63,596.78,869.62,625.19Z" style="fill: url(#Unbenannter_Verlauf_4-4)"/>
    <g>
      <path d="M430.22,295.15a171.37,171.37,0,0,1-16.94,75.48A136.39,136.39,0,0,1,364,426.77q-32.37,21-75.91,21.05-40,0-71.17-20.63t-48.56-55.28q-17.4-34.67-17.4-75.49a175.61,175.61,0,0,1,16.37-75,138.35,138.35,0,0,1,47.82-56.77q31.44-21.58,75-21.58,40.38,0,72.38,20.2t49.86,55.07Q430.22,253.27,430.22,295.15Zm-240.76,1.27q0,31.69,13.48,57.2t36.38,39.87A91.75,91.75,0,0,0,289,407.84q28.46,0,51.72-12.86t37.12-38.28q13.86-25.4,13.86-62a126.75,126.75,0,0,0-11.53-52.31,105.53,105.53,0,0,0-34.43-42.52q-22.87-16.8-54.51-16.8-31.26,0-54.33,15.1a97.8,97.8,0,0,0-35.26,40.72Q189.46,264.53,189.46,296.42Z" style="fill: #fff"/>
      <path d="M612.36,268.79q0,32.41-20.58,48.22t-58.36,15.81H502.13v98.24H469.71V204.59h69.06q34.53,0,54.06,17.1T612.36,268.79ZM578.81,268q0-16.85-10.46-25.85t-36.23-9h-30v71.17h30q26.42,0,36.55-9.16T578.81,268Z" style="fill: #fff"/>
      <path d="M676.71,233.45V302.5h92.72v29H676.71v70.36h99v29.18H644.29V204.59H772.68v28.86Z" style="fill: #fff"/>
      <path d="M993.55,204.59h31.29V431.06H996.63L846.19,256.79V431.06H815.07V204.59h26.75L993.55,380.32Z" style="fill: #fff"/>
    </g>
    <path d="M343.5,291.83l-18.94,32c-12.3,20.51-33.54,58.94-44.89,83.57,3.07.29,6.18.45,9.33.45q28.46,0,51.72-12.86t37.12-38.28q13.86-25.4,13.86-62a126.75,126.75,0,0,0-11.53-52.31.89.89,0,0,1-.08-.17l-6.94,8.59Z" style="fill: none"/>
    <path d="M345.74,199.89q-22.87-16.8-54.51-16.8-31.26,0-54.33,15.1a97.8,97.8,0,0,0-35.26,40.72q-12.18,25.62-12.18,57.51,0,31.69,13.48,57.2t36.38,39.87c1.24.78,2.5,1.52,3.76,2.23,4.09-10.57,11.3-25.45,14.63-31.9l14.68-28,17.15-27a508.68,508.68,0,0,1,71.41-89l3.1-3A108,108,0,0,0,345.74,199.89Z" style="fill: none"/>
    <path d="M228.06,433.76,204.62,492,126.37,677.86,46,492H8L122,758.19h8.52L242.32,492c2.28-5.43,13.65-31.77,19.28-46.65A122.34,122.34,0,0,1,228.06,433.76Z" style="fill: url(#Unbenannter_Verlauf_4-5)"/>
    <path d="M605.92,124.85c-47.46-.07-106.31,11.11-150,29.86l-13,6.82-4.57,2.34a212.44,212.44,0,0,0-22.07,13L408,182.5c-4.4,3-8.88,5.93-13.33,8.92A205.39,205.39,0,0,0,376,205.27l-11.9,11.56-3.1,3a508.68,508.68,0,0,0-71.41,89l-17.15,27-14.68,28c-3.33,6.45-10.54,21.33-14.63,31.9a91.3,91.3,0,0,0,36.59,11.67c11.35-24.63,32.59-63.06,44.89-83.57l10.29-17.38q8.64-14.61,18.6-28.37l19.7-27.24,6.94-8.59,4.29-5.32,8.57-8.1q8.15-7.95,16.66-15.53c19.3-17.13,40.15-32.49,63.33-44.08,36.45-18.23,70.25-26.63,110-33.78l45-7.58v-2Z" style="fill: url(#Unbenannter_Verlauf_5)"/>
  </g>
  <g id="Ebene_3" data-name="Ebene 3">
    <path d="M1188.66,17.3c-16.51,7-26.89,9.63-38.49,10.7l-90,10.52-75,7-30,3-15,1.39-22-9.36c-8.78-3.42-24.58-6.09-34-6.2-17.6-.2-33.42,2.19-50,8.42L804.22,56l-20-.61-13-1-25-1-17-1-16-1-28-1-8-31h0l38.19-5H664.24l-12,1h-12l-10,.95c-9.89.68-12.77-3.81-23.34.08L643,20.26l6.26.1-3,1v16l1,11-18-1-14-1-23-1-16-1-14-1-22-1-14-1-14-1h-10l-10-1c-22.48-.26-42.32-8-53-9,4.89,6.34,9.67,6.54,17,8.37l13,3.31,26,2.41,16,1.74,45,4,55,4.89,26,1.7c2.52.34,7.53.41,9.26,2.18,2.41,2.46,1.7,10,1.74,13.4l2,30,17,2,9-.82,22-2,44-3.33,33-2.83,15-1h29l15,1,19-1c24.4-.11,55.54-4.74,78-14.43a84.91,84.91,0,0,0,16-9.47c1.79-1.39,4.8-3.6,4.8-6.11s-3.18-5.31-4.8-7l19-2.16,45-5,111-13.56,37.71-6.23c10.32-2.74,20.36-6.18,30-12.14ZM757.23,73.63l-38,8.72c-4.84,1.26-18.71,5.34-22.86,3-4.54-2.59-7.37-19.62-8.13-25l21,1,10,.91,25,1.18,14,.91,24,2C776.13,70.08,764.41,72.14,757.23,73.63Z"/>
    <path d="M605.26,16.36m62.1-.18.19,1L643,20.26l-.69,14.09,1,11-18-1-14-1-23-1-16-1-14-1-22-1-14-1-14-1h-10l-10-1c-22.48-.26-42.32-8-53-9,4.89,6.34,9.67,6.54,17,8.37l13,3.31,26,2.41,16,1.74,45,4,55,4.89,26,1.7,72,4.58,10,.91,25,1.18,14,.91,24,2c-.45.27,67.44,4.86,66.93,5.12s-1.14,1.82-1.64,2-69.45-5.15-70.13-4.89c-6.29,2.35-14.59,3.85-20.16,5l-38,8.72c-4.83,1.26-18.71,5.34-22.86,3s-6.85-16.58-7.83-23l-41-3c.26,3,.67,10.28.7,13l2,30,17,2,9-.82,22-2,44-3.33,33-2.83,15-1h29l15,1,19-1c24.4-.11,55.54-4.74,78-14.43a85.31,85.31,0,0,0,16-9.47c1.79-1.39,4.79-3.6,4.79-6.11s-3.17-5.31-4.79-7l19-2.16,45-5,111-13.56,39-5.13a77.62,77.62,0,0,0,31.47-11.2l-1.48-.94c-17.36,7.79-27.39,9-39,10.06l-92,9.1-75,7-30,3-15,1.39-22-9.36c-8.78-3.42-24.58-6.09-34-6.2-17.6-.2-33.42,2.19-50,8.42L800.23,53l-20-.61-13-1-25-1-17-1-16-1-28-1-8-31,42.18-2-.19-1-19.37-1.85c-1.08-.1-2.17-.15-3.26-.15H660.25c-21.09-.52-53.34,4.28-53.34,4.28v.71Z" style="fill: #b8b8b8"/>
  </g>
</svg>
