<?xml version="1.0" encoding="utf-8"?>
<!-- Generator: Adobe Illustrator 25.4.1, SVG Export Plug-In . SVG Version: 6.00 Build 0)  -->
<svg version="1.1" xmlns="http://www.w3.org/2000/svg" xmlns:xlink="http://www.w3.org/1999/xlink" x="0px" y="0px"
	 viewBox="0 0 1200.8 764.8" style="enable-background:new 0 0 1200.8 764.8;" xml:space="preserve">
<style type="text/css">
	.st0{fill:#0400AC;}
	.st1{fill:none;}
	.st2{fill:#5350C6;}
	.st3{fill:#D6D5F1;}
	.st4{fill:#B8B8B8;}
</style>
<g id="Ebene_1">
	<path class="st0" d="M446.3,756.7L411,678.6H298.5l-33.3,78.1h-38.8L340,490.5h26.7l118.4,266.2H446.3z M352.9,548.7l-39.6,95.9
		h82.2L352.9,548.7z"/>
	<path class="st0" d="M673.4,565.7c0,15.5-3.8,28.9-11.3,40c-7.5,11.1-18.5,19.5-33.1,25.2c8.6,5.4,15.8,11.4,21.6,17.9
		c5.8,6.5,14.8,18.9,26.9,37.2l46.6,70.7h-45.1l-41.9-65.2c-12.4-19.7-23.2-33-32.6-39.8c-9.3-6.8-19.2-10.2-29.6-10.2H558v115.2
		h-37.9V492h72.9c16.8,0,31.3,3.4,43.4,10.1c12.1,6.8,21.3,15.8,27.6,27C670.3,540.4,673.4,552.6,673.4,565.7z M634.6,565.7
		c0-12.9-3.8-22.8-11.5-29.8c-7.6-7-18.6-10.5-32.9-10.5H558v82.8h24.4c16,0,28.7-3,38.1-9C629.9,593.1,634.6,582,634.6,565.7z"/>
	<path class="st0" d="M761.3,756.7V492h37.9v264.7H761.3z"/>
	<path class="st0" d="M1076.8,624.1c0,24-4.9,46.4-14.6,67.3c-9.7,20.8-23.9,37.5-42.4,50c-18.6,12.5-40.4,18.8-65.3,18.8
		c-23,0-43.4-6.1-61.3-18.4c-17.9-12.2-31.8-28.7-41.8-49.3c-10-20.6-15-43-15-67.3c0-23.6,4.7-45.9,14.1-66.8
		c9.4-20.9,23.1-37.8,41.2-50.6c18-12.8,39.6-19.2,64.5-19.2c23.2,0,43.9,6,62.3,18c18.4,12,32.7,28.4,42.9,49.1
		C1071.7,576.4,1076.8,599.2,1076.8,624.1z M869.6,625.2c0,18.8,3.9,35.8,11.6,51c7.7,15.2,18.2,27,31.3,35.5
		c13.1,8.5,27.4,12.8,42.8,12.8c16.3,0,31.2-3.8,44.5-11.5c13.3-7.6,24-19,31.9-34.1c8-15.1,11.9-33.5,11.9-55.2
		c0-15.8-3.3-31.3-9.9-46.6c-6.6-15.3-16.5-27.9-29.6-37.9c-13.1-10-28.8-15-46.9-15c-17.9,0-33.5,4.5-46.8,13.5
		c-13.2,9-23.4,21.1-30.3,36.3C873.1,589.2,869.6,606.2,869.6,625.2z"/>
	<g>
		<path d="M430.2,295.1c0,26.9-5.6,52.1-16.9,75.5C402,394,385.6,412.7,364,426.8s-46.9,21.1-75.9,21.1c-26.7,0-50.4-6.9-71.2-20.6
			c-20.8-13.7-37-32.2-48.6-55.3c-11.6-23.1-17.4-48.3-17.4-75.5c0-26.5,5.5-51.5,16.4-75c10.9-23.5,26.9-42.4,47.8-56.8
			c21-14.4,46-21.6,75-21.6c26.9,0,51,6.7,72.4,20.2c21.3,13.5,38,31.8,49.9,55.1C424.3,241.6,430.2,267.2,430.2,295.1z
			 M189.5,296.4c0,21.1,4.5,40.2,13.5,57.2c9,17,21.1,30.3,36.4,39.9c15.3,9.6,31.8,14.4,49.7,14.4c19,0,36.2-4.3,51.7-12.9
			c15.5-8.6,27.9-21.3,37.1-38.3c9.2-16.9,13.9-37.6,13.9-62c0-17.7-3.8-35.2-11.5-52.3c-7.7-17.2-19.2-31.3-34.4-42.5
			c-15.3-11.2-33.4-16.8-54.5-16.8c-20.8,0-39,5-54.3,15.1c-15.4,10.1-27.1,23.6-35.3,40.7C193.5,256,189.5,275.2,189.5,296.4z"/>
		<path d="M612.4,268.8c0,21.6-6.9,37.7-20.6,48.2c-13.7,10.5-33.2,15.8-58.4,15.8h-31.3v98.2h-32.4V204.6h69.1
			c23,0,41,5.7,54.1,17.1C605.9,233.1,612.4,248.8,612.4,268.8z M578.8,268c0-11.2-3.5-19.9-10.5-25.9s-19-9-36.2-9h-30v71.2h30
			c17.6,0,29.8-3.1,36.6-9.2C575.4,289,578.8,280,578.8,268z"/>
		<path d="M676.7,233.4v69.1h92.7v29h-92.7v70.4h99v29.2H644.3V204.6h128.4v28.9H676.7z"/>
		<path d="M993.5,204.6h31.3v226.5h-28.2L846.2,256.8v174.3h-31.1V204.6h26.7l151.7,175.7V204.6z"/>
	</g>
	<path class="st1" d="M343.5,291.8l-18.9,32c-12.3,20.5-33.5,58.9-44.9,83.6c3.1,0.3,6.2,0.5,9.3,0.5c19,0,36.2-4.3,51.7-12.9
		c15.5-8.6,27.9-21.3,37.1-38.3c9.2-16.9,13.9-37.6,13.9-62c0-17.7-3.8-35.2-11.5-52.3c0-0.1-0.1-0.1-0.1-0.2l-6.9,8.6L343.5,291.8z
		"/>
	<path class="st1" d="M345.7,199.9c-15.3-11.2-33.4-16.8-54.5-16.8c-20.8,0-39,5-54.3,15.1c-15.4,10.1-27.1,23.6-35.3,40.7
		c-8.1,17.1-12.2,36.3-12.2,57.5c0,21.1,4.5,40.2,13.5,57.2c9,17,21.1,30.3,36.4,39.9c1.2,0.8,2.5,1.5,3.8,2.2
		c4.1-10.6,11.3-25.4,14.6-31.9l14.7-28l17.2-27c20.1-32.2,44.6-62.2,71.4-89l3.1-3C358.7,210.6,352.6,204.9,345.7,199.9z"/>
	<path class="st0" d="M228.1,433.8L204.6,492l-78.2,185.9L46,492H8L122,758.2h8.5L242.3,492c2.3-5.4,13.7-31.8,19.3-46.7
		C249.7,443.1,238.6,439.2,228.1,433.8z"/>
	<path class="st0" d="M605.9,124.8c-47.5-0.1-106.3,11.1-150,29.9l-13,6.8l-4.6,2.3c-7.6,3.9-15,8.2-22.1,13l-8.4,5.6
		c-4.4,3-8.9,5.9-13.3,8.9c-6.4,4.3-12.8,8.8-18.7,13.8L364,216.8l-3.1,3c-26.8,26.8-51.3,56.8-71.4,89l-17.2,27l-14.7,28
		c-3.3,6.5-10.5,21.3-14.6,31.9c11.5,6.5,23.7,10.4,36.6,11.7c11.4-24.6,32.6-63.1,44.9-83.6l10.3-17.4c5.8-9.7,12-19.2,18.6-28.4
		l19.7-27.2l6.9-8.6l4.3-5.3l8.6-8.1c5.4-5.3,11-10.5,16.7-15.5c19.3-17.1,40.1-32.5,63.3-44.1c36.4-18.2,70.3-26.6,110-33.8l45-7.6
		v-2L605.9,124.8z"/>
</g>
<g id="Ebene_3">
	<g>
		<path d="M1188.7,17.3c-16.5,7-26.9,9.6-38.5,10.7l-90,10.5l-75,7l-30,3l-15,1.4l-22-9.4c-8.8-3.4-24.6-6.1-34-6.2
			c-17.6-0.2-33.4,2.2-50,8.4l-30,13.2l-20-0.6l-13-1l-25-1l-17-1l-16-1l-28-1l-8-31l0,0l38.2-5h-17.2h-34l-12,1h-12l-10,0.9
			c-9.9,0.7-12.8-3.8-23.3,0.1l36.1,3.9l6.3,0.1l-3,1v16l1,11l-18-1l-14-1l-23-1l-16-1l-14-1l-22-1l-14-1l-14-1h-10l-10-1
			c-22.5-0.3-42.3-8-53-9c4.9,6.3,9.7,6.5,17,8.4l13,3.3l26,2.4l16,1.7l45,4l55,4.9l26,1.7c2.5,0.3,7.5,0.4,9.3,2.2
			c2.4,2.5,1.7,10,1.7,13.4l2,30l17,2l9-0.8l22-2l44-3.3l33-2.8l15-1h29l15,1l19-1c24.4-0.1,55.5-4.7,78-14.4c5-2.1,11.7-6.2,16-9.5
			c1.8-1.4,4.8-3.6,4.8-6.1c0-2.5-3.2-5.3-4.8-7l19-2.2l45-5l111-13.6l37.7-6.2c10.3-2.7,20.4-6.2,30-12.1L1188.7,17.3z M757.2,73.6
			l-38,8.7c-4.8,1.3-18.7,5.3-22.9,3c-4.5-2.6-7.4-19.6-8.1-25l21,1l10,0.9l25,1.2l14,0.9l24,2C776.1,70.1,764.4,72.1,757.2,73.6z"
			/>
	</g>
	<g>
		<path class="st4" d="M605.3,16.4 M667.4,16.2l0.2,1L643,20.3l-0.7,14.1l1,11l-18-1l-14-1l-23-1l-16-1l-14-1l-22-1l-14-1l-14-1h-10
			l-10-1c-22.5-0.3-42.3-8-53-9c4.9,6.3,9.7,6.5,17,8.4l13,3.3l26,2.4l16,1.7l45,4l55,4.9l26,1.7l72,4.6l10,0.9l25,1.2l14,0.9l24,2
			c-0.5,0.3,67.4,4.9,66.9,5.1c-0.5,0.2-1.1,1.8-1.6,2c-0.6,0.3-69.4-5.1-70.1-4.9c-6.3,2.4-14.6,3.9-20.2,5l-38,8.7
			c-4.8,1.3-18.7,5.3-22.9,3c-4.2-2.4-6.9-16.6-7.8-23l-41-3c0.3,3,0.7,10.3,0.7,13l2,30l17,2l9-0.8l22-2l44-3.3l33-2.8l15-1h29
			l15,1l19-1c24.4-0.1,55.5-4.7,78-14.4c5-2.1,11.7-6.2,16-9.5c1.8-1.4,4.8-3.6,4.8-6.1c0-2.5-3.2-5.3-4.8-7l19-2.2l45-5l111-13.6
			l39-5.1c11.1-1.3,21.8-5.2,31.5-11.2l-1.5-0.9c-17.4,7.8-27.4,9-39,10.1l-92,9.1l-75,7l-30,3l-15,1.4l-22-9.4
			c-8.8-3.4-24.6-6.1-34-6.2c-17.6-0.2-33.4,2.2-50,8.4l-30,13.2l-20-0.6l-13-1l-25-1l-17-1l-16-1l-28-1l-8-31l42.2-2l-0.2-1
			l-19.4-1.8c-1.1-0.1-2.2-0.2-3.3-0.2h-32.4c-21.1-0.5-53.3,4.3-53.3,4.3l0,0.7L667.4,16.2z"/>
	</g>
</g>
</svg>
